<?xml version="1.0" encoding="UTF-8"?><svg id="uuid-4a4935d1-5f73-45f6-adfb-250cb2daccf6" xmlns="http://www.w3.org/2000/svg" width="9.03mm" height="10.58mm" xmlns:xlink="http://www.w3.org/1999/xlink" viewBox="0 0 25.59 30"><defs><linearGradient id="uuid-0d30f022-be90-45f1-803c-aa1689d5aed8" x1="340.81" y1="6474.25" x2="359.24" y2="6474.25" gradientTransform="translate(-337.06 6486) scale(1 -1)" gradientUnits="userSpaceOnUse"><stop offset="0" stop-color="#da261d"/><stop offset=".5" stop-color="#89211b"/></linearGradient></defs><g id="uuid-cf8407db-ab77-460d-9e7c-1472787522f8"><rect id="uuid-6fe5d4cd-3746-42a2-904b-2031977231c2" x=".03" width="25.55" height="30" fill="#fff"/><path id="uuid-1e49ebaf-c7d7-45be-bde5-6a07b3afa00b" d="M0,24.68h20.34l5.24,5.32V12.92H0v11.76h0s0,0,0,0ZM13.3,3.67c-.3,0-.54.24-.54.54v3.25s0,0,0,0c0,1.23,1,2.22,2.23,2.22s2.23-1,2.23-2.23-1-2.23-2.23-2.23c-.42,0-.81.12-1.14.32v-1.34c0-.3-.24-.54-.55-.54h0s0,0,0,0ZM14.98,6.32c.63,0,1.14.51,1.14,1.14s-.51,1.14-1.14,1.14-1.14-.51-1.14-1.14.51-1.14,1.14-1.14h0ZM18.34,5.24c-.3,0-.55.24-.55.54v1.86c0,.66.09,1.59.9,1.99.27.14.6.03.73-.24.13-.27.03-.6-.24-.73-.07-.04-.3-.15-.3-1.02v-1.86c0-.3-.24-.54-.54-.54h0ZM18.34,3.67c-.33,0-.6.27-.6.6s.27.6.6.6.6-.27.6-.6-.27-.6-.6-.6ZM21.15,10.58v-1.2c.33.2.72.32,1.14.32,1.23,0,2.23-1,2.23-2.23s-1-2.23-2.23-2.23-2.23,1-2.23,2.23v3.12c0,.3.24.54.55.54s.55-.24.55-.54h0ZM22.29,6.32c.63,0,1.14.51,1.14,1.14s-.51,1.14-1.14,1.14-1.14-.51-1.14-1.14.51-1.14,1.14-1.14h0ZM0,0v1.11h25.59V0H0Z" fill="url(#uuid-0d30f022-be90-45f1-803c-aa1689d5aed8)" fill-rule="evenodd"/></g></svg>