<svg xmlns="http://www.w3.org/2000/svg" width="182.853" height="70.014" viewBox="0 0 182.853 70.014"><g transform="translate(-40.879 -16.058)"><path d="M269.68,148.822H273.8a2.775,2.775,0,1,1,0,5.546h-2.867v3.84H269.68Zm1.248,4.495h2.446c1.424.013,2.054-.6,2.054-1.721s-.63-1.723-2.054-1.723h-2.446Z" transform="translate(-147.334 -85.492)" fill="#1d1d1d"/><path d="M276.249,57.8a2.334,2.334,0,0,0-2.6-1.983c-2.163,0-2.988,1.894-2.988,3.823s.825,3.819,2.988,3.819a2.369,2.369,0,0,0,2.6-2.378H279.6c-.2,3.332-2.611,5.261-5.872,5.261-3.912,0-6.414-2.972-6.414-6.7s2.5-6.707,6.414-6.707c2.792,0,5.783,1.769,5.872,4.867Z" transform="translate(-145.809 -23.746)" fill="#1d1d1d"/><path d="M310.127,62.812a4.946,4.946,0,1,1-4.92,4.952,4.793,4.793,0,0,1,4.92-4.952m0,7.549c1.44,0,1.872-1.388,1.872-2.6,0-1.189-.432-2.61-1.872-2.61s-1.858,1.422-1.858,2.61c0,1.208.432,2.6,1.858,2.6" transform="translate(-170.211 -30.107)" fill="#1d1d1d"/><path d="M337.384,63.082h2.921v1.08h.036a2.954,2.954,0,0,1,2.577-1.35c2.937,0,4.181,2.506,4.181,5.153,0,2.432-1.3,4.738-3.946,4.738a3.149,3.149,0,0,1-2.667-1.279h-.037v4.143h-3.065Zm2.957,4.578c0,1.638.469,2.7,1.858,2.7,1.348,0,1.836-1.423,1.836-2.7,0-1.192-.452-2.506-1.821-2.506-.81,0-1.873.557-1.873,2.506" transform="translate(-190.931 -30.107)" fill="#1d1d1d"/><path d="M371.067,68.505a1.983,1.983,0,0,0,2.086,2.126A1.8,1.8,0,0,0,374.9,69.6h2.863c-.574,2.163-2.556,3.1-4.648,3.1-3.045,0-5.116-1.837-5.116-4.972a4.909,4.909,0,0,1,5.046-4.919c3.352,0,5.028,2.521,4.884,5.693Zm3.8-1.711a1.879,1.879,0,0,0-1.817-1.911,2.017,2.017,0,0,0-1.981,1.911Z" transform="translate(-210.647 -30.107)" fill="#1d1d1d"/><path d="M400.489,63.241h2.972v1.64h.038a2.79,2.79,0,0,1,2.807-1.822,3.4,3.4,0,0,1,.721.072v2.794a3.8,3.8,0,0,0-1.171-.179,2.148,2.148,0,0,0-2.3,2.217v4.628h-3.064Z" transform="translate(-231.566 -30.266)" fill="#1d1d1d"/><path d="M421.741,63.082h2.972V64.36h.035a3.557,3.557,0,0,1,2.939-1.548c3.117,0,3.368,2.269,3.368,3.621v6h-3.062V66.973c0-.9-.306-1.64-1.531-1.64-1.153,0-1.659.99-1.659,2v5.1h-3.062Z" transform="translate(-245.251 -30.107)" fill="#1d1d1d"/><path d="M456.99,56.045h-3.061V53.7h3.061Zm-3.061,1.17h3.06v9.35h-3.06Z" transform="translate(-265.979 -24.241)" fill="#1d1d1d"/><path d="M473.874,66.5a1.431,1.431,0,0,0-1.5-1.35c-1.711,0-1.98,1.459-1.98,2.757,0,1.206.52,2.449,1.818,2.449a1.622,1.622,0,0,0,1.748-1.6h2.974a4.37,4.37,0,0,1-4.7,3.946,4.644,4.644,0,0,1-4.9-4.792,4.735,4.735,0,0,1,4.9-5.1c2.341,0,4.377,1.244,4.611,3.692Z" transform="translate(-274.61 -30.107)" fill="#1d1d1d"/><path d="M507.872,72.919H504.9V71.641h-.038a3.447,3.447,0,0,1-2.846,1.549c-2.687,0-3.459-1.549-3.459-4V63.569h3.061v5.424c0,1.241.525,1.675,1.517,1.675.648,0,1.675-.434,1.675-2.09V63.569h3.064Z" transform="translate(-294.715 -30.594)" fill="#1d1d1d"/><path d="M531.88,69.35a1.231,1.231,0,0,0,.507,1.046,1.9,1.9,0,0,0,1.13.323c.579,0,1.443-.269,1.443-.99,0-.739-.974-.849-1.494-.991-1.928-.489-4.344-.541-4.344-3.065,0-2.233,2.434-2.865,4.271-2.865,2.037,0,4.214.593,4.306,3.028h-2.826a.864.864,0,0,0-.4-.812,1.689,1.689,0,0,0-.971-.234c-.5,0-1.313.054-1.313.7,0,.865,2.052,1.061,3.459,1.35a2.671,2.671,0,0,1,2.378,2.523c0,2.506-2.378,3.333-4.488,3.333-2.236,0-4.486-.738-4.578-3.351Z" transform="translate(-314.293 -30.105)" fill="#1d1d1d"/><path d="M276.249,103.313a2.332,2.332,0,0,0-2.6-1.981c-2.163,0-2.988,1.891-2.988,3.819s.825,3.819,2.988,3.819a2.367,2.367,0,0,0,2.6-2.377H279.6c-.2,3.332-2.611,5.261-5.872,5.261-3.912,0-6.414-2.974-6.414-6.7s2.5-6.7,6.414-6.7c2.792,0,5.783,1.765,5.872,4.865Z" transform="translate(-145.809 -53.054)" fill="#1d1d1d"/><path d="M308.268,114.013a1.985,1.985,0,0,0,2.088,2.125,1.8,1.8,0,0,0,1.75-1.026h2.865c-.575,2.162-2.559,3.1-4.647,3.1-3.048,0-5.121-1.836-5.121-4.972a4.908,4.908,0,0,1,5.048-4.919c3.349,0,5.028,2.523,4.882,5.694Zm3.8-1.712a1.88,1.88,0,0,0-1.817-1.911,2.017,2.017,0,0,0-1.983,1.911Z" transform="translate(-170.208 -59.41)" fill="#1d1d1d"/><path d="M337.384,108.589h2.976v1.278h.037a3.55,3.55,0,0,1,2.934-1.548c3.116,0,3.369,2.271,3.369,3.62v6h-3.062V112.48c0-.9-.307-1.639-1.533-1.639-1.151,0-1.658.989-1.658,2v5.1h-3.065Z" transform="translate(-190.931 -59.41)" fill="#1d1d1d"/><path d="M373.349,105.94h-1.891v4.25c0,.741.431.9,1.1.9.269,0,.524-.036.793-.036v2.254c-.557.017-1.118.09-1.675.09-2.615,0-3.28-.776-3.28-3.3V105.94h-1.548v-1.98h1.548v-2.829h3.064v2.829h1.891Z" transform="translate(-209.903 -54.782)" fill="#1d1d1d"/><path d="M390.751,114.013a1.985,1.985,0,0,0,2.091,2.125,1.8,1.8,0,0,0,1.745-1.026h2.865c-.577,2.162-2.558,3.1-4.644,3.1-3.048,0-5.121-1.836-5.121-4.972a4.907,4.907,0,0,1,5.045-4.919c3.352,0,5.03,2.523,4.882,5.694Zm3.8-1.712a1.883,1.883,0,0,0-1.819-1.911,2.016,2.016,0,0,0-1.981,1.911Z" transform="translate(-223.322 -59.41)" fill="#1d1d1d"/><path d="M420.172,108.747h2.975v1.638h.036a2.793,2.793,0,0,1,2.809-1.82,3.2,3.2,0,0,1,.724.074v2.794a3.718,3.718,0,0,0-1.176-.181,2.151,2.151,0,0,0-2.306,2.215V118.1h-3.061Z" transform="translate(-244.241 -59.569)" fill="#1d1d1d"/><path d="M293.613,148.818h4.419c1.775,0,2.856.947,2.856,2.46a2.229,2.229,0,0,1-1.633,2.378v.027c1.089.21,1.3,1.025,1.406,1.933a4.688,4.688,0,0,0,.553,2.59h-1.393c-.357-.381-.159-1.394-.344-2.313-.145-.909-.352-1.7-1.566-1.7h-3.049v4.009h-1.25Zm3.854,4.324c1.157,0,2.171-.3,2.171-1.668a1.48,1.48,0,0,0-1.671-1.6h-3.1v3.273Z" transform="translate(-162.745 -85.489)" fill="#1d1d1d"/><path d="M318.928,148.822h6.482v1.051h-5.234v2.984h4.878v1.052h-4.878v3.248h5.272v1.052h-6.52Z" transform="translate(-179.046 -85.492)" fill="#1d1d1d"/><path d="M345.95,151.156a2.038,2.038,0,0,0-2.328-1.92c-1.064,0-2.1.381-2.1,1.6,0,2.313,6.009.684,6.009,4.378,0,2-1.959,2.8-3.671,2.8-2.1,0-3.876-1.038-3.876-3.315h1.184c0,1.58,1.316,2.265,2.733,2.265,1.13,0,2.381-.356,2.381-1.712,0-2.576-6.009-.881-6.009-4.324,0-1.894,1.682-2.752,3.406-2.752,1.921,0,3.391.91,3.459,2.975Z" transform="translate(-192.604 -85.079)" fill="#1d1d1d"/><path d="M369.885,151.156a2.039,2.039,0,0,0-2.327-1.92c-1.066,0-2.105.381-2.105,1.6,0,2.313,6.011.684,6.011,4.378,0,2-1.959,2.8-3.671,2.8-2.1,0-3.878-1.038-3.878-3.315H365.1c0,1.58,1.316,2.265,2.734,2.265,1.131,0,2.381-.356,2.381-1.712,0-2.576-6.008-.881-6.008-4.324,0-1.894,1.682-2.752,3.4-2.752,1.921,0,3.394.91,3.461,2.975Z" transform="translate(-208.015 -85.079)" fill="#1d1d1d"/><path d="M75.89,16.058A35.007,35.007,0,1,0,110.9,51.064,35.009,35.009,0,0,0,75.89,16.058ZM92.153,48.522a16.125,16.125,0,0,1-6.792,7.567,10.8,10.8,0,0,1-3.882,1.388c-3.876.688-7.952-.8-8.968-4.86-.963-3.851.924-7.272,4.038-9.535a12.018,12.018,0,0,1,7.666-2.266,11.212,11.212,0,0,0,2.573,0,16.616,16.616,0,0,0-1.774,2.564,6.982,6.982,0,0,0-7.089.38,6.456,6.456,0,0,0-2.764,5.872c.339,3.265,2.1,5.148,5.24,5.687a9.932,9.932,0,0,0,4.276-.477,10.157,10.157,0,0,0,3.012-1.767,12.5,12.5,0,0,0,3.4-5.12C93.549,40.905,89.135,35.641,82.8,35.2,72.87,34.5,62.181,43.982,64.865,55.745c1.643,7.184,7.8,10.041,15.707,9.2a16.788,16.788,0,0,0,6.659-1.975,20.81,20.81,0,0,0,1.831-1.174L88.3,64.105c-5.776,3.889-10.246,5.071-16.586,4.9-6.962-.184-12.943-4.919-13.223-12.768C58.03,43.252,70.3,31.686,83.555,33.25c4.142.49,7.654,2.677,9.079,6.517A11.426,11.426,0,0,1,92.153,48.522ZM82.837,47.7a1.837,1.837,0,0,1-2.482.554,1.706,1.706,0,0,1-.341-2.44,1.835,1.835,0,0,1,2.476-.554A1.7,1.7,0,0,1,82.837,47.7Z" transform="translate(0 0)" fill="#1d1d1d"/></g></svg>