<?xml version="1.0" encoding="UTF-8"?><svg id="uuid-3aa68cb5-6031-483f-8960-9da7eca76ccd" xmlns="http://www.w3.org/2000/svg" width="9.3mm" height="10.94mm" xmlns:xlink="http://www.w3.org/1999/xlink" viewBox="0 0 26.35 31"><defs><linearGradient id="uuid-4c7bc9ed-ba6f-40c0-9dee-9a8872519dcc" x1="21.18" y1="6885.02" x2="24.01" y2="6882.79" gradientTransform="translate(-13.79 6895.62) scale(1 -1)" gradientUnits="userSpaceOnUse"><stop offset="0" stop-color="#c3bdc9"/><stop offset="1" stop-color="#c3bdc9" stop-opacity="0"/></linearGradient><linearGradient id="uuid-fcaeeabf-850b-43a4-b40e-4d71f0aa1065" x1="29.65" y1="6879.95" x2="21.1" y2="6884.37" xlink:href="#uuid-4c7bc9ed-ba6f-40c0-9dee-9a8872519dcc"/><linearGradient id="uuid-b7f95b50-d150-4fa6-96f5-e62333aece99" x1="34.22" y1="6885.91" x2="29.1" y2="6882" xlink:href="#uuid-4c7bc9ed-ba6f-40c0-9dee-9a8872519dcc"/></defs><g id="uuid-0e07fb0d-c6f6-4caa-b830-1fdc30e96dd7"><g id="uuid-c3e2a4a9-2288-43ed-baba-7010d9751dea"><path id="uuid-7ba65597-8b7d-451e-bd2a-5cf1a23a65f9" d="M0,0l.35,24.71s.03,2.22,2.29,3.7c.63.41,1.63.74,3.17.72.47,0,3.15-.02,4.51.02.99.03,2.63.71,2.75,1.86h.23c.1-1.33,1.74-1.83,2.75-1.86,1.35-.04,4.04-.02,4.51-.02,1.54.02,2.54-.31,3.17-.72,2.26-1.48,2.29-3.7,2.29-3.7L26.35,0H0h0Z" fill="#dc153d" fill-rule="evenodd"/></g><path id="uuid-5636225c-4843-4bf2-b584-92d46b742f5e" d="M11.01,1.64c.43.75.6,1.46.84,2.14.39-.05.84.05,1.29.08.51.1.91.14,1.29.08.23-1.07.43-1.6.89-2.35-.2.14-.64.2-.81.45-.26-.23-.46-.09-.59.16.04-.19-.01-.36-.27-.37.15-.28-.08-.42-.32-.29,0-.24-.2-.25-.22-.38-.03.15-.2.08-.18.44-.19-.16-.38-.05-.31.22-.24,0-.3.19-.28.44-.16-.38-.47-.26-.57-.13-.19-.37-.33-.14-.77-.49h0Z" fill="#f7d255" fill-rule="evenodd"/><path id="uuid-d8d0daf9-4dfb-4697-86a2-636a4ff42083" d="M14.8,3.55c-.27.47-.39.5-1.59.32-.95-.09-1.8-.36-1.84.5.31.04.77.07.97.74l-.58.5c-.41.06-1.06.61-1.48.1-.12.48.32.61.78.6.32-.03.42-.12,1.03-.24l.16.17c.91.08,1.38,1.37-.09,2.14-.06.18.04.39.18.41-.43.61-1.13,1.36-1.38.86-.06.06-.22.47.1.69-.24.3-.34.65-.32,1.06-.97-.15-1.61-.32-1.39-1.22,1.03.05,1.31-1.2,1.16-1.83-.6-2.53-3.86-4.55-6.23-4.62.13.69.56,1.18,1.04,1.64-.63-.31-1.36-.6-2.12-.45.09.54.38,1.17,1.62,2.2-.89-.53-1.72-1.05-2.01-1.47-.13.17-.2.88.56,1.4-.24-.1-1.44-.09-1.8.18.22.5,1.22,1.37,2.04,1.63-.78-.11-1.5-.43-2.17-.99-.1.09,0,1.01.83,1.37-.27.02-1.18.27-1.42.57.48.64,1.7,1.2,2.3,1.2-.83.11-1.73-.06-2.11-.18,0,.21-.17,1.06,2.09.92-.81.38-2.03,1.18-2.22,1.88.78.35,2.19.06,2.92-.17-2.15,1.31-2.49,1.45-2.89,1.36.52,1.1,1.78.36,2.86-.26-1.33,1.78-1.55,2.69-1.52,3.96,1.07-.13,2.63-1.67,3.46-2.98-.96,1.97-1.53,3.56-2.58,4.03,1.19.47,2.22-1.02,2.93-2.61-.28,1-.39,3.13-.04,3.66,1.08-.73,1.89-2.35,2.44-4.21-.19.92-.32,1.83-.66,2.75.69.13,1.05-1.11,1.28-1.84.02.04.05.07.11.13.88-.64,1.15-2.11,1.22-2.69.8.23,1.15-.06,1.35-.21.17.24.19.62.24.67-.87-.71-1.8,0-1.84,1.18-.09.49-.36,1.06-1.01,1.5.04.05.13.07.25.07-.11.2-.22.37-.41.54.05.03.11.03.17.04-.15.24-.39.47-.63.59.06.06.09.07.27.12-.16.22-.43.41-.68.51.48.28.84.32,1.13.29,0,0,0,0,0,0-.19.37-.49.56-.79.73.09.09.2.11.3.08-.27.28-.55.5-.81.58.05.03.08.08.24.07-.18.23-.4.45-.8.55.08.15.24.13.38.13-.11.23-.44.31-.78.38.26.07.43.21.28.17-.1.12-.2.19-.43.22-.23.03-1.04-.26-1.37-.15-.09-.19-.32-.31-.56-.31-.3,0-.6.19-.62.46-.05-.03-.24-.06-.21.18.07.14.07.25.51.42.07.03.16.05.26.04.16,0,.33-.08.46-.2h0c.22.04.46.08.59.14-.34.03-.46.22-.66.35-.08,0-.15-.02-.23-.04h0s-.09-.01-.13-.01c-.25.01-.49.29-.52.6,0,.06.01.12.04.18v.05c-.08.09-.05.16.02.21.3.12.48.05.59.02.27-.03.5-.26.5-.51,0,0,0,0,0,0h0c.32-.06.64-.15.82-.28,0,.02.01.04.01.07-.11.07-.3.17-.39.5-.03,0-.06,0-.08,0-.37,0-.46.25-.45.46,0,.2.08.33.18.41-.02.13,0,.23.12.27.44.07.55-.16.63-.15,0-.06,0-.1.02-.14.13-.06.23-.11.24-.37.01-.16-.02-.25-.07-.31h.01s0,0,0,0c0,0,0,0,0,0h0s0,0,0,0c.4-.34.66-.61.83-.84.15.04.5.03.67-.03v.06c-.17.15-.06.52.15.51,0,.03,0,.07,0,.1.14.09.39.03.59.07.1-.01.15-.08.12-.22h0c.16-.09.26-.26.24-.47,0-.29-.23-.52-.51-.54h0c-.3-.03-.59.18-.53-.28.82-.97,1.95-2.45,2.25-2.62-.02-.03-.04-.07-.06-.11.12.32.58.66,1.07.63-.09-.17-.18-.31-.22-.76.07.1.2.15.35.18-.23-1.04.11-1.89.81-2.67-.06,1-.18,2.01-.79,3.04.31.1.72-.22.78-.41.07.9-.79,2.07-1.46,1.51-.42.92.58,1.37,1.21.84-.11.56-.54.89-1.02,1.02-.48.13-.97-.07-.66-.84-.07-.04-1.02-.06-1.05.98.03.6.43.83.47.84-1.36,1.03.01,2.19,1.13,1.96.89-.14,1.4-.86,1.72-1.38-.1.38-.5,1.59.53,2.9,1.02-1.59.59-2.66.56-2.83.8,1.23,1.59,1.32,2.05,1.29.8.01,1.93-1.24.49-2.04.73-.35.78-1.8-.25-1.88.21.58-.24.92-.73.88-.5-.04-.95-.33-1.13-.97.98.47,1.43-.45,1.1-.96-.83.69-1.23-.42-1.34-1.07.21.16.4.22.76.17-.68-.87-.84-2.04-.9-3.14.46.73.92,1.63.9,2.51.11-.05.2-.07.4-.45.02.66-.06.75-.28,1.02.36.15.84-.14,1.07-.53,0,0,0,0,0,0,.71.96,1.47,1.94,2.22,2.7.16.17.22.34-.08.4-.96-.35-1.06.65-.66.78-.03.09-.04.18-.01.28.19.06.57-.1.68-.1.05-.04.05-.13.05-.23.1,0,.16-.06.21-.14.19.04.37.06.6-.14l.71.71s-.04.1.06.11c-.08.47.1.52.25.64-.03.45.64.19.71.22.07-.04.08-.09.07-.14.08-.08.04-.12.02-.18.34-.52-.14-.91-.41-.86-.28-.31-.48-.44-.71-.62.46.17,1.18.37,1.38.52.08.53.54.31.88.33.11-.15.05-.19,0-.25.45-.58-.5-1.05-.9-.71-.24-.22-.44-.26-.66-.35.09-.09.28-.16.71-.19.19.13.38.17.57.03.08.18.25.13.3.1.14-.16.14-.41.18-.63-.04-.08-.1-.13-.2-.13-.29-.5-.85-.19-.88.03-.48.04-.91.1-1.42.3-.17.05-.33-.13-.47-.24.13-.05.24-.11.24-.22-.21-.02-.41,0-.65-.25l.06-.17c-.18-.06-.38-.19-.62-.57.05-.03.1-.08.14-.17-.28-.06-.5-.21-.68-.42.07-.03.13-.09.19-.18-.26-.16-.5-.29-1-.93,0,0,0,0,0,0,.52.09,1.06.04,1.38-.2-.25-.07-.7-.22-.91-.61.1,0,.15-.03.22-.05-.39-.26-.49-.4-.59-.6.08,0,.2-.03.24-.09-.25-.11-.36-.27-.45-.44.1,0,.21.02.29-.04-.99-.45-.85-2.76-1.92-2.77-.47.04-.56.14-.8.27.07-.2.19-.38.32-.57.58.27,1.04.12,1.2-.02.08.93.38,1.93,1.02,2.43.11-.06.24-.14.33-.23.12.87.44,2,1.16,1.91-.33-.83-.33-1.67-.37-2.5.3,2.44,1.05,3.87,1.67,4.29.29-.38.5-2.16.36-3.23.61,1.1,1.29,2.12,1.85,2.12.26,0,.54-.21.71-.27-.89-.36-1.49-1.99-2.04-3.01,1.02,1.6,2.24,2.33,2.81,2.43.02-.5.13-1.88-1.14-3.81,2.28,1.21,2.76.43,2.9.01-1.03.36-2.41-.96-3.34-1.38v-.04c1.35.62,2.68.83,3.51.31-.71-1.09-1.4-1.49-2.14-1.77,1.48.16,1.96-.34,1.99-.89-.54.18-1.04.21-1.68.11,1.41-.28,1.67-.88,1.65-.94-.36-.28-1.04-.6-1.66-.66,1.7-.61,1.16-1.19,1.1-1.37-.53.5-1.45.85-1.61.84.79-.41,1.48-1.5,1.44-1.62-.4-.2-1.22-.19-1.55-.09.33-.36.76-.98.36-1.5-.39.54-.75.83-1.12,1.12.33-.42.72-.9.85-1.89-.5.07-.95.02-1.59.44.37-.46.6-.92.64-1.47-2.22.16-4.82,1.32-6.08,4.23-.36.85-.08,2.31,1.06,2.14.18.73-.3,1.18-1.36,1.15-.02-.25.05-.73-.25-.99.26-.02.31-.15.36-.26-.69-.16-.58-.39-.45-1.61.09.04.19.02.27-.06-.28-.26-.19-.75-.05-2.27.03-.67-.11-1-.25-1.11.09-.04.15-.12.1-.28.32-.06.18-.44.05-.57-.06.17-.34.24-.6.05.31-.14.32-.5.08-.74h0ZM16.08,19.97s.02.02.03.04c-.01-.01-.02-.02-.03-.03,0,0,0,0,0,0h0ZM9.58,20.01c-.03.12.02.43.03.64.11.05.29,0,.5-.08-.01,0-.02,0-.03.01-.16.06-.35.12-.47.07l-.04-.47c0-.05,0-.11,0-.17,0,0,0,0,0,0h0ZM9.5,20.04s-.04,0-.05.01c.02,0,.04,0,.05-.01ZM16.22,20.09c.24.17.53.18.63.15,0-.01.01-.03.02-.04,0,.02,0,.03-.01.05-.22.03-.44,0-.64-.16h0ZM8.12,24.02s0,0,0,0h0s0,0,0,0h0ZM14.15,24.28c.22.23,1.07.86,2.06.56.08.56-.39.77-.77.69-.37-.07-.92-.37-1.29-1.25h0ZM12.18,24.42c-.32.61-.85,1.13-1.33,1.25-.47.12-.91-.11-.74-.73,1.02.34,1.85-.26,2.07-.53h0Z" fill="#fff" fill-rule="evenodd"/><path id="uuid-ab91247d-ec46-4866-9ddc-217342a16940" d="M7.47,13.11c-.35-.41-.29-.67-.28-.81-.38-.29-.28-.4-.35-.52.13.23.26.39.4.41.25.23.5.31.76.46-1.54-.84-1.11-1.87-1.1-2.17-.24,0-.42-.04-.55-.13.04-.42.26-.76.73-.98-.06.02-.12.05-.18.06-.05-.01-.19-.36-.02-.58.1-.06.35-.08.62.02.16-.31.36-.59.78-.7.1.11.28.43.15.98.17.06.34.14.48.35-.04.18-.09.23-.13.27.67,0,.74-.94-.01-1.04.12-.89-1.02-1.42-1.51-.32-.91-.24-1.16.47-.81,1.02-.11.08-1.01.75-.15,1.7,0,.47.12.93.76,1.33.18.54.3.54.43.66h0Z" fill="#dfdde2" fill-rule="evenodd"/><path id="uuid-ccb54841-cc0e-4ebf-936b-49619e46db86" d="M18.79,8.14l.12-.23c.82-.13,1.32.42,1,1.07.66.57.3,1.3-.1,1.45.48-.35.22-.46.13-.45.03-.01.07-.03.1-.06-.03-.31-.15-.6-.63-.96.24-.26.21-.51.18-.69-.26-.07-.5-.05-.7.06l-.1-.19h0Z" fill="#dfdde2" fill-rule="evenodd"/><path id="uuid-8f313ac0-2e4b-48d3-9d2b-ecaec9457314" d="M17.65,9.74c.04-.13.07-.33.31-.53-.07.05-.15.12-.24.2-.3-.12-.49-.39-.54-.56.18-.24.62-.2.68-.19-.13-.48.04-.83.16-.97.39.04.6.24.76.42l.12-.21c-.11-.33-.44-.59-.83-.51-.32.03-.69.32-.55.98-.98.39-.56,1.33.13,1.37h0Z" fill="#dfdde2" fill-rule="evenodd"/><path id="uuid-1b7f8129-c052-431a-b8ed-718ed7b5992e" d="M15.52,11.41c-.04.36-.11.62-.18.87,1.33-.2,3.3-.54,3.03-2-.24.18-.48.21-.73.21-.04-.21-.06-.43,0-.72-.22.3-.48.41-.75.48,1.2.54-.51,1.49-1.22,1.17h-.16,0Z" fill="#f1eef0" fill-rule="evenodd"/><path id="uuid-4cab44fb-1c0c-4989-9b68-324c5393577f" d="M10.72,11.96c.04.41.17.92.29,1.38-.08-.13-.34-.94-.29-1.38Z" fill="#e8e6eb" fill-rule="evenodd"/><path id="uuid-15a3330d-35d2-443c-9947-ec0ccbb40096" d="M14.67,11.67c-.32,1.27,1.1,1.15.1-.16.97.59.33,1.48.28,1.67-.15-.68-.75-.86-.39-1.52Z" fill="#c3bdc9" fill-rule="evenodd"/><path id="uuid-a5068b5c-13f7-4459-a76d-b7aec30a96eb" d="M8.27,8.18l-.48,1.41c-.12-.05-.23-.1-.38-.28,0-.49.44-1.1.86-1.13Z" fill="#fff" fill-rule="evenodd"/><path id="uuid-a93a2cb6-2d36-43e1-a8b4-695c51111d16" d="M8.65,10.93l-.86-1.34c.14,0,.29,0,.48-.04.25.24.54.86.38,1.38Z" fill="#c3bdc9" fill-rule="evenodd"/><path id="uuid-df743a31-8cbd-41a2-8a32-c9a1b049ba52" d="M8.41,9.15c.26.07.44.24.47.35l-.61.06c.06-.13.1-.27.14-.4Z" fill="#fff" fill-rule="evenodd"/><path id="uuid-c1297913-6908-4e3d-b5d7-db9c587f7bb9" d="M6.9,9.42c-.11-.16-.11-.5,0-.57l.51.47c-.14.03-.38.05-.51.1Z" fill="#fff" fill-rule="evenodd"/><path id="uuid-2a732223-2668-4272-9666-f4775811fabd" d="M6.36,10.33l1.43-.74s-.2-.24-.38-.28c-.38-.05-1.01.43-1.05,1.02Z" fill="#fff" fill-rule="evenodd"/><path id="uuid-64fe7ebf-9b79-451b-9379-2be01d056ef4" d="M7.55,10.33c-.74,2.11,2.43,2.43,3.28,2.5l-.1-.53c-1.53-.07-2.96-.41-2.75-1.56-.28-.17-.34-.25-.43-.41h0Z" fill="url(#uuid-4c7bc9ed-ba6f-40c0-9dee-9a8872519dcc)" fill-rule="evenodd"/><path id="uuid-2a2decc0-8eab-4434-9c1c-05fc10ebe6d7" d="M7.55,10.33c-.17.08-.41.12-.65.16-.61,2.55,3.35,2.76,4.11,2.85-.12-.24-.15-.36-.18-.51-2.01-.13-3.87-.88-3.28-2.49Z" fill="url(#uuid-fcaeeabf-850b-43a4-b40e-4d71f0aa1065)" fill-rule="evenodd"/><path id="uuid-8e373a6a-bf85-4ccf-8725-a9da572432d6" d="M18.02,7.71c.22.46.46,1,.63,1.51.1-.14.19-.28.38-.44-.11-.48-.34-.99-1.01-1.07Z" fill="#c3bdc9" fill-rule="evenodd"/><path id="uuid-2912e463-c0e4-4637-9a04-ac3de9ba0b0d" d="M18.02,7.7c.22.47.48,1.03.63,1.51l-.54-.08c-.32-.35-.4-1.04-.09-1.43Z" fill="#fff" fill-rule="evenodd"/><path id="uuid-256e243c-cc76-439b-8aaf-aad61d61ae9c" d="M17.19,8.85c.14-.16.44-.21.68-.17.05.13.14.32.24.47l-.92-.3Z" fill="#c3bdc9" fill-rule="evenodd"/><path id="uuid-1480a552-1272-409a-b4b4-7c41bf8ff564" d="M19.57,8.29l-.55.49.36.19c.29-.25.21-.68.19-.68h0Z" fill="#c3bdc9" fill-rule="evenodd"/><path id="uuid-71ef46c3-b805-4293-8482-b76a9e616913" d="M19.02,8.77c-.09.02-.4.44-.38.44l1.37.7c0-.24-.21-.82-1-1.14h0Z" fill="#c3bdc9" fill-rule="evenodd"/><path id="uuid-c1e4b3de-4f23-4c3d-93f0-58a500542611" d="M18.64,9.21l-.99,1.28c.63-.03.89-.31,1.11-.66l-.12-.62Z" fill="#c3bdc9" fill-rule="evenodd"/><path id="uuid-6b46469b-60a6-4487-bd5e-dfecd1f20a40" d="M19.57,8.29c-.21-.07-.49-.05-.69.06.07.14.11.31.14.43l.55-.49Z" fill="#fff" fill-rule="evenodd"/><path id="uuid-4782889c-0d3c-425d-897a-2963451aadc0" d="M18.64,9.21l1.38.7c-.25.21-1.05.01-1.27-.08l-.12-.62h0Z" fill="#fff" fill-rule="evenodd"/><path id="uuid-84731cf5-2828-4dee-83b7-7bdae8ce7966" d="M18.65,9.21l-.54-.08c-.6.25-.49,1.28-.45,1.35l.99-1.28Z" fill="#fff" fill-rule="evenodd"/><path id="uuid-efd01ef1-f847-4fba-b755-62bcb52f5e93" d="M18.1,9.14l-.91-.29c.04.22.31.47.52.55.04-.04.24-.22.39-.26h0Z" fill="#fff" fill-rule="evenodd"/><path id="uuid-b9b888cd-57cc-4d88-a522-baf71104d35c" d="M18.78,9.83c-.17.25-.22.31-.41.44.32,1.48-1.8,1.85-3.03,2.02-.01.2-.08.38-.14.53.22-.02,4.58-.1,3.57-2.99h0Z" fill="#fff" fill-rule="evenodd"/><path id="uuid-58d97797-bb9e-4138-8f24-153c3dcd5c4c" d="M18.8,9.85c.59,2.15-1.33,2.76-3.6,2.97-.06.13-.11.28-.16.43,3.07-.21,4.68-1.21,4.26-3.28-.2-.03-.35-.07-.5-.12Z" fill="url(#uuid-b7f95b50-d150-4fa6-96f5-e62333aece99)" fill-rule="evenodd"/><path id="uuid-dbb6cdd6-606c-49df-8e63-36d3d5dd866b" d="M4.47,24.92c.25.11.55.04.72-.01.09.08-.03.42.23.66-.15.07-.97-.19-.95-.65h0Z" fill="#f7d255" fill-rule="evenodd"/><path id="uuid-be091edd-2090-42df-b4c1-3c00d4764e0a" d="M4.11,23.15c.1.33.39.36.51.43,0,.12-.32.12-.33.56-.22-.02-.53-.54-.18-.99Z" fill="#f7d255" fill-rule="evenodd"/><path id="uuid-f7d429d6-0c8b-497a-97e1-612594a4926d" d="M5.76,25.86c.4.07.54-.15.63-.16.05.13.22.3.4.39-.08.29-1.05.23-1.03-.23h0Z" fill="#f7d255" fill-rule="evenodd"/><path id="uuid-2615d386-cec5-4350-b6fe-7fa3c06b924d" d="M8.84,24.76s-.48,0-.56-.07c-.06.07-.07.31-.25.39.11.2.88.13.81-.33Z" fill="#f7d255" fill-rule="evenodd"/><path id="uuid-c2ac6b82-297a-4494-86e2-7eadfe5fa791" d="M9.71,20.68c.07,0,.13-.02.19-.03-.27.32-.72.89-1.17,1.37-.45.48-.86.95-.71,1.38-.31-.31-.04-.62.39-1.12.46-.54.98-1.17,1.3-1.59h0ZM9.15,24.14c0,.22-.18.43-.63.41.5-.55-.51-.58-.27-.81.67-.42.95.23.9.4ZM8.67,24.62c.15.03.24-.15.27-.06.06.18-.27.22-.27.06ZM5.27,22.72c-.1,0-.07.41-.68.39-.01,0-.07,0-.1.06-.07.14.17.42.4.4.2-.01.36-.13.46-.27.05-.03.37-.2.34-.13-.38.18-.28.3.32.34.38-.06.7-.38.83-.45-.39.07-1.21-.19-1.4-.19-.03-.07-.08-.13-.17-.16,0,0,0,0,0,0h0ZM4.59,24.83s-.03.06-.06.08c.11.07.39.05.43.03-.03,0-.27-.02-.37-.1ZM7.42,23.12c-.51.25-.87,1.16-2.14,1.04-.03.11-.1.13-.17.17-.27,0-.57.06-.57.23,0,.2.31.33.52.3.21-.03.43-.23.43-.43h0s.02-.03.04-.03c1.41-.31,1.63-1.03,1.89-1.28h0ZM7.64,23.14c-.06.34-1.17,1.37-1.22,1.7-.06-.05-.14-.08-.32-.07.1.51-.32.67-.44.58,0,.23.34.33.55.29.26-.05.47-.44.32-.68.03-.42.59-.55.82-1.09.21,0,.24-.32.49-.38-.05-.17-.26.05-.21-.35h0ZM4.36,23.14c.03.2.12.29.27.41-.12-.04-.24-.08-.37-.19.12.04.03-.25.1-.22ZM7.02,22.6c.24.05.55.08.97.05-.61.22-.89.14-.97-.05ZM7.79,22.21s-.05.1-.1.14c.3,0,.58-.07.79-.3-.19.09-.41.16-.7.16ZM8.21,21.54s-.1.12-.16.18c.24.03.73-.09.94-.32-.19.09-.5.13-.78.14ZM8.78,20.89s-.19.19-.24.23c.24.03.79-.17,1-.4-.19.09-.48.17-.76.17ZM9.56,20.17c-.02.28-.11.46-.21.58.08-.03.17-.05.25-.08,0-.15-.02-.34-.04-.49h0Z" fill="#dfdde2" fill-rule="evenodd"/><path id="uuid-19b8a6af-2009-4ff1-8d9d-68b7035d4821" d="M17.41,24.48c.24.06.54-.1.68-.1.07.13.09.27.36.36-.18.2-.85.26-1.04-.26h0Z" fill="#f7d255" fill-rule="evenodd"/><path id="uuid-3bf07523-db21-42ad-aeac-0f2f5a6b5a18" d="M20.12,25.59c-.09.09-.19.18-.36.28.3.28.92-.03.9-.3-.06-.11-.23.12-.54.02Z" fill="#f7d255" fill-rule="evenodd"/><path id="uuid-fc08ea08-9325-4793-ab79-fc26722ca13a" d="M21.3,24.62c0,.36-.04.45-.08.58.17.12.62-.16.67-.59-.05-.1-.24.07-.59,0h0Z" fill="#f7d255" fill-rule="evenodd"/><path id="uuid-62a10afb-ec02-4bf0-87b7-275574cc8242" d="M22.12,22.63c-.13.03-.05.47-.2.61.12.07.2.23.29.37.28-.21.27-.83-.09-.98h0Z" fill="#f7d255" fill-rule="evenodd"/><path id="uuid-36288620-1ac6-4d54-acd3-a3568a29a179" d="M17.72,24.44c.14-.04.28-.11.34-.09.08-.29-.11-.12-.34.09ZM17.52,24.21c.27,0,.64.04.73-.31.41.2.85-.18.75-.53,0,0-.13.61-.99.22-.17-.02-.41.08-.39.2.01.15.3.28-.1.42h0ZM19.78,23.91c.22.22.36.42.31.59.13-.19.15-.08.18,0,.16.12.28.5-.12.74.19.05.2.22,0,.28,0,.18.48-.04.52.03.04-.02.05-.07.06-.13.04-.05.04-.12,0-.19.31-.51-.07-.78-.4-.84-.2-.21-.37-.33-.55-.47h0ZM19.8,23.37c.33.21.77.37,1.19.64.42-.42.73.27.13.32.15.28.79.26.77.04.4-.75-.68-.94-.89-.67-.33-.18-.63-.39-1.09-.48.93.4,1.09.52.93.55-.15.02-.67-.28-1.02-.39ZM20.08,22.79c.26-.11.81-.1.96-.23.24-.44.7-.33.84-.04.1,0,.18.02.19.1-.09.21-.03.73-.3.6.05-.04.02-.08,0-.11-.11.11-.11-.02-.12-.07-.17.2-.26.17-.38.14.03-.01.04-.05.04-.1.5-.19.07-.78-.34-.23-.14.04-.68-.08-.89-.06h0ZM16.08,19.97l-.02.06c.21.19,1.99,2.15,2.52,2.99-.08-.18-.05-.25-.36-.63.81.45,1.2.05,1.16-.04-.07,0-.11.02-.14,0-.74.38-1.3-.25-1.63-.67.42.33.69.39,1.12.42.04-.08.05-.11.06-.16-.04,0-.07-.02-.1-.04-.51.19-1.12-.19-1.59-.84.45.33.78.29,1.09.3.05-.05.11-.1.12-.17-.04,0-.08-.01-.11-.03-.32.11-1.1.07-1.47-.58.26.17.55.28.92.19.07-.06.15-.11.17-.18-.46.12-.9.11-1.31-.24.12,0,.24-.04.36-.1-.24.02-.49,0-.78-.28h0Z" fill="#dfdde2" fill-rule="evenodd"/><path id="uuid-06895db2-9cc0-4ef2-9f2c-fa4d8a74ecae" d="M10.55,5.99c.89.47,1.91-.61,2.62-.02.08,0,.09-.05.08-.1-.83-.75-1.72.35-2.7.12h0Z" fill="#c3bdc9" fill-rule="evenodd"/><path id="uuid-8e8c8e88-144c-4a30-af01-a9cac73a7d9e" d="M10.23,19.59l-.07.07c-.09.39-.29.7-.53,1,.22.04.48-.09.74-.2-.16-.3-.19-.5-.14-.87h0Z" fill="#c3bdc9" fill-rule="evenodd"/><path id="uuid-6e0496b7-b6d3-4521-afac-05a9ea0c2f09" d="M10.47,19.08c.12.24.36-.16.47-.26-.15.53-.44,1.06.2,1.56-.33.03-.42.18-.12.5-.6-.29-.93-.78-.56-1.8Z" fill="#dfdde2" fill-rule="evenodd"/><path id="uuid-32d343fb-01ed-401b-b1c7-076c63040beb" d="M10.97,18.79c-.21,1.04.13,1.45.47,1.55-.13-1.13.32-1.94.95-2.55-.04-1.05-.19-1.52-.3-2.28,0,.35.26,1.31.09,1.99-.18.7-.68,1.38-1.2,1.3h0Z" fill="#cecad6" fill-rule="evenodd"/><path id="uuid-2cd4d377-8dd3-4275-8ff4-ec4ac29e8e73" d="M8.9,19.86c.59.04,1.07-.15,1.47-.55-.21.52-.7.77-1.43.7.26-.05.27-.09-.04-.15Z" fill="#c3bdc9" fill-rule="evenodd"/><path id="uuid-646780ea-4872-438b-b381-ac2e629e2889" d="M8.82,19.26c-.06.09-.1.13-.15.17.93.12,1.46-.32,1.81-.71.52.03.88-.31,1.19-.65-.35.28-.71.5-1.11.45-.4.58-.96.85-1.73.74h0Z" fill="#c3bdc9" fill-rule="evenodd"/><path id="uuid-ce547ca2-23e8-442f-9b22-ca1417295986" d="M9.19,18.55c-.07.15-.09.14-.13.19.32.07.75-.06,1.49-.67.73-.02,1.04-.5,1.25-.71-.39.34-.78.51-1.19.52-.39.4-.81.72-1.43.67Z" fill="#c3bdc9" fill-rule="evenodd"/><path id="uuid-7238655f-5843-4322-9cd7-31dc2f3f6e0e" d="M9.43,17.97l-.13.21c.25-.01.59,0,1.31-.66.55-.12,1.04-.53,1.47-1.25-.36.44-.69.92-1.41.98-.18.42-.67.6-1.23.72Z" fill="#c3bdc9" fill-rule="evenodd"/><path id="uuid-5b9ceed0-726f-4a0a-acbe-98353da87ad0" d="M15.46,18.84c-.05.38-.13.72-.3.99.02.12.01.25,0,.37.26-.26.44-1,.29-1.36Z" fill="#c3bdc9" fill-rule="evenodd"/><path id="uuid-7c12a8c4-f341-4935-93a3-0791acf42edf" d="M15.83,19.02c.28.72.03,1.67-.85,1.83.27.11,1.09-.26,1.2-1.37l.67.75c.04-.17.06-.35-.07-.6-.53-.11-.7-.32-.95-.62h0Z" fill="#c3bdc9" fill-rule="evenodd"/><path id="uuid-c7118515-ba3c-4c4e-ae07-bd38f00cbf11" d="M16.26,19.25c.36.16.99.39,1.62.12.09.04.19.07.28.08-.21.22-.82.28-1.37.2.76-.1-.39-.19-.53-.4h0Z" fill="#c5bdcb" fill-rule="evenodd"/><path id="uuid-2e4c48a4-a8f5-4e9d-82b2-646cc40f0509" d="M15.01,17.97c.26.19.56.3.89.29.25.47.97.6,1.38.58.02.06.06.12.12.17-.34,0-.78-.11-1.45-.53-.18-.06-.82-.36-.94-.52h0Z" fill="#c3bdca" fill-rule="evenodd"/><path id="uuid-978e53a5-a8de-4ddc-9520-180ca99c1be2" d="M14.87,17.27c.26.22.55.33.86.37.32.34.69.51,1.18.57l.1.18c-.15.02-.9-.32-1.17-.57-.46-.11-.8-.34-.97-.55h0Z" fill="#c3bdc9" fill-rule="evenodd"/><path id="uuid-2afaa0ab-ad15-45e5-ab5b-ef0c360bfa1d" d="M14.93,16.7c.3.3.65.42.92.42.21.22.4.44.84.56.02.06.05.11.08.15-.33,0-.78-.46-.84-.54-.44-.06-.95-.29-1-.59Z" fill="#c3bdc9" fill-rule="evenodd"/><path id="uuid-3688e58b-16fa-47c8-af8b-62471be8ff95" d="M12.3,15.36c.1-.04.14-.09.19-.14.08.11.19.13.31.16-.21,0-.24.09-.14.27.04.07.12,1.12.14,1.75,0,.59.08.97.2,1.22-.46-.39-.21-2.75-.69-3.26h0Z" fill="#dfdde2" fill-rule="evenodd"/><path id="uuid-ec7d2fbd-42b8-4fc7-aa48-7aaea58ffeed" d="M13.07,15.4c.26-.02.52-.04.82-.22l.11.13c-.22.48-.34,1.62-.49,2.64.04-.65.05-1.23.02-1.39-.07-.37-.06-.59-.05-.65.14-.51-.24-.38-.42-.5h0Z" fill="#cecad6" fill-rule="evenodd"/><path id="uuid-0e8019ee-85b1-485f-a69f-8523c9d08849" d="M14.1,15.36l.03.03c-.44.95,0,3.14-.94,4.24l-.02-.42c.71-.47.54-2.88.93-3.84h0Z" fill="#c3bdc9" fill-rule="evenodd"/><path id="uuid-36af75be-7652-4b27-adad-8812f1502c2f" d="M12.53,17.71c0,1.56.25,1.85-.81,3.15.49-.41,1.05-1.67.98-.95.13-.23.25-.46.27-.66-.41-.7-.39-1.11-.44-1.54h0Z" fill="#c3bdc9" fill-rule="evenodd"/><path id="uuid-3dd8de66-0ac4-4c39-b9ad-3282469fa5c3" d="M13.39,19.43l-.2.24.06,2.06c.03-.86.07-1.64.14-2.3h0Z" fill="#c3bdc9" fill-rule="evenodd"/><path id="uuid-d515ae09-9d8f-466e-85b6-cedf814ce59a" d="M13.86,17.94c-.05.32-.09.7-.17.92.14,1.65.59,1.81.97,1.96-.62-.88-.74-2.07-.79-2.87h0Z" fill="#dfdde2" fill-rule="evenodd"/><path id="uuid-ea199451-c595-452e-9f71-826ef3921cfd" d="M12.66,20.1c-.19.44-.13,1.27-.67,1.82.45-.23.62-.79.64-1.23l.04.46c-.15.95-.58,1.2-.88,1.26.05-.01.52.09.95-.87.01.35-.23.74-.55.87.28,0,.55-.25.69-.44-.23-.67-.23-1.27-.22-1.86h0Z" fill="#e0dee2" fill-rule="evenodd"/><path id="uuid-1562e7a2-40dd-4f81-8bf5-d7d8a3a6c317" d="M12.87,21.52c.05.23.11.56.37.88l.02.4c.12-.15.57-1.43.58-1.85.02-.13.02-.29.12-.19.01,0,.02,0,.04,0-.14-.09-.28-.55-.39-.71.08.5.14,1.21-.36,2.26-.15-.18-.26-.48-.37-.78h0Z" fill="#c3bdc9" fill-rule="evenodd"/><path id="uuid-e6b7f3bf-9496-4635-b607-2e3cdca69e8f" d="M15.05,22.33c-.55.28-1.02-.4-1.25-.82l.1-.58s.04-.03.06,0c.09.63.49,1.37,1.08,1.4Z" fill="#dfdde2" fill-rule="evenodd"/><path id="uuid-63798bf4-4db9-427e-a4b5-a0748ee2ce18" d="M13.7,21.73l-.06.17c.21.47.46.63.79.75-.64-.31-.68-.62-.73-.93Z" fill="#dfdde1" fill-rule="evenodd"/><path id="uuid-d7480195-2eb2-4c5e-8e20-b12235305631" d="M13.09,22.53l.17.29.13-.28c-.02.76-.07,1.69-.1,2.54-.07-.85-.17-1.74-.2-2.55h0Z" fill="#dfdde2" fill-rule="evenodd"/><path id="uuid-fa37392c-c13a-4022-81be-48e1cb3ed553" d="M13.59,22.06s-.03.08-.05.11c.57,2.1-.1,3.22-.25,3.38-.39-.7-.39-1.38-.47-1.97.05.53,0,1.21.45,2.06v.35c.56-.69.9-1.65.47-3.74-.06-.05-.1-.13-.15-.2h0Z" fill="#c3bdc9" fill-rule="evenodd"/><path id="uuid-baec3d39-3a15-4e3e-ad96-2ff21a7394f7" d="M13.08,25.8c.05.08.09.15.18.22.12-.13.15-.19.2-.27-.1.56-.15,1.1-.22,1.65-.05-.54-.09-1.13-.16-1.6Z" fill="#dfdde2" fill-rule="evenodd"/><path id="uuid-cdd214cc-6c1a-416f-abb7-2bf430263b49" d="M14.08,25.89c-.12-.27-.26-.5-.17-.79-.02-.09-.06-.11-.1-.12-.03.16-.08.27-.13.38.21,1.27-.09,1.96-.44,2.54-.57-.77-.47-1.61-.48-2.32-.17,1.45.18,2.08.47,2.41v.35c.82-1.2.74-2.32.56-2.85.09.14.17.28.29.41h0Z" fill="#c3bdc9" fill-rule="evenodd"/><path id="uuid-fd2b21c0-6d93-4f92-98fa-2df674f34b3a" d="M10.98,22.23c.11,1.05,1.44.73,1.98-.06l-.05-.14c-.5.65-1.58,1.23-1.93.21h0Z" fill="#c4bec9" fill-rule="evenodd"/><path id="uuid-df3ff28c-4e82-48aa-a60d-caf517ca7913" d="M12.84,22.62c-.49,1.02-1.08,1.74-1.89,1.81.55.04,1.15-.41,1.33-.6.13-.23.31-.31.14,0-.07.11-.13.19-.23.29.13-.05.4-.47.46-.51.02-.44.12-.68.2-.98h0Z" fill="#dfdde2" fill-rule="evenodd"/><path id="uuid-c2526cfe-6a65-4897-9f45-171d9d784dc1" d="M12.64,23.64c0,.12-.02.23-.02.33-.77.79-1.44,1.04-2.15.88.58.02,1.26.08,2.16-1.2Z" fill="#c3beca" fill-rule="evenodd"/><path id="uuid-14880784-4f49-4d92-97b3-ee22d68e178c" d="M10.14,24.1c-.17-.42-.11-.76.19-1.02-.61-.01-1.26,1.11-.14,1.68-.56-.33-.59-1.01-.41-1.24.12-.2.3-.25.18-.03-.09.35.07.53.18.6h0Z" fill="#dfdde2" fill-rule="evenodd"/><path id="uuid-c822e418-b0dd-424f-87d9-09550d9054c7" d="M13.77,22.32c.11.18.26.34.44.45-.05,1.03,1.08,1.71,1.85,1.42-.44.32-1.89.24-2.29-1.87Z" fill="#dfdde2" fill-rule="evenodd"/><path id="uuid-5b0735d8-4d2f-41c0-a08f-65ba1e15a663" d="M13.93,23.61v.12c.53.88,1.42.92,1.7.88-.83-.02-1.36-.4-1.7-1h0Z" fill="#c5c0ce" fill-rule="evenodd"/><path id="uuid-580d04bb-509e-4eab-9339-7bcb7917a42a" d="M16.25,22.96c.7.49.51,1.25-.25,1.56.58-.38.87-.88.25-1.56Z" fill="#e1dfe3" fill-rule="evenodd"/><path id="uuid-dab62ee4-7028-4e16-9860-96cfc4db44d1" d="M15.42,24.74c.67.12,1.8-.4,1.19-1.57.61.71-.07,1.99-1.19,1.57Z" fill="#c3bdc9" fill-rule="evenodd"/><path id="uuid-3cc1a9af-cc3e-49cb-b43c-2f19801d32b0" d="M13.94,24.31c0,.07,0,.11-.03.22.57,1.14.89,1.22,1.26,1.52-.69-.52-1.05-1.11-1.24-1.73Z" fill="#e0dee3" fill-rule="evenodd"/><path id="uuid-f2a788c1-8804-458d-ae7e-ed08e83168d7" d="M14.88,26.46c.12.05.21.01.31.05.88.3,1.96-.21,1.63-1.27.57.56-.48,2.16-1.95,1.22Z" fill="#c4becb" fill-rule="evenodd"/><path id="uuid-8bf590cc-9e19-48a0-9448-86b3ad0017a9" d="M16.42,24.92c.66.66-.02,1.57-.9,1.26.94.13,1.28-.65.9-1.26h0Z" fill="#c3beca" fill-rule="evenodd"/><path id="uuid-b4cdc5df-5f1d-4b77-bd1c-e361abfc4f6d" d="M9.98,24.92c-.91.6-.41,1.34.01,1.51-.16-.12-.33-.53.17-.3.16.07.31.08.45.07-.93-.3-.72-.8-.63-1.27Z" fill="#dfdde2" fill-rule="evenodd"/><path id="uuid-220588d1-285f-4bd4-aaa4-be2f2511a7ca" d="M12.63,24.09c.02.31.06.56.1.75-.29.58-.64.97-1,1.25.42-.41.75-.82.89-1.26-.74,1.15-1.25,1.33-1.78,1.36.66-.15,1.62-.71,1.79-2.1Z" fill="#dfdde2" fill-rule="evenodd"/><path id="uuid-a4970737-55bd-443f-8e2d-cce69c2f3782" d="M12.74,24.88c.02.09.04.19.1.26-.93,1.79-2.17,1.74-2.6,1.59.81.08.53-.06.26-.11.95.03,1.8-.62,2.24-1.74h0Z" fill="#c3bec9" fill-rule="evenodd"/><path id="uuid-b944aa4d-571e-4721-bcc3-85f4d02b25b1" d="M11.97,15.01c.12-.08.18-.18.25-.28.03.05.07.09.13.13-.18.06-.24.32-.34.32-.02-.06-.02-.12-.05-.18Z" fill="#c4beca" fill-rule="evenodd"/><path id="uuid-4f88b8b8-8668-4577-966f-bdc407ccbc77" d="M12.37,14.87c.26.1.53.09.87-.15.03.03.07.07.11.1-.32.23-.84.17-.98.04Z" fill="#c3bdc9" fill-rule="evenodd"/><path id="uuid-d06aece2-6788-4851-83ca-5aebf726f89f" d="M13.49,14.87c.19.03.37.07.61-.06.04.05.07.08.11.12-.08.08-.48.07-.72-.06h0Z" fill="#c3bdc9" fill-rule="evenodd"/><path id="uuid-ee69d3aa-188a-4f05-8811-1e0a323f5ce6" d="M14.27,14.37c.06.04.17.15.27.21-.08.11-.16.23-.23.37-.35-.3-.1-.62-.04-.58Z" fill="#c3bdc9" fill-rule="evenodd"/><path id="uuid-b7bd97ae-3162-4985-994e-bda6cd4cc1a6" d="M11.73,14.45c.05.07.08.12.12.17.21-.15.28-.31.35-.46-.03-.02-.06-.04-.09-.09-.17.3-.27.33-.38.39h0Z" fill="#c3bdc9" fill-rule="evenodd"/><path id="uuid-793ade3d-e121-433d-8586-56a2ef5e10fd" d="M12.22,14.16l-.02.05c.42.24,1.1.42,1.96-.02l-.09-.18c-.56.44-1.19.51-1.85.15Z" fill="#c3bdc9" fill-rule="evenodd"/><path id="uuid-1ad17847-877f-4485-837a-aed10db4a22d" d="M14.23,14.16c.25-.05.16-.35.39-.45.37.56,1.01.42,1.28-.01l.04.32c-.25.16-.57.43-1.12.18-.04.09-.05.23-.06.39-.24-.08-.43-.21-.53-.43h0Z" fill="#c3bdc9" fill-rule="evenodd"/><path id="uuid-78049dd3-803c-41d1-b1d9-19604e3cbbfe" d="M14.99,13.11c.1.18,0,.6.01.74-.18-.02-.28-.17-.38-.3.02,0,.03,0,.04-.02.02-.11.24-.17.33-.42h0Z" fill="#c3bdc9" fill-rule="evenodd"/><path id="uuid-7c977c43-f7b6-482a-af18-ad961ae58ad5" d="M13.34,13.63l-.02.03c.29.1.88.16,1.31-.13l-.07-.13c-.3.25-.68.37-1.21.24Z" fill="#c3beca" fill-rule="evenodd"/><path id="uuid-2add8bca-1f12-44c0-b5f5-51289159c4d8" d="M13.17,13.53c.05.04.1.07.15.09-.39.36-.96.26-1.54-.04,0-.02,0-.04,0-.05.66.36,1.13.26,1.39,0Z" fill="#c3bdc9" fill-rule="evenodd"/><path id="uuid-fc5e4191-dd4c-4135-ad26-db6a3f420eb3" d="M11.75,13.53c.14.22-.21.29-.22.62l-.14-.18c0-.22.28-.18.35-.44Z" fill="#c3bec9" fill-rule="evenodd"/><path id="uuid-8dfefb7c-27c8-4f98-b3fe-590ea520e343" d="M11.37,13.91l-.27-.41c-.29-.37.66-.45.56-1.14.06.05.12.11.18.14-.03.56-.52.55-.53.93-.06-.02-.09-.08-.11-.16-.02.02-.03.02-.06.05-.12.15.06.23.23.59h0Z" fill="#c3bec9" fill-rule="evenodd"/><path id="uuid-bcc988c5-bef3-4566-8964-bd85eebbd0ea" d="M11.63,13.15c.28.04.55,0,.81-.25.04.04.08.09.14.13-.33.2-.77.23-.94.12h0Z" fill="#c3bdc9" fill-rule="evenodd"/><path id="uuid-c39ccae7-baa1-4040-a70c-7ff06e89bc5b" d="M12.58,13.04l-.03.02c.46.26,1.1.26,1.44.02-.05-.03-.09-.06-.13-.1-.41.3-1.03.2-1.28.05h0Z" fill="#c4beca" fill-rule="evenodd"/><path id="uuid-778e145c-d31e-4a06-a8fd-c3c3a9d60702" d="M14,13.09l-.02.03c.32.13.73.11,1.01-.04-.02-.05-.04-.11-.08-.15-.31.24-.61.22-.91.15h0Z" fill="#c4bec9" fill-rule="evenodd"/><path id="uuid-f1cb82b8-b980-4226-8e16-6417df110083" d="M11.88,12.53c.48.24,1,.08,1.28-.17.05.06.1.1.15.13-.36.31-1.27.27-1.43.04h0Z" fill="#c4bec9" fill-rule="evenodd"/><path id="uuid-8575c0be-f8b0-4aba-bc2c-12c9a7c923cb" d="M13.33,12.5l-.02.02c.43.29,1.09.12,1.26,0-.02-.07-.04-.13-.07-.18-.3.26-.75.34-1.17.16h0Z" fill="#c3bdc9" fill-rule="evenodd"/><path id="uuid-e5b4b7ee-f8a4-4da1-8abe-3618d789c9ec" d="M10.67,11.89l.06.04c.07-.09.12-.12.15-.08.03.04-.02.11.05.17.22-.18.73-.29.79-.56.09.26.41.27.67.72-.06-.34-.41-.44-.56-.67-.14-.23-.06-.52.06-.89-.24.33-.05.79-.44.99-.25.13-.72.1-.77.28h0Z" fill="#c3bdc9" fill-rule="evenodd"/><path id="uuid-f1d5e890-7874-4b68-844d-4eb91be5a79a" d="M12.73,10.25v.31c-.39.16-.08,1.18-.24,1.4-.06-.87-.42-1.18.24-1.71h0Z" fill="#c3bdc9" fill-rule="evenodd"/><path id="uuid-79c87908-f4db-49b4-8e6a-e18ce7413c0e" d="M13.06,10.99h.05c.05.57.65.62.75,1.19-.13-.39-.47-.5-.65-.71-.1.44-.63.56-.76.81-.04-.2.73-.49.61-1.29Z" fill="#c3bdc9" fill-rule="evenodd"/><path id="uuid-dde2af0f-24c3-413d-8bf2-0a64bf81a072" d="M13.97,10.45c-.31.5.31.81-.03,1.64.18-1.08-.58-.99-.1-1.77.17.16.73.32.78.59-.19-.27-.48-.29-.66-.46h0Z" fill="#c3bdc9" fill-rule="evenodd"/><path id="uuid-28810448-8a71-42c7-b63d-c625c6f50683" d="M14.62,10.98c.06.19.11.27.16.39-.17.56-.85.76-.89.96-.12-.26.73-.41.73-1.35Z" fill="#c3bdc9" fill-rule="evenodd"/><path id="uuid-c3434f2c-ad9e-462e-bf4e-41b9904d4a20" d="M15.26,10.41c-.11-.02-.21,0-.33-.12.02.18,0,.29-.04.4.22.13.37,1.32.46,1.37-.05-.51-.03-1.18-.33-1.55v-.06c.11.03.18.02.24-.04h0Z" fill="#c3bdc9" fill-rule="evenodd"/><path id="uuid-fe665c47-d994-46bc-9587-76f4caf786ff" d="M11.11,11.34c.21-.32.4-.69.67-.88.27-.19.44-.12.99-.57l.21-.54c-.46.68-1.01,1.14-1.8.98.05.03.07.09.4.11-.17.16-.31.51-.47.89h0Z" fill="#c3bdc9" fill-rule="evenodd"/><path id="uuid-de5cc9fd-74a9-4ab3-a009-fc4a20039423" d="M10.99,9.83c.41.21.92.31,1.79-.93.18-.05.36-.15.54-.33-.56,1.34-2.15,2.16-2.33,1.26Z" fill="#dfdde2" fill-rule="evenodd"/><path id="uuid-b95cc799-3779-4e5d-8948-eba5225ca0f4" d="M12.84,10.61c.66-2.5,2.67-3.99.93-5.32,1.26,2.18-.75,3.11-.93,5.32Z" fill="#f1eef0" fill-rule="evenodd"/><path id="uuid-13a3aede-c971-4a78-b124-bc3dcecc0661" d="M12.36,8.45c.03.66.86.17,1.06-.26-.34.23-.67.43-1.06.26Z" fill="#dfdde2" fill-rule="evenodd"/><path id="uuid-c6634d8e-d9e7-4e3b-92b8-7a88079e8bc0" d="M13.61,7.43c.08-.11.09,0,.22.02-.3.63-.82.81-1.1.82.38-.2.73-.42.88-.84Z" fill="#dfdde2" fill-rule="evenodd"/><path id="uuid-ff5f4559-8731-4b93-af18-ee3fe30d06cb" d="M13.41,6.37l.07.07c.09,0,.18,0,.27-.09,0,.08-.03.12-.07.14.05.46,0,.73-.06.93.08-.08.14.04.22.03.11-.18.31-.81,0-1.35,0,.16-.16.32-.42.27h0Z" fill="#c3bdc9" fill-rule="evenodd"/><path id="uuid-dc1b9ed9-da9b-4ef3-bf4d-3b101904e135" d="M12.32,6.17c.5-.2.79.16,1.02.19.36.53-.01.99-.25,1.27.16-.27.39-1.37-.76-1.46Z" fill="#c3bdc9" fill-rule="evenodd"/><path id="uuid-fd107fd9-3adc-4626-a925-b34a0fcee402" d="M12.78,10.9c.55.26.8-.37,1.06-.61-.13-.3-.09-.54-.1-.8-.48.26-.46,1.2-.96,1.41h0Z" fill="#cecad6" fill-rule="evenodd"/><path id="uuid-95046641-6f42-4f83-b01b-9591b3ee7e45" d="M14.65,6.49s-.05.2-.11.19c-.04,1.26-1.18,1.96-1.45,3.78.17-.2.29-.96.72-1.67.45-.74.89-1.15.85-2.31h0Z" fill="#cecad6" fill-rule="evenodd"/><path id="uuid-43568c50-40bc-44ca-8583-2121414da42a" d="M14.06,8.88c-.46,1.23.45,1.24.53,1.64-.94-.32-1-1-.53-1.64Z" fill="#dfdde2" fill-rule="evenodd"/><path id="uuid-56d0f0a3-2d2e-4771-8f88-e950d360d3b9" d="M14.23,5.35c1.52.99.22,2.98-.35,3.51.22-.5,1.59-1.89.35-3.51Z" fill="#dfdde2" fill-rule="evenodd"/><path id="uuid-b5c8fe16-4151-4f9c-b45b-3a4e13e0ea6d" d="M14.74,4.8c.16.29.41.73.04.64.65,1.43-.06,2.17-.42,2.97-.75,1.95.49,1.18.35,2.54.42-.49-.13-1.21-.1-1.45-.03-.36.2-1.13.27-1.6.09.26.23.41.39.51-.29-1.01.62-3.01-.52-3.61h0Z" fill="#cecad6" fill-rule="evenodd"/><path id="uuid-0ae0b915-c2b0-4054-9d85-075cfb41053e" d="M14.89,8.16c.07.1.12.22.24.29.06.4-.5,1.66.34,1.75-.68.34-1.05-.64-.59-2.04h0Z" fill="#cecad6" fill-rule="evenodd"/><path id="uuid-7b9a24b7-23ef-4e31-a6a9-4abaa6920b88" d="M14.52,4.41c.14.01.48.25.8,0,.22.3-.19.55-.62.33-.11-.07.24-.1-.19-.32Z" fill="#c3bdc9" fill-rule="evenodd"/><path id="uuid-a17bb4a0-d1aa-4985-a9f0-182186ef1a69" d="M11.99,4.51c.13.14.26.22.38.56.09,0,.18.01.27.04-.15-.24-.33-.46-.65-.6Z" fill="#dfdde2" fill-rule="evenodd"/><path id="uuid-3948f293-4770-404f-8221-9edc29368420" d="M13.37,4.1c1.32.35,1.2-.26,1.43-.35.23.37-.41.86-1.43.35Z" fill="#c3bdc9" fill-rule="evenodd"/><path id="uuid-b9b37ebc-baa5-41ff-98ec-43aa9c9673bc" d="M11.75,4.36c-.07-.03-.14-.02-.19-.02.12-.95,1.17-.35,1.73,0-.71-.34-1.61-.78-1.55,0h0Z" fill="#c3bec9" fill-rule="evenodd"/><path id="uuid-21bf17cd-09f4-4f2d-ab54-d1e1a7db7135" d="M11.76,4.36c-.06-1.08,1.49.15,2.21.2-.5.06-2.14-1.04-2.13-.18l-.07-.02h0Z" fill="#f1eef0" fill-rule="evenodd"/><path id="uuid-9ae335f1-e739-4921-a656-809510ff9cdd" d="M11.86,4.39l.13.05c.01-.09.05-.2.1-.21.3-.06.02.1.07.15.06.04.12.08.19.12,0-.05,0-.1,0-.16,0-.25.71.15,1.2.31.05.15-.27.33-.53.28.24.19.73.1.94-.21.38.03.46-.03.55-.13-.29-.06-.42.08-1.15-.12-.67-.19-1.48-.76-1.5-.08h0Z" fill="#c3bdc9" fill-rule="evenodd"/><path id="uuid-365c285f-02ad-47bf-876c-ba900fea584d" d="M12.46,4.27c.08,0,.16.02.23.05-.15.23.07.45.19.41.04.04.08.07.22.11-.2.04-.85-.16-.64-.58h0Z" fill="#b6b1bf" fill-rule="evenodd"/><path id="uuid-298e3393-9d17-4ced-b9b6-3fdaee7e9945" d="M10.73,5.6c-.73-1.41,1.39-1.66,1.6-.49,0,0,.53.02.99.27.9.66.36,1.03.17,1-.42,0-.5-.4-1.12-.24-.15.06-.16.13-.22.13-.37-.09.31-.83,1.03-.3.06.05.21-.05.08-.18-.48-.49-1.32-.22-1.51-.17-.23-.38-.75-.29-1.03,0h0Z" fill="#f7d255" fill-rule="evenodd"/><path id="uuid-7d8e1948-267a-45f8-99be-a01699b6cdc4" d="M12.84,4.45c.09.07.56.15.57.19-.15.35-.64.24-.57-.19Z" fill="#aaa2b5" fill-rule="evenodd"/><path id="uuid-7447be04-b0c8-4542-9210-c765050b8edc" d="M15.97,14s-.01.01,0,.03c.11.05.25.09.41.1l.38,2.26c-.03-.59-.07-1.2-.08-1.76-.04-.11-.07-.31-.11-.51.05,0,.1-.01.15-.03.24,1.43.84,1.72.95,1.83-.31-.33-.74-.79-.88-1.86.21-.12.31-.26.37-.28.02-.06,0-.2-.02-.27-.21.2-.4.44-.83.41-.03,0,0,.04,0,.04.16.22-.17.09-.35.04h0Z" fill="#c3bdc9" fill-rule="evenodd"/><path id="uuid-832fe071-2a72-4bc0-bdfd-41ce9b8c20c4" d="M16.79,16.63l.02.34c.21-.14.41-.18.7-.83.12,1.16.13,2.28.81,2.52-.35-.8-.35-1.67-.37-2.51-.04.05-.08.09-.12.13-.28-.16-.36-.29-.51-.44-.09.29-.14.59-.51.79h0Z" fill="#cecad6" fill-rule="evenodd"/><path id="uuid-3433c0a7-0f77-4607-b28a-54a39b23ec5e" d="M17.29,13.83c.09.03.2.05.31.05l.12,1.68-.43-1.73h0Z" fill="#dfdde2" fill-rule="evenodd"/><path id="uuid-982a0087-f42e-407d-aab9-31e6394552ad" d="M18.09,13.71l.06-.04c.14.31.32.58.59.79l.73,4.88-1.05-4.9c0,.84-.24,1.4-.62,1.78l-.04-.32c.4-.54.64-1.19.33-2.2Z" fill="#c3bdc9" fill-rule="evenodd"/><path id="uuid-688bdad2-ecac-4e12-b092-0a42d5b5fffd" d="M19.2,14.83c.11.07.24.12.38.16.44,1.47.61,4.38.03,5.43l-.05-.4c-1.01-.77-1.27-2.93-1.47-4.14l.03-.06c.2,1.1.43,3.23,1.42,4.09.18-.56.56-2.19-.13-4.91-.05-.06-.13-.12-.21-.17h0Z" fill="#c4bec9" fill-rule="evenodd"/><path id="uuid-da4a9e20-ea73-497c-8317-4c7a76847095" d="M18.58,13.26c.09-.01.14,0,.27-.04l.97,1.44-1.24-1.4h0Z" fill="#dfdde2" fill-rule="evenodd"/><path id="uuid-60eaa1c1-d3eb-4ed5-8d8d-bf6b7639b23e" d="M19.61,15c.14.05.32.09.5.13,0,.04,1.41,3.66,2.4,3.94-1.26.25-1.89-1.95-2.71-3.26-.06-.28-.12-.55-.19-.81Z" fill="#dfdde2" fill-rule="evenodd"/><path id="uuid-d1d5cc57-d905-42c1-8d9f-caa399d9c333" d="M19.45,12.83s-.02.04-.04.05c.57.89.59,1.43.51,1.91l.23.3c.12-.68,0-1.18-.17-1.65l2.85,4.14-2.52-4.03.53.07c-.44-.15-.89-.2-1.39-.8h0Z" fill="#c3bdc9" fill-rule="evenodd"/><path id="uuid-216939fb-a5f0-4eb9-9219-9f79d30bcfea" d="M21.17,13.63c.11,0,.21,0,.28-.03.56.92,2.02,2.59,1.85,4.87l-.18-.35c-1.35-.31-2.29-2.01-2.77-2.7.79,1.04,1.69,2.4,2.74,2.62.09-1.7-1.19-3.36-1.92-4.41h0Z" fill="#c3bdc9" fill-rule="evenodd"/><path id="uuid-e562fe9e-fdc0-45e1-81e7-ed2098f8d41d" d="M21.46,13.6l.05.08c1.25.67,2.65,1.98,3.52,1.01-.9.36-2.36-.91-3.32-1.39l.04.21c-.11.05-.2.07-.3.08h0Z" fill="#dfdde2" fill-rule="evenodd"/><path id="uuid-8f4a507a-a35a-4d96-955c-c62ee3a6e8ba" d="M19.69,12.05s0,.06,0,.09l1.56.96-1.42-1.13s-.08.05-.13.08h0Z" fill="#dfdde2" fill-rule="evenodd"/><path id="uuid-9c22a76d-73a1-4e99-9ef4-d6d240f4c851" d="M21.63,12.95c.03.1.06.2.07.32,1.86.86,2.98.65,3.51.31l-.29-.11c-.82.54-2.8-.19-3.3-.52h0Z" fill="#c3bdc9" fill-rule="evenodd"/><path id="uuid-a2313303-88e5-4d9a-9814-2c7e53ac30be" d="M20.15,11.48s0,.05-.02.07c.79.42,1.34,1.19,1.32,1.72l.27.22c-.1-.89-.42-1.22-.74-1.55l3.78,1.48-3.67-1.72c.49-.11,1-.14,1.42-.65l.87-.03c.74-.11,1.58-.54,1.66-.94l-.28.03c-.35.78-1.75.76-2.48.79-.34.63-1.4.68-2.13.58Z" fill="#c3bdc9" fill-rule="evenodd"/><path id="uuid-3cf69190-a578-4f6c-9860-ec58cc1c0879" d="M22.27,11.31c-.09.08-.19.13-.3.17.4.08.76.19,1.1.32.98.1,1.95-.05,1.99-.88-.41.66-1.58.54-2.79.38h0Z" fill="#dfdde2" fill-rule="evenodd"/><path id="uuid-3b948c24-7824-499f-b562-43767d7f2a19" d="M20.14,10.73c.03.08.04.15.05.23l2-.05c-.69-.06-1.39-.11-2.06-.18h0Z" fill="#dfdde2" fill-rule="evenodd"/><path id="uuid-2423ba2a-9508-430a-9690-fded03989d03" d="M21.1,9.92c.41.19.78.39,1.08.63l-.26-.24c.86-.07,1.73-.14,2.69-.19l-3.05-.02-.46-.17h0Z" fill="#c3bdc9" fill-rule="evenodd"/><path id="uuid-fd6f1337-54cf-43d2-9ee3-31a9d38b3434" d="M20.46,9.99s-.03.09-.05.13l.67-.19c1-.72,1.05-1.08,1.18-1.47l1.53-.95-1.74.86c-.94,0-1.18.14-1.47.22.8-.17,1.32-.2,1.62-.11l-.19.11c-.24.8-1.14,1.26-1.55,1.4h0Z" fill="#c3bdc9" fill-rule="evenodd"/><path id="uuid-75367046-ec51-412d-9044-f1b8533c6b88" d="M20.45,9.34c.03.05.03.11.05.17.48-.26.92-.54,1.37-.83-.47.23-.94.47-1.42.66Z" fill="#dfdde2" fill-rule="evenodd"/><path id="uuid-b00e8c12-edbe-4b7a-819f-425eb78de9dd" d="M21.74,9.44c.54-.05,1.09-.06,1.65-.01.13-.07,1.49-.47,1.17-1.19-.39.79-1.85,1.06-1.96,1.12-.23.02-.79.05-.85.08Z" fill="#dfdde2" fill-rule="evenodd"/><path id="uuid-424fedc5-9269-438c-bd70-e7b0c42b7a62" d="M23.99,7.41l.3-.13c.03.06-.19.47-.57.9-.51.56-.8.8-1.77.98.02-.03.04-.05.05-.08.74-.2,1.77-.93,1.99-1.67h0Z" fill="#dfdce1" fill-rule="evenodd"/><path id="uuid-37181a3a-7f23-48dc-a3a5-b1b2afb96251" d="M20.79,8.2l-.09.14c.86-.62,1.54-1,2.06-1.16.51-.54.63-1.08.42-1.39.03,1-1.56,1.76-2.39,2.41h0Z" fill="#dfdde2" fill-rule="evenodd"/><path id="uuid-457dfb90-4502-44eb-b3d5-9923b026bff3" d="M20.24,8.58l-.03.26c.63-.46.98-1.3.89-2.02l-.23.23-.99.8c.05.05.11.1.15.14l.84-.92c.06.76-.46,1.35-.63,1.5Z" fill="#c3bec9" fill-rule="evenodd"/><path id="uuid-4b414c2c-b97a-4cfb-b0f9-c062b8a01fe8" d="M21.1,7.39l-.06.21c.41-.26.7-.53.95-.8.71-.82.8-1.54.86-1.88l-.31.25c.05,1.05-1.12,2.06-1.45,2.23h0Z" fill="#dfdde2" fill-rule="evenodd"/><path id="uuid-9e73e784-4056-4657-aee1-af64625e8cae" d="M20.75,6.8c.12,0,.24,0,.36,0l1.39-1.6-1.75,1.6Z" fill="#c3bdc9" fill-rule="evenodd"/><path id="uuid-edbc0362-be86-4169-bdd4-ef36d41b8959" d="M19.73,5.9l-.17.2c.07.39.07.92-.51,1.56l.02.03h.04c.46-.59.95-.74,1.43-.88-.28.07-.56.12-.88.28.22-.66.12-.99.07-1.2h0Z" fill="#c3bdc9" fill-rule="evenodd"/><path id="uuid-e78aeb0b-b1a2-40d4-bffb-80a41d10223d" d="M19.79,6.42v.13c.5-.31,1-.68,1.45-1.19.27-.34.61-.82.65-1.48l-.26.21c-.05,1.09-1.45,2.02-1.84,2.33h0Z" fill="#dfdde2" fill-rule="evenodd"/><path id="uuid-18ac362f-3af4-4f87-b1a0-622e1d12494f" d="M18.66,6.28c.4-.17.8-.34,1.07-.39l1.75-1.63c-.47.34-1.45,1.19-1.92,1.54-.16.12-.32.12-.91.48h0Z" fill="#dfdde2" fill-rule="evenodd"/><path id="uuid-a51527f1-2c65-49d4-a64f-b1e7655a6d9f" d="M21.58,4.1c-4.43.77-6.9,6.12-3.93,5.64l-.17-.04c-.59.05-.75-.46-.69-.79.05-.36.39-.55.49-.59-.03-.32-.04-.63.27-.89.12-.3.26-.45.4-.61.47-1.69,2.82-2.53,3.62-2.72h0Z" fill="#f1eef0" fill-rule="evenodd"/><path id="uuid-05a368e6-4f8f-4a12-ba7e-6c7db8e4786b" d="M19.51,6.08c-.55.08-1.31.69-1.43.95-.01.03,0,.06-.19.17v.03c.2-.08.71,0,.23.12.32,0,.59.12.78.54,1.02-.16,1.28.59,1.02,1.09.68.59.25,1.34-.12,1.48.23.5.34,1.17-.35,1.42,0,.45-.06,1.14-1.12,1.13-.13.3-.5.82-1.14.54,0,0,0,.02,0,.04-.01.04.26.1.27.09.22.02.24.17-.02.11-.1-.03-.18-.05-.25-.08h0s0,.05-.01.07c.69.24,1.09-.18,1.3-.54.82-.04,1.16-.5,1.2-1.2.67-.42.58-1.06.37-1.5.6-.45.56-1.24.1-1.6.31-1.03-.61-1.31-1.1-1.24-.16-.28-.27-.32-.39-.39l.87-1.18-1.06,1.09c-.11-.04-.24-.05-.41-.05.22-.56,1.1-.99,1.45-1.09h0Z" fill="#c3bdc9" fill-rule="evenodd"/><path id="uuid-79b0d4e3-918e-4a07-8106-2fa604a49383" d="M11.44,4.85c.13.2.35-.05.72.33l.04-.02c-.08-.33-.31-.54-.64-.57.14.12.04.13.03.21,0,.07,0,.16-.16.05Z" fill="#dfa230" fill-rule="evenodd"/><path id="uuid-5965e25d-002c-4003-ba1d-d275ab8a57fb" d="M10.85,5.45c.2-.11.64-.27.92.12.87-.26,1.49-.02,1.58.33.05-.1-.19-.62-1.19-.54-.85-.6-1.33-.06-1.31.09h0Z" fill="#dfa230" fill-rule="evenodd"/><path id="uuid-18d39632-bbf3-4c72-b704-dcb58d5910e5" d="M12.18,6.21c-.15,0,.32-.57,1.1-.03.28.11.41-.03.36-.26-.02-.17-.11-.26-.17-.39.39.29.44.65.17.8-.41.2-.7-.52-1.46-.11h0Z" fill="#dea230" fill-rule="evenodd"/><path id="uuid-26442c68-0e5c-486c-8f40-043062f9bfd6" d="M11.54,14.18l.17.25-.05-.03c-.49.23-.74.14-.98.04l-.02-.02c-.5.1-.82-.03-1.09-.23.02.15.12.26.26.37l-.53,2.3.25-2.16c-.3.84-.7,1.24-1.24,1.47l.04-.24c.5-.25.92-.74,1.12-1.78-.2.03-.4.05-.6,0l-.5,1.7.24-1.76c-.22-.14-.4-.32-.57-.5v-.03c.05.08.11-.15.1-.22.37.6.9.72,1.41.54,0,.06,0,.11-.02.19h.02s.03-.06.04-.11c-.02-.01-.02-.04-.03-.05v-.02c.29.51.99.27,1.08.31-.01.03,0,.1.02.17v.02s.03-.07.02-.12l-.02-.05h.02c.24.19.57.18.85-.05h0Z" fill="#c3bdc9" fill-rule="evenodd"/><path id="uuid-957bad39-865c-4a35-b50f-5664ff9c6ce7" d="M9.91,14.59c.16.08.33.14.51.17-.09,1.08-.63,2.31-1.21,2.68v-.3c-.13-.24-.24-.61-.27-1.39l.05-.05c.01.54.07,1.03.25,1.41.27-.21.87-.89.96-2.21,0-.08-.02-.13-.06-.16-.11-.06-.17-.11-.24-.16h0Z" fill="#c1c0c9" fill-rule="evenodd"/><path id="uuid-49b72bdf-2cc8-4ce3-a551-a9477834c217" d="M7.83,19.15c.62.17,1.03-1.04,1.27-1.84-.11-.22-.26-.44-.27-1.42l-.05.05c-.07,1.26-.08,2.65-.94,3.22h0Z" fill="#c3bdc9" fill-rule="evenodd"/><path id="uuid-f45d23b4-7a4e-4b92-8003-f852c558f1f0" d="M8.12,13.67l.04.04c-.05.24-.37,1.1.03,1.94-.22-.33-.41-.85-.07-1.98h0Z" fill="#dfdde3" fill-rule="evenodd"/><path id="uuid-a5649a66-d320-45b4-ad2f-adc7d8e41c6e" d="M7.79,14.2l-.12.19-1.32,5.37,1.4-4.47c.07.26.16.53.52.96-.51,1.82-1.33,3.45-2.03,3.88l.07-.22c-.3-.9-.06-2.8.45-4.71-.33,1.05-1,3.34-.57,5.01l-.13.41c1.39-.95,2.2-3.32,2.51-4.53-.08.06-.16.09-.25.12-.44-.39-.65-1.02-.53-2h0Z" fill="#c3bdc9" fill-rule="evenodd"/><path id="uuid-2b304dfb-d0b0-465f-bb2c-91c06b2abb85" d="M6.95,12.69c.03.16.23.36.32.53.05.09.11.12.18.02l.06-.09c.14.16.34.25.63.2l-.35.8c-.4.78-.94.95-1.47,1.14l.17-.31c.69-.07,1.19-.75,1.45-1.39-.17-.04-.34-.11-.54-.23l-.82,1.43.54-1.44c.11-.23-.18-.4-.18-.65h0Z" fill="#c3bdc9" fill-rule="evenodd"/><path id="uuid-c110c969-bcc8-43cc-96eb-5bd7705af1c2" d="M6.62,15.19c-.1.04-.2.08-.31.11-.89,2-1.39,3.79-2.99,4.35,1.44.27,2.42-2.04,2.77-2.73.26-.63.41-1.22.53-1.72Z" fill="#cecad6" fill-rule="evenodd"/><path id="uuid-201c63c1-8723-4412-a81d-a96a1e2b707c" d="M6.82,12.75c-.16.19-.71.97-.37,2.26l.03-.04c-.25-.86.01-1.81.34-2.22Z" fill="#e0dee4" fill-rule="evenodd"/><path id="uuid-fd952766-f588-4660-8716-19fb447dffb1" d="M6.23,13.89c-.05.33-.03.6-.01.86-1.08,1.92-2.89,3.69-3.93,3.76,1.33-1.78,2.66-3.63,3.99-5.44.09-.04.17-.1.26-.15-.14.21-.2.37-.23.53l-3.66,4.69c1.22-.1,3.23-3,3.53-3.78,0-.23.03-.36.06-.47Z" fill="#c3bdc9" fill-rule="evenodd"/><path id="uuid-a22ffeae-4633-4d58-ac5d-af605724589e" d="M2.5,18.21l.09-.11c-.11-1.81,1.95-3.96,2.5-4.64-.09.2-2.71,2.49-2.58,4.75h0Z" fill="#dfdce1" fill-rule="evenodd"/><path id="uuid-1d9fbbfc-1891-4060-9244-f2706b9c893d" d="M1.01,14.97c.31.48.82.78,2.76-.4.39-.43.77-.87,1.16-1.23h-.09c-.65.27-2.34,2.03-3.83,1.63h0Z" fill="#dfdde2" fill-rule="evenodd"/><path id="uuid-9f34de55-d5ce-414c-aeb4-90dcdce03cd0" d="M6.05,11.57c-.25.1-1.21.45-1.3,1.53l-.21.12c1.3.43,2.3-.55,2.5-.73-.2-.13-.41-.24-.58-.55l-.17.08c-.42.35-.93.69-1.42,1.01l1.52-.77c.09.1.19.2.4.33-.92.63-1.64.6-1.99.51.05-.62.42-1.15,1.26-1.52h0Z" fill="#c3bdc9" fill-rule="evenodd"/><path id="uuid-5704f8bc-e1e3-4f10-a099-63619aa3b949" d="M4.58,12.85c-.03.13-.06.27-.06.37-.42.16-.87.29-1.39.38-.03,0-.17.06-.22-.04-.06-.04-.13-.05-.2-.04-.01-.03-.08-.02-.09-.05,1.26-.22,1.84-.52,1.95-.62h0Z" fill="#cecad6" fill-rule="evenodd"/><path id="uuid-1ae11b0e-ba9a-45ba-9450-3f547816648a" d="M3.17,11.92c-.33.16-1.72.9-1.96,1.6.67.2,1.18.03,1.49,0-.01-.02-.07-.02-.08-.05-.5.07-1.11.11-1.27,0l.13-.06c.04-.6,1.47-1.34,1.69-1.5h0Z" fill="#dfdde1" fill-rule="evenodd"/><path id="uuid-1975ea79-0979-4c94-ad6d-7eb112e3bf52" d="M1.55,13.4c2.26-.84,3.35-1.51,4.56-1.91v.04c-.1.06-.89.25-1.2.7l-3.36,1.18h0Z" fill="#c3bdc9" fill-rule="evenodd"/><path id="uuid-f5e7034c-615f-45c8-8008-f7a016a00d37" d="M5.72,11.61c-.16.07-.31.12-.47.2-.74-.11-.86-.29-1.17-.44l.06-.03c.12.08.26.15.4.22.22.07.27-.01.05-.09-.26-.08-.42-.19-.56-.3.25-.49.85-.73.93-.76-.33.22-.71.41-.81.73.51-.08,1.06-.17,1.73-.31.05.09.1.18.2.3l-.02.02-.1-.12-1.8.14c.5.34,1.03.37,1.56.43h0Z" fill="#c3bdc9" fill-rule="evenodd"/><path id="uuid-91f5ede1-85fe-4a01-850e-56f367c01c96" d="M1.1,10.92c.21.69,1.95.52,2.98.45l.05-.02c-.08-.06-.16-.12-.2-.17-.43-.09-2.37.32-2.83-.25h0Z" fill="#dfdde2" fill-rule="evenodd"/><path id="uuid-5e081c03-fa1c-4485-9b94-225407c03019" d="M4.38,10.54l.02.02c-.12.1-.24.19-.37.34-1.61,0-2.63-.64-2.91-1.01.4-.32.9-.44,1.43-.49-.46.14-.99.21-1.24.5h-.12c.75.84,2.75,1.21,3.18.64h0Z" fill="#dfdde2" fill-rule="evenodd"/><path id="uuid-8f6e75f0-fe78-47d9-b740-08be73430691" d="M1.42,9.92c1.07.15,2.12.28,3.22.45.15-.13.42-.22.83-.24-.14,0-.26-.02-.48.01-1.23.02-2.39-.14-3.57-.22h0Z" fill="#c3bdc9" fill-rule="evenodd"/><path id="uuid-316d2908-8581-4aa8-b347-6d226e7ba6f1" d="M6.01,9.76c-.1.11-.15.26-.19.42-1.18-.38-1.37-1.12-1.41-1.2.71-.49,1.14-.31,1.72-.32-1.25-.06-1.58.27-1.63.33.47.13.8.25,1.81.41-.1.07-.16.13-.2.19-.39-.16-1.11-.38-1.62-.58.08.34.61.85,1.05.99.12.03.26.09.31-.06.02-.06.12-.16.16-.19h0Z" fill="#c3bdc9" fill-rule="evenodd"/><path id="uuid-16631782-3912-448e-803f-4ea50ba6dfa1" d="M1.53,8.21c.22.23,1.08.97,2.65.78.06.15.12.21.18.27-.42-.06-.83-.11-1.26-.08-.69-.21-1.32-.46-1.58-.98h0Z" fill="#dfdde2" fill-rule="evenodd"/><path id="uuid-6ca6c7c7-e594-48be-a052-9999a246fa01" d="M4.73,8.53s.05.03.08.04c-.26.1-.46.21-.61.33-.79-.25-1.92-.83-2.32-1.57.49-.22,1.32-.12,1.81,0-.54,0-1.18-.11-1.5.1l-.24-.09c.1.31,1.78,1.78,2.78,1.19h0Z" fill="#dfdde2" fill-rule="evenodd"/><path id="uuid-454ec246-b456-4cd1-8be5-921c20bfbb28" d="M2.27,7.48c1.01.35,1.96.7,2.76,1.04.25-.06.49-.04.74,0-.06-.05-.11-.1-.16-.18h-.02s.1.14.1.14c-1.36-.47-2.37-.72-3.42-.99h0Z" fill="#c3bdc9" fill-rule="evenodd"/><path id="uuid-d446c918-fb2d-4b93-a7a9-f270dff6c2e4" d="M5.44,7.87c-.08-.14-.15-.29-.16-.51-.38.18-2.11-.57-2.52-1.51.03.83,1.5,1.48,2.67,2.02h0Z" fill="#dfdde2" fill-rule="evenodd"/><path id="uuid-44a13be1-6eb9-4a53-bae6-3a4820f6dbbb" d="M6.44,8.39c-.05.06-.1.13-.16.16-.03.02-.06.02-.09,0-.61-.39-.73-1.07-.72-1.21.47-.08,1.12-.07,2.02.49-.2-.04-.86-.53-1.93-.44-.02.37.26,1.07.88,1h0Z" fill="#c3bdc9" fill-rule="evenodd"/><path id="uuid-08862d26-cefb-44f0-9b44-763e2a924f27" d="M5.64,7.46l1.08.79c.14,0,.28,0,.42.07,0-.03.02-.06.04-.12-.6-.25-1.03-.5-1.54-.74Z" fill="#c3bdc9" fill-rule="evenodd"/><path id="uuid-dd58cd84-839c-447e-9285-7108e5c2fa3d" d="M3.21,4.94l.29.17c-.04.65,1.12,1.92,2.41,2.02-.21.02-.45.02-.61.09-.61-.38-1.02-.78-1.36-1.13-.07.01-.13-.17-.25-.11-.33-.42-.46-.76-.48-1.04h0Z" fill="#dfdde2" fill-rule="evenodd"/><path id="uuid-f7a40b21-100c-4d95-a4d1-d5c985ebf735" d="M5.09,5.45c-.43-.17-.82-.36-1.57-.33,1.16.84,1.8,1.37,2.65,2.04.39.06.77.23,1.15.38-.05-.1-.09-.21-.11-.31,0,.09,0,.18.06.26-.51-.15-2.6-1.63-3.62-2.29.39-.12.93.1,1.44.26h0Z" fill="#c4beca" fill-rule="evenodd"/><path id="uuid-45b79a84-0c74-435c-8ef3-453aeb84c53d" d="M5.68,5.49c-.47-.41-.99-.87-1.11-1.52.55.06,1.62.43,2.44,1.03-.77-.44-1.5-.77-2.09-.76-.05.54.45.89.76,1.26h0Z" fill="#dfdde2" fill-rule="evenodd"/><path id="uuid-dfc7e25f-8022-4cf9-a163-099f98832fa1" d="M4.96,4.25l-.03.02c.79.58,1.37,1.14,1.99,1.71.18.15.15.31.17.47.06-.08-.02-.33.12-.36.13-.02.62.23.65.19-1.17-.52-1.95-1.35-2.91-2.03Z" fill="#c3bdc9" fill-rule="evenodd"/><path id="uuid-0ed5dcbe-cba9-4a59-a033-e711633a5da9" d="M7.45,7.38c-.11-.18-.28-.74-.17-1.11,1.5.32,1.76,1.51,1.78,1.74-.22-.86-1.04-1.64-1.6-1.54.34.32.76.97,1.03,1.24-.12,0-.25.01-.33.05-.21-.02-.31.02-.42.05-.12-.13-.16-.24-.23-.35.15.21.37.18.6.12-.23-.42-.46-.72-.69-1.08-.11.09,0,.53.03.87h0Z" fill="#e0dee4" fill-rule="evenodd"/><path id="uuid-fb780c6f-3478-4a13-a85a-af55fa9f50b3" d="M8.05,5.77c2.56,1.7,2.75,4.49.94,4.03,2.17-.26-.37-3.48-.94-4.03Z" fill="#dfdde2" fill-rule="evenodd"/><path id="uuid-e9447d8f-c52e-4385-86c8-5742e7d751db" d="M8.17,7.77c.21-.09.77-.08.8.79l-.19.14c0-.24.04-.77-.61-.93h0Z" fill="#c3bdc9" fill-rule="evenodd"/><path id="uuid-75031750-bad3-46e7-8807-42aa3b0624e7" d="M8.78,8.72l.19-.14c.93.35.47,1.36-.17,1.2.77-.08.61-1.07-.02-1.06Z" fill="#c3bdc9" fill-rule="evenodd"/><path id="uuid-0a16ecf0-5acc-45b3-a21c-42b9c0c9f82f" d="M11.79,2.19c.13.22-.22.88.38.78.21.13.39.06.48.06.4-.14.39-.42.41-.49-.35-.49.04-.58.08-.61.22.03.33.42.04.55.02.02.06.02.11,0,0,.64.45.68.76.58.62.17.32-.55.61-1.08-.33.58-.12,1.11-.6,1.05.12-.3-.2-.54-.04-.86-.25.22.17.61,0,.82-.17.15-.34.02-.34-.04-.07-.22.42-.48.13-.88.1.22.07.31.01.45-.05.14-.26.26-.17.53-.22-.04-.33-.3-.27-.5.06-.2.16-.53-.22-.64-.48.14-.23.52-.18.59.12.13-.1.51-.37.51.12-.19-.02-.23-.2-.52-.01.16.36.37.15.5-.11.09-.27.04-.33-.03-.12-.14.17-.3.12-.56-.08.39-.19.37-.18.55-.14.04-.29.09-.33-.18,0-.37,0-.59-.06-.56h0Z" fill="#dfa230" fill-rule="evenodd"/><path id="uuid-d661fc72-14f5-4668-834a-0bc989fd79dd" d="M14.27,3.7v.04c-.73.05-1.49-.09-2.21-.11v-.03c.73.02,1.32.15,2.21.11h0Z" fill="#dfa230" fill-rule="evenodd"/><path id="uuid-e54de319-dab7-4867-83f1-04e9355f291d" d="M13.13,3.82v.03c.42.07.85.13,1.2.1v-.03c-.43.05-.81-.03-1.2-.1Z" fill="#dfa230" fill-rule="evenodd"/><path id="uuid-72918d5b-145d-4953-a769-eb88f82330b5" d="M12.11,3.21c-.12.04-.06.21,0,.21.14,0,.27.03.41,0,.08-.04.1-.17.02-.23-.14-.02-.28-.02-.42.01h0ZM12.09,3.19c.23-.04.45-.02.57,0,.11.03.11.22,0,.25-.12.01-.38,0-.56,0-.12-.1-.06-.22,0-.25h0Z" fill="#e1a030" fill-rule="evenodd"/><path id="uuid-384c48db-5ef5-4291-9ade-3b005896cda2" d="M12.93,3.4c.3.04.56.06.5-.17-.09,0-.67-.13-.5.17ZM12.92,3.43s-.1-.14.01-.25c.17-.01.34,0,.52.02.16.07.15.21.01.27-.29,0-.44-.02-.55-.04h0Z" fill="#e1a030" fill-rule="evenodd"/><path id="uuid-2a12b0cf-f084-4477-8824-98c65089668d" d="M13.75,3.44c.3.06.55.12.51-.12-.09,0-.66-.2-.51.12ZM13.74,3.47s-.09-.14.03-.25c.43.02.36.03.52.07.16.08.13.22,0,.27-.37,0-.44-.05-.54-.09h0Z" fill="#e1a030" fill-rule="evenodd"/><path id="uuid-71160121-24b4-4834-8fb1-a9a99f00e40d" d="M8.27,8.18l-.48,1.41c.13,0,.25,0,.48-.04.22-.44.26-1.07,0-1.37h0Z" fill="#c3bdc9" fill-rule="evenodd"/><path id="uuid-a3e10806-f3be-40ad-982a-dcb004e37ec9" d="M8.66,10.93l-.86-1.34s-.22.55-.25.73c.11.29.62.6,1.11.6h0Z" fill="#fff" fill-rule="evenodd"/><path id="uuid-f1855229-230b-4ff2-aacf-f43aec471b9c" d="M8.52,9.9c.3-.11.36-.29.37-.4l-.61.05c.09.11.17.22.24.35h0Z" fill="#c3bdc9" fill-rule="evenodd"/><path id="uuid-6de411d6-b0da-4382-b1c6-148078c9af73" d="M7.51,8.88c-.12-.08-.52-.11-.6-.04l.51.47c.02-.14.05-.3.09-.43h0Z" fill="#c3bdc9" fill-rule="evenodd"/><path id="uuid-775e6b64-d1dc-443d-8021-7e09cb3430bc" d="M6.36,10.33l1.43-.73s-.17.56-.24.73c-.17.09-.88.26-1.19,0h0Z" fill="#c3bdc9" fill-rule="evenodd"/></g></svg>