<?xml version="1.0" encoding="UTF-8"?>
<svg xmlns="http://www.w3.org/2000/svg" id="uuid-743e10a1-ff82-427e-9db3-5e23cc37b02e" width="334.89" height="80" viewBox="0 0 334.89 80">
  <defs>
    <style>.uuid-e7bb4bd7-2623-480f-a3bf-aa0971350f0b{fill:#757575;}.uuid-82beeaaf-8c28-42b1-bff9-66a045adf6c2{fill:#d51317;}.uuid-0c2c7f83-78e7-4678-9108-0b82b1db1ac3{fill:none;}.uuid-bd168b51-43d3-4f36-ad92-60d11633c2b5{fill:#575756;}</style>
  </defs>
  <g id="uuid-812dbf5c-b0fe-4a72-b040-2745cea403fd">
    <path class="uuid-e7bb4bd7-2623-480f-a3bf-aa0971350f0b" d="M106.63,12.15c-6.15-8.1-14.42-12.15-24.82-12.15-7.85,0-14.77,2.69-20.76,8.06-7.87,7.07-11.78,17.49-11.78,31.26,0,12.08,3.52,21.59,10.57,28.51,4.32,4.23,9.23,6.99,14.74,8.25v-8.33c-2.99-1.42-5.63-3.78-7.93-7.08-4.01-5.77-6.02-13.02-6.02-21.76v-.7c0-9.82,1.98-17.43,5.91-22.8,3.94-5.37,9.14-8.06,15.63-8.06s11.7,3.39,15.47,10.2c.75,1.34,1.42,2.74,1.98,4.22h12.34c-1.3-3.4-3.07-6.62-5.33-9.63Z"></path>
    <path class="uuid-0c2c7f83-78e7-4678-9108-0b82b1db1ac3" d="M124.18,55.81v-15.79c-.58,1.31-1.34,3.02-2.15,4.81v13.29c.06-.05.1-.09.1-.09.73-.69,1.41-1.44,2.05-2.22Z"></path>
    <path class="uuid-0c2c7f83-78e7-4678-9108-0b82b1db1ac3" d="M127.11,37.66h-1.91l-.24.55v16.59c.8-1.09,1.52-2.24,2.15-3.45v-13.69Z"></path>
    <path class="uuid-0c2c7f83-78e7-4678-9108-0b82b1db1ac3" d="M119.09,60.67c.13-.11.27-.22.4-.33.69-.57,1.29-1.1,1.75-1.51v-12.27c-.24.54-.49,1.07-.72,1.59l-.21.47c-.41.9-.82,1.81-1.22,2.69v9.36Z"></path>
    <polygon class="uuid-0c2c7f83-78e7-4678-9108-0b82b1db1ac3" points="113.81 54.45 113.81 44.81 104.19 44.81 104.19 54.41 109 50.76 113.81 54.45"></polygon>
    <polygon class="uuid-0c2c7f83-78e7-4678-9108-0b82b1db1ac3" points="124.34 37.66 116.9 37.66 116.9 39.27 123.64 39.27 124.34 37.66"></polygon>
    <path class="uuid-0c2c7f83-78e7-4678-9108-0b82b1db1ac3" d="M108.85,35.27c-1.26-.73-2.55-1.48-3.95-2.32v4.66c.73-.43,1.46-.86,2.2-1.3.58-.34,1.16-.69,1.75-1.04Z"></path>
    <path class="uuid-0c2c7f83-78e7-4678-9108-0b82b1db1ac3" d="M129.85,37.66h-1.95v12.02c.1-.22.2-.44.29-.66,1.47-3.67,2.04-7.59,1.67-11.36Z"></path>
    <path class="uuid-0c2c7f83-78e7-4678-9108-0b82b1db1ac3" d="M109.3,34.64c.68-1.15,1.36-2.3,2.04-3.46h-4.67c.87,1.49,1.62,2.74,2.35,3.93l.28-.47Z"></path>
    <path class="uuid-0c2c7f83-78e7-4678-9108-0b82b1db1ac3" d="M118.3,53.05c-.53,1.18-1.02,2.27-1.4,3.15v6.17c.36-.27.86-.65,1.4-1.08v-8.24Z"></path>
    <path class="uuid-0c2c7f83-78e7-4678-9108-0b82b1db1ac3" d="M119.99,60.94c-.3.25-.61.5-.9.73v.03h-.03c-.99.78-1.86,1.43-2.16,1.65v1.74s14.04,0,14.04,0v-1.79c-2.65-1.39-5.5-2.91-8.49-4.51-.39.36-1.32,1.2-2.46,2.15Z"></path>
    <path class="uuid-0c2c7f83-78e7-4678-9108-0b82b1db1ac3" d="M89.56,49.03c.09.22.18.44.27.65v-12.02h-1.93c-.37,3.78.2,7.7,1.67,11.36Z"></path>
    <path class="uuid-0c2c7f83-78e7-4678-9108-0b82b1db1ac3" d="M90.61,37.66v13.73c.64,1.3,1.34,2.42,2.15,3.47v-16.69h0l-.22-.51h-1.92Z"></path>
    <path class="uuid-0c2c7f83-78e7-4678-9108-0b82b1db1ac3" d="M95.53,42.52c.13-.39.32-.81.59-1.19.4-.55.87-1.12,1.88-1.57.94-.41,2.21-.5,2.85-.51l-.02-1.58h-7.45l.8,1.84c.37.85.83,1.89,1.34,3.02Z"></path>
    <path class="uuid-0c2c7f83-78e7-4678-9108-0b82b1db1ac3" d="M95.69,58.01v-13.22c-.81-1.79-1.58-3.51-2.15-4.82v15.84c.45.51.93,1.01,1.46,1.52,0,0,.51.51.69.68Z"></path>
    <path class="uuid-0c2c7f83-78e7-4678-9108-0b82b1db1ac3" d="M98.63,60.66v-9.38c-.39-.87-.8-1.76-1.2-2.65l-.21-.47c-.24-.53-.49-1.08-.74-1.63v12.23c.58.54,1.22,1.13,1.79,1.6.12.1.24.2.36.3Z"></path>
    <path class="uuid-0c2c7f83-78e7-4678-9108-0b82b1db1ac3" d="M100.84,56.2c-.39-.89-.88-1.99-1.42-3.19v8.27c.55.44,1.06.82,1.42,1.09v-6.18Z"></path>
    <path class="uuid-0c2c7f83-78e7-4678-9108-0b82b1db1ac3" d="M98.63,61.7v-.04c-.28-.23-.57-.46-.86-.7-1-.83-2.21-1.99-2.94-2.7-.77,1.35-1.9,3.02-3.41,3.82-1.4.74-3.11,1.34-4.63,1.62v1.39h14.04v-1.73c-.32-.24-1.19-.88-2.16-1.65h-.05Z"></path>
    <path class="uuid-0c2c7f83-78e7-4678-9108-0b82b1db1ac3" d="M107.97,75.06v-4.6h2.18v4.61c2.51-2.03,5.28-3.39,8.87-4.16,3.29-.71,6.77-.87,10.14-1.03h.06c1.39-.07,2.82-.14,4.22-.25V31.56h-14.53c-1.29.12-2.49.71-4.29,2.1v6.04l-.05.02c-1.82.8-3.64,1.6-5.43,2.38h-.03s-.03,0-.03,0c-1.62-.68-3.4-1.43-5.61-2.38l-.05-.02v-6.07c-1.88-1.49-2.86-2-4.87-2.07h-13.88v38.07c4.2,0,8.31.07,12.32.78,4.49.8,7.97,2.32,10.98,4.65ZM116.11,40.05v-3.18h14.44l.04.38c.45,4-.13,8.17-1.68,12.06-.3.76-.65,1.5-1.02,2.22v.02h-.01c-1.27,2.48-2.91,4.75-4.84,6.66,2.98,1.59,5.81,3.1,8.45,4.48l.21.11.02.25v2.81h-15.62v-9.83s.04-.07.04-.07c.84-1.93,2.16-4.85,3.44-7.67l.21-.47c1.21-2.68,2.57-5.66,3.5-7.78h-7.19ZM103.41,44.02h11.18v25.12h-11.18v-25.12ZM86.01,63.03l.33-.05c1.52-.24,3.28-.83,4.71-1.59,1.4-.75,2.48-2.4,3.19-3.7-.04-.04-.06-.06-.07-.06h0c-2.39-2.34-3.91-4.7-5.36-8.31-1.56-3.89-2.14-8.06-1.68-12.06l.04-.38h14.43l.03,3.17h-.41s-1.8-.05-2.92.44c-.84.37-1.2.81-1.56,1.31-.51.7-.66,1.62-.7,1.91.61,1.35,1.26,2.78,1.87,4.13l.21.47c1.28,2.82,2.6,5.74,3.44,7.67l.03.07v9.83s-15.61,0-15.61,0v-2.84Z"></path>
    <path class="uuid-0c2c7f83-78e7-4678-9108-0b82b1db1ac3" d="M106.68,39.36h4.67l-.31-.52c-.66-1.12-1.34-2.27-2.01-3.42-.76,1.25-1.52,2.55-2.35,3.94Z"></path>
    <path class="uuid-0c2c7f83-78e7-4678-9108-0b82b1db1ac3" d="M113.1,32.95c-1.03.62-2.09,1.24-3.1,1.84l-.82.48c1.37.83,2.69,1.61,3.92,2.34v-4.66Z"></path>
    <path class="uuid-bd168b51-43d3-4f36-ad92-60d11633c2b5" d="M86.77,75.05l.29.43.29.43v.02s.03.03.03.03h.03s.02,0,.02,0c.61.02,1.29.02,2.08.02.45,0,.9,0,1.35,0h.7s.37,0,.37,0c.55,0,1.1-.01,1.65-.01,3.7,0,6.76.2,9.68,1.2,1.91.74,3.09,1.51,4.8,2.5l.02.02.45.26.12.07v-.2c-.03-2.88-.03-5.8-.03-8.63h.82v8.82l.11-.06.05-.03c.22-.12.43-.23.63-.35.15-.08,3.25-1.85,4.45-2.2,4.25-1.31,7.26-1.41,10.48-1.41.56,0,1.13,0,1.73.01h.58c.49,0,1,.01,1.53.01.33,0,.67,0,1.02,0h.06l.02-.03.2-.27c1.37-1.79,2.66-3.48,3.98-5.16h0s0-.02,0-.02v-.02s.01-.03.01-.03V30.64h-15.14c-1.44,0-3.11.68-4.59,1.86v-2.33h-11.2v2.21c-1.56-1.43-3.61-1.74-5.07-1.74h-14.57v.12c-.03,13.22-.03,26.66-.03,39.66v.03l.02.03c.99,1.52,2.02,3.07,3.01,4.56ZM109.18,35.27s2.89-1.7,3.92-2.32v4.66c-1.23-.73-2.55-1.51-3.92-2.34ZM111.35,39.36h-4.67c.82-1.39,1.59-2.69,2.35-3.94.67,1.15,2.32,3.94,2.32,3.94ZM111.35,31.18c-.68,1.16-2.32,3.93-2.32,3.93-.73-1.19-1.48-2.45-2.35-3.93h4.67ZM104.9,32.95c1.4.83,2.69,1.59,3.95,2.32-.59.35-3.22,1.91-3.95,2.34v-4.66ZM84.66,31.56h13.88c2.02.07,2.99.58,4.87,2.07v6.07l.05.02c2.21.95,3.99,1.7,5.61,2.38h.03s.03,0,.03,0c1.79-.78,3.61-1.58,5.43-2.38l.05-.02v-6.04c1.8-1.39,3-1.98,4.29-2.11h14.53v38.08c-1.4.11-2.84.17-4.22.24h-.06c-3.37.16-6.85.33-10.14,1.03-3.59.77-6.36,2.13-8.87,4.16v-4.61h-2.18v4.6c-3.02-2.33-6.49-3.85-10.98-4.65-4.02-.71-8.12-.78-12.32-.78V31.56Z"></path>
    <path class="uuid-bd168b51-43d3-4f36-ad92-60d11633c2b5" d="M114.59,44.02h-11.18v25.12h11.18v-25.12ZM104.19,44.81h9.62v9.64l-4.81-3.68-4.81,3.65v-9.61ZM109.37,57.94v-5.91l1.98,1.52v6.08c-.81-.69-1.56-1.33-1.98-1.69ZM113.81,61.72c-.43-.37-1.04-.89-1.67-1.42v-6.15l1.67,1.29v6.28ZM104.19,61.74v-6.35l1.77-1.34v6.19l-1.77,1.5ZM108.58,58.03l-1.83,1.55v-6.12l1.83-1.39v5.96ZM113.81,68.1h-9.65l.04-5.03,4.71-3.97.11-.09h.01s4.78,4.06,4.78,4.06v5.03Z"></path>
    <path class="uuid-bd168b51-43d3-4f36-ad92-60d11633c2b5" d="M119.59,48.3c-1.28,2.82-2.6,5.74-3.44,7.67l-.03.07v9.83s15.61,0,15.61,0v-2.81l-.02-.25-.21-.11c-2.63-1.38-5.47-2.89-8.45-4.48,1.93-1.91,3.57-4.18,4.84-6.66h.01v-.02c.37-.73.71-1.47,1.02-2.22,1.56-3.89,2.14-8.06,1.68-12.06l-.04-.38h-14.44v3.18h7.19c-.93,2.11-2.29,5.1-3.5,7.78l-.21.47ZM127.89,37.66h1.95c.37,3.78-.2,7.7-1.67,11.36-.09.22-.19.44-.29.66v-12.02ZM116.9,56.2c.39-.88.87-1.97,1.4-3.15v8.24c-.55.43-1.05.81-1.41,1.08v-6.17ZM130.94,63.3v1.79h-14.04v-1.74c.3-.21,1.17-.87,2.16-1.65h.03v-.03c.3-.24.6-.48.9-.73,1.14-.95,2.07-1.79,2.46-2.15,2.99,1.6,5.84,3.12,8.49,4.51ZM124.96,38.21l.24-.55h1.91v13.69c-.63,1.21-1.35,2.36-2.15,3.45v-16.59ZM116.9,39.27v-1.61h7.45l-.7,1.61h-6.75ZM122.02,44.83c.81-1.79,1.58-3.5,2.15-4.81v15.79c-.64.78-1.33,1.53-2.05,2.22,0,0-.04.03-.1.09v-13.29ZM120.52,48.15c.24-.52.48-1.05.72-1.59v12.27c-.46.41-1.06.94-1.75,1.51-.13.11-.27.22-.4.33v-9.36c.4-.88.81-1.79,1.22-2.69l.21-.47Z"></path>
    <path class="uuid-bd168b51-43d3-4f36-ad92-60d11633c2b5" d="M101.62,56.04l-.03-.07c-.84-1.93-2.16-4.85-3.44-7.67l-.21-.47c-.61-1.35-1.26-2.77-1.87-4.13.04-.3.19-1.22.7-1.91.36-.5.72-.94,1.56-1.31,1.12-.5,2.9-.45,2.92-.45h.41s-.03-3.16-.03-3.16h-14.43l-.04.38c-.45,4,.13,8.17,1.68,12.06,1.44,3.61,2.97,5.97,5.36,8.31h0s.03.03.07.07c-.72,1.29-1.79,2.95-3.19,3.7-1.43.76-3.19,1.35-4.71,1.59l-.33.05v2.84h15.61v-9.83ZM99.41,53.01c.54,1.2,1.03,2.3,1.42,3.19v6.18c-.36-.28-.87-.66-1.42-1.09v-8.27ZM96.48,46.52c.25.55.5,1.1.74,1.63l.21.47c.4.89.81,1.78,1.2,2.65v9.38c-.12-.1-.24-.2-.36-.3-.57-.47-1.21-1.06-1.79-1.6v-12.23ZM89.82,49.68c-.09-.21-.18-.43-.27-.65-1.47-3.67-2.04-7.59-1.67-11.36h1.93v12.02ZM92.76,38.18v16.69c-.81-1.05-1.5-2.17-2.15-3.47v-13.73h1.92l.22.51h0ZM100.84,37.66l.02,1.58c-.64.01-1.91.1-2.85.51-1.02.45-1.49,1.02-1.88,1.57-.27.38-.46.81-.59,1.19-.51-1.13-.97-2.16-1.34-3.02l-.8-1.84h7.45ZM93.54,55.82v-15.84c.57,1.31,1.34,3.02,2.15,4.82v13.22c-.18-.17-.69-.68-.69-.68-.53-.5-1.01-1.01-1.46-1.52ZM100.84,65.09h-14.04v-1.39c1.52-.28,3.22-.88,4.63-1.62,1.51-.8,2.64-2.47,3.41-3.82.73.71,1.94,1.87,2.94,2.7.29.24.58.47.86.7v.04h.05c.97.77,1.84,1.42,2.16,1.65v1.73Z"></path>
    <polygon class="uuid-82beeaaf-8c28-42b1-bff9-66a045adf6c2" points="108.58 52.07 106.75 53.46 106.75 59.58 108.58 58.03 108.58 52.07"></polygon>
    <path class="uuid-82beeaaf-8c28-42b1-bff9-66a045adf6c2" d="M111.35,53.56l-1.98-1.52v5.91c.42.36,1.18,1,1.98,1.69v-6.08Z"></path>
    <path class="uuid-82beeaaf-8c28-42b1-bff9-66a045adf6c2" d="M112.13,54.16v6.15c.63.54,1.24,1.05,1.67,1.42v-6.28l-1.67-1.29Z"></path>
    <polygon class="uuid-82beeaaf-8c28-42b1-bff9-66a045adf6c2" points="105.96 54.05 104.19 55.4 104.19 61.74 105.96 60.24 105.96 54.05"></polygon>
    <polygon class="uuid-82beeaaf-8c28-42b1-bff9-66a045adf6c2" points="109.02 59.01 108.9 59.1 104.19 63.07 104.15 68.1 113.81 68.1 113.81 63.07 109.03 59.02 109.02 59.01"></polygon>
    <path class="uuid-bd168b51-43d3-4f36-ad92-60d11633c2b5" d="M147.68,40.58l-1.49-5.07c-.16-.54-.25-.85-.28-.92-.17-.42-.4-.74-.7-.95v-.05h2.86l.28,1.06,1.32,4.98h.05c.09-.36.18-.73.28-1.1.25-.95.42-1.65.53-2.09.19-.78.29-1.2.3-1.25,0-.34-.06-.65-.18-.95s-.26-.51-.42-.62l2.78-.03-.08.36s.53,1.92,1.59,5.65l1.29-4.37c.03-.15.05-.25.06-.31,0-.06.01-.14.01-.26,0-.2-.04-.38-.11-.54s-.18-.32-.33-.5l2.21-.03-2.7,8.86c-.4-.12-.7-.23-.92-.34-.22-.1-.43-.22-.65-.36-.41-.26-.77-.9-1.07-1.92-.36-1.24-.63-2.12-.82-2.66l-1.36,5.27c-.61-.17-1.09-.36-1.44-.57-.54-.33-.89-.76-1.04-1.29Z"></path>
    <path class="uuid-bd168b51-43d3-4f36-ad92-60d11633c2b5" d="M160.62,40.98v-2.65l-1.99-3.76c-.16-.29-.29-.5-.39-.61-.1-.12-.24-.23-.41-.34l3.06-.03,1.53,3.15.76-1.54c.08-.2.14-.38.19-.53s.07-.27.07-.37c0-.15-.03-.28-.09-.39-.06-.11-.16-.21-.3-.28l2.39-.03-2.39,4.74v2.21c0,.35.03.63.08.83.09.33.26.61.51.84v.05h-3.6v-.05c.2-.11.35-.29.43-.51.09-.23.13-.47.13-.73Z"></path>
    <path class="uuid-bd168b51-43d3-4f36-ad92-60d11633c2b5" d="M165.43,42.27l3.94-7.41-1.16-.04c-.37,0-.74.06-1.11.17-.37.11-.73.27-1.07.48l.7-1.88h6.05l-3.89,7.3c.26,0,.6.02,1,.06.4.04.65.06.75.06.48,0,.92-.06,1.3-.17.38-.11.82-.33,1.33-.65l-.73,2.08h-7.1ZM169.56,30.33c.33,0,.62.12.87.37.25.25.37.55.37.9s-.12.64-.36.89c-.24.25-.53.37-.88.37s-.65-.12-.9-.37c-.25-.25-.37-.54-.37-.9s.12-.65.37-.9c.25-.25.54-.37.9-.37Z"></path>
    <path class="uuid-bd168b51-43d3-4f36-ad92-60d11633c2b5" d="M174.06,41.96l-.43-1.9c.36.31.79.57,1.31.76.51.19,1,.29,1.46.29.38,0,.7-.07.95-.22.25-.14.39-.36.43-.65,0-.37-.19-.69-.58-.96-.16-.11-.55-.32-1.17-.61-.78-.35-1.34-.73-1.68-1.14-.39-.46-.58-1.06-.58-1.79.06-.74.39-1.31,1-1.72.6-.41,1.38-.62,2.32-.62.36,0,.7.02,1.01.07.32.04.7.15,1.16.31v1.56c-.34-.21-.67-.37-.98-.47-.31-.1-.6-.15-.87-.15-.64,0-1.03.29-1.16.87,0,.35.31.66.92.93.28.12.57.24.85.36.85.42,1.44.87,1.77,1.34.28.39.42.85.42,1.37v.29c-.1.9-.52,1.58-1.28,2.03-.62.37-1.4.55-2.33.55-.47,0-.92-.05-1.36-.14-.44-.09-.84-.21-1.18-.35Z"></path>
    <path class="uuid-bd168b51-43d3-4f36-ad92-60d11633c2b5" d="M180.45,42.27l3.94-7.41-1.16-.04c-.37,0-.74.06-1.11.17-.37.11-.73.27-1.07.48l.7-1.88h6.05l-3.89,7.3c.26,0,.6.02,1,.06.4.04.65.06.75.06.48,0,.92-.06,1.3-.17.38-.11.82-.33,1.33-.65l-.73,2.08h-7.1Z"></path>
    <path class="uuid-bd168b51-43d3-4f36-ad92-60d11633c2b5" d="M189.38,40.29l1.78-5.13s.04-.14.09-.33c.05-.18.08-.34.08-.46,0-.15-.04-.28-.11-.41-.07-.12-.2-.24-.38-.36l3.22-.03,2.56,6.9c.15.44.3.77.44,1,.14.23.36.47.64.73v.05h-3.99v-.05c.36-.2.54-.45.54-.75,0-.12,0-.22-.01-.28,0-.06-.04-.16-.09-.29l-.41-1.25h-2.62l-.38,1.11c-.03.11-.07.24-.11.38-.04.14-.06.26-.07.36,0,.14.04.27.12.38.08.11.2.23.37.35v.05h-2.7v-.05c.27-.23.5-.53.67-.9.09-.19.22-.53.38-1.03ZM191.49,38.41h1.81s-.92-2.63-.92-2.63l-.89,2.63Z"></path>
    <path class="uuid-bd168b51-43d3-4f36-ad92-60d11633c2b5" d="M201.48,41.96l-.43-1.9c.36.31.79.57,1.31.76.51.19,1,.29,1.46.29.38,0,.7-.07.95-.22.25-.14.39-.36.43-.65,0-.37-.19-.69-.58-.96-.16-.11-.55-.32-1.17-.61-.78-.35-1.34-.73-1.68-1.14-.39-.46-.58-1.06-.58-1.79.06-.74.39-1.31,1-1.72.6-.41,1.38-.62,2.32-.62.36,0,.7.02,1.01.07.32.04.7.15,1.16.31v1.56c-.34-.21-.67-.37-.98-.47-.31-.1-.6-.15-.87-.15-.64,0-1.03.29-1.16.87,0,.35.31.66.92.93.28.12.57.24.85.36.85.42,1.44.87,1.77,1.34.28.39.42.85.42,1.37v.29c-.1.9-.52,1.58-1.28,2.03-.62.37-1.4.55-2.33.55-.47,0-.92-.05-1.36-.14-.44-.09-.84-.21-1.18-.35Z"></path>
    <path class="uuid-bd168b51-43d3-4f36-ad92-60d11633c2b5" d="M207.87,42.27l3.94-7.41-1.16-.04c-.37,0-.74.06-1.11.17-.37.11-.73.27-1.07.48l.7-1.88h6.05l-3.89,7.3c.26,0,.6.02,1,.06.4.04.65.06.75.06.48,0,.92-.06,1.3-.17.38-.11.82-.33,1.32-.65l-.73,2.08h-7.1Z"></path>
    <path class="uuid-bd168b51-43d3-4f36-ad92-60d11633c2b5" d="M219.2,41.03c0,.28.04.52.13.73s.23.36.43.46v.05h-3.56v-.05c.21-.12.36-.29.43-.51.08-.22.12-.44.12-.67v-5.95c0-.39-.03-.67-.08-.84-.08-.26-.24-.46-.47-.62l3.56-.03c-.2.13-.35.31-.43.55-.09.23-.13.46-.13.67v2.71s1.67-2.11,1.67-2.11c.11-.14.23-.29.34-.44.15-.22.22-.42.22-.61,0-.15-.04-.29-.11-.41-.07-.12-.21-.23-.4-.33l3.24-.03-2.91,3.53,2.45,3.86c.11.19.23.37.34.55.19.28.4.51.63.69v.05h-.82c-1.05,0-1.76-.07-2.12-.2-.36-.14-.69-.47-1-1.01l-1.54-2.65v2.62Z"></path>
    <path class="uuid-bd168b51-43d3-4f36-ad92-60d11633c2b5" d="M224.54,37.73c0-1.25.46-2.28,1.38-3.1.92-.83,2.11-1.24,3.56-1.24s2.69.43,3.57,1.29c.83.82,1.25,1.88,1.25,3.18v.05c0,1.14-.35,2.13-1.06,2.96-.89,1.04-2.16,1.57-3.81,1.57-1.48,0-2.68-.45-3.59-1.34-.87-.85-1.3-1.9-1.3-3.16v-.21ZM227.07,37.73c0,.86.21,1.62.62,2.28.46.73,1.06,1.09,1.8,1.09s1.29-.26,1.68-.78c.36-.48.54-1.13.54-1.95,0-.93-.16-1.72-.49-2.38-.42-.86-1.05-1.29-1.87-1.29-.66,0-1.21.27-1.64.82-.43.55-.65,1.23-.65,2.03v.17Z"></path>
    <path class="uuid-bd168b51-43d3-4f36-ad92-60d11633c2b5" d="M235.67,39.48l-.57.22v-1.26l.57-.22v-3.38c0-.32-.05-.58-.16-.77-.11-.2-.24-.35-.41-.44l3.54-.03c-.24.16-.4.39-.47.69-.04.16-.07.37-.07.62v2.29l1.34-.57v1.25s-1.34.58-1.34.58v2.34c.17.09.37.15.61.18.24.03.47.05.69.05.49,0,.9-.06,1.24-.19.14-.05.38-.18.71-.38l-.49,1.83h-5.76c.25-.18.41-.39.47-.63.06-.24.09-.58.09-1.01v-1.15Z"></path>
    <path class="uuid-bd168b51-43d3-4f36-ad92-60d11633c2b5" d="M242.75,40.29l1.78-5.13s.04-.14.09-.33c.05-.18.08-.34.08-.46,0-.15-.03-.28-.11-.41-.07-.12-.2-.24-.38-.36l3.22-.03,2.56,6.9c.15.44.3.77.44,1,.14.23.36.47.64.73v.05h-3.99v-.05c.36-.2.54-.45.54-.75,0-.12,0-.22-.01-.28,0-.06-.04-.16-.09-.29l-.41-1.25h-2.62l-.38,1.11c-.03.11-.07.24-.11.38-.04.14-.06.26-.07.36,0,.14.04.27.12.38.08.11.2.23.37.35v.05h-2.7v-.05c.27-.23.5-.53.67-.9.09-.19.22-.53.38-1.03ZM244.85,38.41h1.81s-.92-2.63-.92-2.63l-.89,2.63Z"></path>
    <path class="uuid-bd168b51-43d3-4f36-ad92-60d11633c2b5" d="M145.89,55.55v-5.28c0-.54-.03-.92-.09-1.13-.06-.21-.21-.41-.45-.6l3.52-.03c-.25.2-.4.41-.45.61-.06.21-.09.55-.09,1.03v5.44c0,.48.03.82.11,1.02.07.2.22.38.43.55l-3.52.03c.25-.19.4-.41.47-.69.04-.17.07-.49.07-.96Z"></path>
    <path class="uuid-bd168b51-43d3-4f36-ad92-60d11633c2b5" d="M150.18,55.61v-4.95c0-.56-.05-.97-.14-1.21-.1-.24-.3-.53-.62-.88v-.05h2.75l4.03,5.34v-3.61c0-.36-.02-.63-.07-.82-.08-.34-.25-.63-.5-.89l-.03-.03h2.56c-.2.2-.35.44-.45.71-.1.27-.15.55-.15.84v7.42h-.05c-.32,0-.74-.12-1.27-.37-.69-.33-1.23-.74-1.62-1.25l-3.03-4.06h-.05v3.81c0,.37.05.67.15.92.1.24.25.45.44.63v.05h-2.56v-.05c.19-.16.34-.36.44-.6.1-.24.15-.56.15-.94Z"></path>
    <path class="uuid-bd168b51-43d3-4f36-ad92-60d11633c2b5" d="M159.33,55.94v-6.07c0-.33-.05-.59-.14-.78-.09-.18-.23-.34-.4-.47l4.63-.03c.09,0,.17,0,.25,0,.08,0,.17-.02.26-.06h.05v1.9c-.14-.24-.36-.41-.67-.49-.16-.04-.36-.07-.61-.07h-.94v2.13h1c.1,0,.18,0,.25,0,.07,0,.14-.02.2-.06h.07v1.87h-.07c-.04-.15-.14-.27-.28-.36-.14-.09-.38-.13-.7-.13h-.46v2.13c0,.36.02.64.07.83.09.39.26.69.53.92v.05h-3.57v-.05c.24-.14.39-.35.47-.63.04-.15.07-.36.07-.63Z"></path>
    <path class="uuid-bd168b51-43d3-4f36-ad92-60d11633c2b5" d="M164.54,52.66c0-1.25.46-2.28,1.38-3.1.92-.83,2.11-1.24,3.56-1.24s2.69.43,3.57,1.29c.83.82,1.25,1.88,1.25,3.18v.05c0,1.14-.35,2.13-1.06,2.96-.89,1.04-2.16,1.57-3.81,1.57-1.48,0-2.68-.45-3.59-1.34-.87-.85-1.3-1.9-1.3-3.16v-.21ZM167.07,52.66c0,.86.21,1.62.62,2.28.46.73,1.06,1.09,1.8,1.09s1.29-.26,1.68-.78c.36-.48.54-1.13.54-1.95,0-.93-.16-1.72-.49-2.38-.42-.86-1.05-1.29-1.87-1.29-.66,0-1.21.27-1.64.82-.43.55-.65,1.23-.65,2.03v.17Z"></path>
    <path class="uuid-bd168b51-43d3-4f36-ad92-60d11633c2b5" d="M177.82,53.47v2.44c0,.33.05.6.14.79.1.19.24.34.42.45v.05h-3.54v-.05c.22-.12.36-.29.43-.5.07-.21.11-.45.11-.72v-5.98c0-.38-.03-.67-.09-.87-.06-.2-.21-.38-.45-.54l4.3-.03c.75,0,1.35.19,1.8.58.49.42.74,1,.74,1.74,0,.33-.08.65-.25.95-.26.46-.68.84-1.29,1.14l1.7,2.88c.19.29.33.5.42.61.23.3.46.54.69.73l-1.49.11h-.73c-.33,0-.6-.06-.8-.17-.2-.11-.38-.33-.55-.66l-1.57-2.95ZM177.82,52.78c.42-.06.76-.24,1.03-.54.26-.3.39-.65.39-1.06s-.1-.73-.3-.98c-.24-.28-.58-.42-1.01-.42h-.11v3.01Z"></path>
    <path class="uuid-bd168b51-43d3-4f36-ad92-60d11633c2b5" d="M183.65,55.56l.65-5.64v-.31c0-.2-.04-.39-.11-.55-.07-.17-.2-.34-.39-.51l3.02-.03,1.98,5.1,1.55-5.1h3.13v.05c-.18.13-.31.25-.37.35-.06.1-.1.23-.12.39.02.05.03.13.03.24l.66,5.98c.04.37.12.68.22.94.1.26.25.49.45.68v.05h-3.47v-.05c.16-.16.27-.3.32-.43.06-.13.09-.26.09-.39l-.03-.5-.43-4.24h-.05l-1.7,5.78c-.75-.27-1.29-.56-1.59-.87-.21-.21-.39-.53-.54-.96l-1.45-3.95h-.05l-.44,4.53c0,.26.05.48.15.64.1.16.24.29.42.39v.05h-2.57v-.05c.22-.18.38-.41.47-.69.07-.19.13-.5.17-.91Z"></path>
    <path class="uuid-bd168b51-43d3-4f36-ad92-60d11633c2b5" d="M195.8,55.23l1.78-5.13s.04-.14.09-.33c.05-.18.08-.34.08-.46,0-.15-.03-.28-.11-.41-.07-.12-.2-.24-.38-.36l3.22-.03,2.56,6.9c.15.44.3.77.44,1,.14.23.36.47.64.73v.05h-3.99v-.05c.36-.2.54-.45.54-.75,0-.12,0-.22-.01-.28,0-.06-.04-.16-.09-.29l-.41-1.25h-2.62l-.38,1.11c-.03.11-.07.24-.11.38-.04.14-.06.26-.07.36,0,.14.04.27.12.38.08.11.2.23.37.35v.05h-2.7v-.05c.27-.23.5-.53.67-.9.09-.19.22-.53.38-1.03ZM197.9,53.34h1.81s-.92-2.63-.92-2.63l-.89,2.63Z"></path>
    <path class="uuid-bd168b51-43d3-4f36-ad92-60d11633c2b5" d="M206.01,55.52v-5.54c-.11-.02-.24-.03-.38-.04-.14,0-.22-.01-.25-.01-.27,0-.55.06-.83.17-.21.08-.47.22-.78.4l.53-2.02.25.04h6.12l-.46,1.98c-.1-.2-.26-.35-.47-.43-.22-.09-.46-.13-.71-.13-.19,0-.38.03-.57.08v5.52c0,.43.05.77.14,1,.09.24.24.45.45.62v.05h-3.57v-.05c.22-.12.36-.3.43-.52.07-.22.11-.5.11-.81v-.29Z"></path>
    <path class="uuid-bd168b51-43d3-4f36-ad92-60d11633c2b5" d="M213.44,55.91v-2.65l-1.99-3.76c-.16-.29-.29-.5-.39-.61-.1-.12-.24-.23-.41-.34l3.06-.03,1.53,3.15.76-1.54c.08-.2.14-.38.19-.53.05-.15.07-.27.07-.37,0-.15-.03-.28-.09-.39-.06-.11-.16-.21-.3-.28l2.39-.03-2.39,4.74v2.21c0,.35.03.63.08.83.09.33.26.61.51.84v.05h-3.6v-.05c.2-.11.35-.29.43-.51.09-.23.13-.47.13-.73Z"></path>
    <path class="uuid-bd168b51-43d3-4f36-ad92-60d11633c2b5" d="M221.55,55.96c0,.28.04.52.13.73.09.2.23.36.43.46v.05h-3.56v-.05c.21-.12.36-.29.43-.51.08-.22.12-.44.12-.67v-5.95c0-.39-.03-.67-.08-.84-.08-.26-.24-.46-.47-.62l3.56-.03c-.2.13-.35.31-.43.55-.09.23-.13.46-.13.67v2.71s1.67-2.11,1.67-2.11c.11-.14.23-.29.34-.44.15-.22.22-.42.22-.61,0-.15-.04-.29-.11-.41-.07-.12-.21-.23-.4-.33l3.24-.03-2.91,3.53,2.45,3.86c.11.19.23.37.34.55.19.28.4.51.63.69v.05h-.82c-1.05,0-1.76-.07-2.12-.2-.36-.14-.69-.47-1-1.01l-1.54-2.65v2.62Z"></path>
    <path class="uuid-bd168b51-43d3-4f36-ad92-60d11633c2b5" d="M227.86,55.55v-5.28c0-.54-.03-.92-.09-1.13-.06-.21-.21-.41-.45-.6l3.52-.03c-.25.2-.4.41-.45.61-.06.21-.09.55-.09,1.03v5.44c0,.48.03.82.11,1.02.07.2.22.38.43.55l-3.52.03c.25-.19.4-.41.47-.69.04-.17.07-.49.07-.96Z"></path>
    <path class="uuid-bd168b51-43d3-4f36-ad92-60d11633c2b5" d="M241.85,57.2l3.94-7.41-1.16-.04c-.37,0-.74.06-1.11.17-.37.11-.73.27-1.07.48l.7-1.88h6.05l-3.89,7.3c.26,0,.6.02,1,.06.4.04.65.06.75.06.48,0,.92-.06,1.3-.17.38-.11.82-.33,1.33-.65l-.73,2.08h-7.1Z"></path>
    <path class="uuid-bd168b51-43d3-4f36-ad92-60d11633c2b5" d="M250.78,55.23l1.78-5.13s.04-.14.09-.33c.05-.18.08-.34.08-.46,0-.15-.03-.28-.11-.41-.07-.12-.2-.24-.38-.36l3.22-.03,2.56,6.9c.15.44.3.77.44,1,.14.23.36.47.64.73v.05h-3.99v-.05c.36-.2.54-.45.54-.75,0-.12,0-.22-.01-.28,0-.06-.04-.16-.09-.29l-.41-1.25h-2.62l-.38,1.11c-.03.11-.07.24-.11.38-.04.14-.06.26-.07.36,0,.14.04.27.12.38.08.11.2.23.37.35v.05h-2.7v-.05c.27-.23.5-.53.67-.9.09-.19.22-.53.38-1.03ZM252.89,53.34h1.81s-.92-2.63-.92-2.63l-.89,2.63Z"></path>
    <path class="uuid-bd168b51-43d3-4f36-ad92-60d11633c2b5" d="M262.74,53.47v2.44c0,.33.05.6.14.79.1.19.24.34.42.45v.05h-3.54v-.05c.22-.12.36-.29.43-.5.07-.21.11-.45.11-.72v-5.98c0-.38-.03-.67-.09-.87-.06-.2-.21-.38-.45-.54l4.3-.03c.75,0,1.35.19,1.81.58.49.42.74,1,.74,1.74,0,.33-.08.65-.25.95-.26.46-.68.84-1.29,1.14l1.7,2.88c.19.29.33.5.42.61.23.3.46.54.69.73l-1.49.11h-.73c-.33,0-.6-.06-.8-.17-.2-.11-.38-.33-.55-.66l-1.57-2.95ZM262.74,52.78c.42-.06.76-.24,1.03-.54.26-.3.39-.65.39-1.06s-.1-.73-.3-.98c-.24-.28-.58-.42-1.01-.42h-.11v3.01Z"></path>
    <path class="uuid-bd168b51-43d3-4f36-ad92-60d11633c2b5" d="M267.81,57.2l3.94-7.41-1.16-.04c-.37,0-.74.06-1.11.17-.37.11-.73.27-1.07.48l.7-1.88h6.05l-3.89,7.3c.26,0,.6.02,1,.06.4.04.65.06.75.06.48,0,.92-.06,1.3-.17.38-.11.82-.33,1.32-.65l-.73,2.08h-7.1Z"></path>
    <path class="uuid-bd168b51-43d3-4f36-ad92-60d11633c2b5" d="M276.74,55.23l1.78-5.13s.04-.14.09-.33c.05-.18.08-.34.08-.46,0-.15-.03-.28-.11-.41-.07-.12-.2-.24-.38-.36l3.22-.03,2.56,6.9c.15.44.3.77.44,1,.14.23.36.47.64.73v.05h-3.99v-.05c.36-.2.54-.45.54-.75,0-.12,0-.22-.01-.28,0-.06-.04-.16-.09-.29l-.41-1.25h-2.62l-.38,1.11c-.03.11-.07.24-.11.38-.04.14-.06.26-.07.36,0,.14.04.27.12.38.08.11.2.23.37.35v.05h-2.7v-.05c.27-.23.5-.53.67-.9.09-.19.22-.53.38-1.03ZM278.85,53.34h1.81s-.92-2.63-.92-2.63l-.89,2.63Z"></path>
    <path class="uuid-bd168b51-43d3-4f36-ad92-60d11633c2b5" d="M289.43,48.52c1.37,0,2.47.39,3.29,1.16.83.77,1.24,1.8,1.24,3.06s-.34,2.24-1.01,3.04c-.81.95-1.99,1.42-3.54,1.42h-3.95v-.05c.25-.16.41-.35.47-.57.06-.22.09-.59.09-1.1v-5.65c0-.26-.03-.49-.08-.66-.09-.3-.25-.51-.49-.62l3.98-.03ZM288.46,55.79c.08.02.2.04.36.06.16.02.31.04.44.06.69,0,1.23-.27,1.6-.82.37-.54.56-1.29.56-2.24,0-1.04-.22-1.81-.66-2.31-.37-.42-.87-.63-1.5-.63-.12,0-.22,0-.29.01-.07,0-.24.04-.51.09v5.78Z"></path>
    <path class="uuid-bd168b51-43d3-4f36-ad92-60d11633c2b5" d="M294.31,57.2l3.94-7.41-1.16-.04c-.37,0-.74.06-1.11.17-.37.11-.73.27-1.07.48l.7-1.88h6.05l-3.89,7.3c.26,0,.6.02,1,.06.4.04.65.06.75.06.48,0,.92-.06,1.3-.17.38-.11.82-.33,1.32-.65l-.73,2.08h-7.1Z"></path>
    <path class="uuid-bd168b51-43d3-4f36-ad92-60d11633c2b5" d="M303.5,55.23l1.78-5.13s.04-.14.09-.33c.05-.18.08-.34.08-.46,0-.15-.03-.28-.11-.41-.07-.12-.2-.24-.38-.36l3.22-.03,2.56,6.9c.15.44.3.77.44,1,.14.23.36.47.64.73v.05h-3.99v-.05c.36-.2.54-.45.54-.75,0-.12,0-.22-.01-.28,0-.06-.04-.16-.09-.29l-.41-1.25h-2.62l-.38,1.11c-.04.11-.07.24-.11.38-.04.14-.06.26-.07.36,0,.14.04.27.12.38.08.11.2.23.37.35v.05h-2.7v-.05c.27-.23.5-.53.67-.9.09-.19.22-.53.38-1.03ZM305.61,53.34h1.81s-.92-2.63-.92-2.63l-.89,2.63Z"></path>
    <path class="uuid-bd168b51-43d3-4f36-ad92-60d11633c2b5" d="M312.95,55.61v-4.95c0-.56-.05-.97-.14-1.21-.1-.24-.3-.53-.62-.88v-.05h2.75l4.03,5.34v-3.61c0-.36-.02-.63-.07-.82-.08-.34-.25-.63-.5-.89l-.03-.03h2.56c-.2.2-.35.44-.45.71-.1.27-.15.55-.15.84v7.42h-.05c-.32,0-.74-.12-1.27-.37-.69-.33-1.23-.74-1.62-1.25l-3.03-4.06h-.05v3.81c0,.37.05.67.15.92.1.24.25.45.44.63v.05h-2.56v-.05c.19-.16.34-.36.44-.6.1-.24.15-.56.15-.94Z"></path>
    <path class="uuid-bd168b51-43d3-4f36-ad92-60d11633c2b5" d="M322.1,55.55v-5.28c0-.54-.03-.92-.09-1.13-.06-.21-.21-.41-.45-.6l3.52-.03c-.25.2-.4.41-.45.61-.06.21-.09.55-.09,1.03v5.44c0,.48.03.82.11,1.02.07.2.22.38.43.55l-3.52.03c.25-.19.4-.41.47-.69.04-.17.07-.49.07-.96Z"></path>
    <path class="uuid-bd168b51-43d3-4f36-ad92-60d11633c2b5" d="M326.58,55.23l1.78-5.13s.04-.14.09-.33c.05-.18.08-.34.08-.46,0-.15-.03-.28-.11-.41-.07-.12-.2-.24-.38-.36l3.22-.03,2.56,6.9c.15.44.3.77.44,1,.14.23.36.47.64.73v.05h-3.99v-.05c.36-.2.54-.45.54-.75,0-.12,0-.22-.01-.28,0-.06-.04-.16-.09-.29l-.41-1.25h-2.62l-.38,1.11c-.03.11-.07.24-.11.38-.04.14-.06.26-.07.36,0,.14.04.27.12.38.08.11.2.23.37.35v.05h-2.7v-.05c.27-.23.5-.53.67-.9.09-.19.22-.53.38-1.03ZM328.68,53.34h1.81s-.92-2.63-.92-2.63l-.89,2.63Z"></path>
    <path class="uuid-bd168b51-43d3-4f36-ad92-60d11633c2b5" d="M145.11,71.26v-.05l3.65-5.05c-.17-.02-.44-.04-.81-.07-.37-.03-.63-.04-.78-.04-.33,0-.63.04-.88.11-.25.07-.5.19-.74.37l.62-1.34h4.69v.05s-3.48,4.99-3.48,4.99c.31,0,.62.02.95.05.81.09,1.22.13,1.24.13.32,0,.63-.04.91-.13.28-.09.6-.24.95-.46l-.7,1.44h-5.61Z"></path>
    <path class="uuid-bd168b51-43d3-4f36-ad92-60d11633c2b5" d="M155.37,66.78c0-.63.29-1.1.87-1.4.46-.24,1.05-.36,1.78-.36.33,0,.59.01.8.03.21.02.42.06.63.13v1.13c-.49-.27-1.04-.41-1.68-.41-.37,0-.66.05-.87.17-.21.11-.32.28-.32.51.04.27.33.5.87.7,1.09.39,1.65.59,1.67.61.31.15.56.35.74.6.19.25.28.54.28.86,0,.69-.33,1.22-.99,1.59-.55.32-1.2.47-1.94.47-.64,0-1.23-.11-1.75-.32l-.43-1.28c.33.23.71.41,1.15.54.44.13.86.2,1.27.2.43,0,.78-.07,1.06-.2.27-.13.42-.33.45-.59,0-.28-.13-.51-.4-.7-.08-.06-.66-.29-1.73-.7-.47-.18-.81-.37-1.02-.57-.3-.27-.45-.62-.45-1.03Z"></path>
    <path class="uuid-bd168b51-43d3-4f36-ad92-60d11633c2b5" d="M161.34,70.18v-3.87c0-.27-.02-.46-.05-.57-.07-.21-.22-.37-.43-.49v-.05h.7c.48,0,.8-.08.95-.24h.05v4.94c0,.4.02.68.07.86.05.18.2.32.44.43l-.03.05h-2.19v-.05c.2-.11.33-.25.39-.42.06-.17.09-.37.09-.6ZM161.88,62.75c.23,0,.42.08.59.24.16.16.24.35.24.57,0,.24-.08.43-.24.59-.16.16-.36.24-.59.24s-.42-.08-.58-.24c-.16-.16-.24-.36-.24-.59,0-.21.08-.4.24-.57.16-.17.35-.25.58-.25Z"></path>
    <path class="uuid-bd168b51-43d3-4f36-ad92-60d11633c2b5" d="M163.91,68.18c0-.85.27-1.57.8-2.16.61-.68,1.45-1.01,2.52-1.01.83,0,1.52.27,2.09.82.57.55.85,1.28.85,2.19h-4.84c0,.61.17,1.15.5,1.6.42.56,1.03.87,1.82.95h.33c.36,0,.73-.06,1.12-.17.39-.11.73-.29,1.04-.51l-.62,1.23c-.3.11-.6.2-.9.26s-.61.09-.92.09c-1.03,0-1.9-.27-2.61-.82-.79-.61-1.19-1.42-1.19-2.45ZM165.39,67.24h3.41c-.04-.44-.22-.78-.54-1.01-.32-.23-.69-.35-1.12-.35s-.83.12-1.16.36c-.33.24-.53.57-.59,1Z"></path>
    <path class="uuid-bd168b51-43d3-4f36-ad92-60d11633c2b5" d="M170.74,68.18c0-.76.26-1.45.79-2.07.62-.72,1.43-1.08,2.44-1.08.33,0,.67.06.99.18.33.12.65.31.95.57v-2.16c0-.26-.02-.43-.05-.51-.06-.17-.22-.33-.46-.49l1.05-.03c.13,0,.24-.02.35-.05.11-.03.19-.1.25-.19l.03,7.56v.34c0,.21.03.39.11.55.07.15.22.29.43.4v.05h-1.7v-3.45c0-.63-.19-1.12-.57-1.46-.33-.31-.77-.46-1.29-.46s-.98.19-1.36.58c-.41.42-.62.99-.62,1.71s.24,1.3.71,1.75c.44.42.97.63,1.58.63.44,0,.83-.13,1.19-.38l-.8,1.19c-.16.03-.27.04-.33.05-.06,0-.18,0-.34,0-.85,0-1.58-.22-2.17-.66-.78-.57-1.17-1.43-1.17-2.58Z"></path>
    <path class="uuid-bd168b51-43d3-4f36-ad92-60d11633c2b5" d="M178.05,71.26v-.05l3.65-5.05c-.17-.02-.44-.04-.81-.07-.37-.03-.63-.04-.78-.04-.33,0-.63.04-.88.11-.25.07-.5.19-.74.37l.62-1.34h4.69v.05s-3.48,4.99-3.48,4.99c.31,0,.62.02.95.05.81.09,1.22.13,1.24.13.32,0,.63-.04.91-.13.28-.09.6-.24.95-.46l-.7,1.44h-5.61Z"></path>
    <path class="uuid-bd168b51-43d3-4f36-ad92-60d11633c2b5" d="M185.07,70.18v-3.87c0-.27-.02-.46-.05-.57-.07-.21-.22-.37-.43-.49v-.05h.7c.48,0,.8-.08.95-.24h.05v4.94c0,.4.02.68.07.86.05.18.2.32.44.43l-.03.05h-2.19v-.05c.2-.11.33-.25.39-.42.06-.17.09-.37.09-.6ZM185.61,62.75c.23,0,.42.08.59.24.16.16.24.35.24.57,0,.24-.08.43-.24.59-.16.16-.36.24-.59.24s-.42-.08-.58-.24c-.16-.16-.24-.36-.24-.59,0-.21.08-.4.24-.57.16-.17.35-.25.58-.25Z"></path>
    <path class="uuid-bd168b51-43d3-4f36-ad92-60d11633c2b5" d="M188.24,70.26v-6.56c0-.29-.03-.51-.09-.67-.06-.15-.19-.29-.39-.42l1-.03c.33,0,.54-.08.65-.24l.03,7.99c.29.08.51.13.66.16.15.03.29.04.42.04.67,0,1.2-.18,1.59-.54.47-.43.7-1.07.7-1.92,0-.71-.21-1.25-.63-1.61-.35-.3-.79-.45-1.32-.45-.22,0-.43.02-.63.07-.2.05-.36.12-.48.2l.69-1.13c.15-.03.31-.06.49-.09.18-.03.33-.04.47-.04.83,0,1.49.3,2,.91.51.61.76,1.38.76,2.33s-.35,1.71-1.05,2.3c-.7.58-1.64.87-2.81.87-.43,0-.87-.03-1.33-.09-.37-.06-.73-.12-1.09-.17.15-.08.25-.2.3-.35.05-.15.08-.31.08-.47v-.11Z"></path>
    <path class="uuid-bd168b51-43d3-4f36-ad92-60d11633c2b5" d="M200.28,71.42c-.24.24-.39.44-.45.6-.06.16-.09.38-.09.66,0,.07.05.15.14.25.1.1.2.14.32.14.35,0,.63-.06.84-.18l-.21.6c-.23.12-.47.18-.74.18-.33,0-.6-.09-.84-.27-.23-.18-.35-.42-.35-.71s.07-.58.2-.81c.14-.24.31-.42.52-.54-.74-.18-1.11-.62-1.11-1.32v-2.06c-.27.15-.7.29-1.29.44-.87.2-1.3.56-1.3,1.08,0,.34.13.61.38.8.25.19.59.28,1.01.28.14,0,.3-.02.47-.05.17-.03.35-.07.53-.13l-.78.98c-.16.02-.27.03-.34.04-.07,0-.18.01-.32.01-.69,0-1.23-.17-1.65-.52-.41-.35-.62-.77-.62-1.29,0-.4.11-.74.33-1,.18-.22.46-.42.84-.59.03-.02.59-.16,1.66-.43.38-.1.66-.21.84-.34.05-.04.11-.11.16-.21.05-.11.08-.22.08-.33,0-.26-.15-.47-.46-.62-.24-.11-.5-.17-.8-.17s-.63.06-.98.17c-.23.08-.49.19-.79.34l.86-1.32c.06,0,.2-.01.41-.04.21-.03.37-.04.47-.04.73,0,1.31.15,1.74.45.51.35.76.87.76,1.58v2.3c0,.43.08.74.24.93.16.19.46.28.89.28l-.59.86Z"></path>
    <path class="uuid-bd168b51-43d3-4f36-ad92-60d11633c2b5" d="M205.95,70.19l-1.5-3.92c-.16-.35-.24-.54-.25-.55-.11-.2-.27-.36-.47-.48v-.05h.83c.11,0,.22-.02.36-.03.13-.02.25-.06.36-.12h.05c.02.17.03.28.05.34.01.06.04.14.09.22l1.57,4.13,1.27-3.22c.03-.11.07-.23.12-.37.04-.14.06-.27.06-.38,0-.22-.12-.39-.37-.51v-.05h1.75l-.03.18c.02.11.06.27.14.48.07.21.16.43.25.65l1.15,3.22,1.27-3.14c.04-.12.09-.26.14-.39.05-.14.07-.26.07-.36,0-.26-.14-.45-.42-.59v-.05h1.78l-2.62,6.31c-.21-.12-.42-.24-.62-.36-.25-.18-.43-.47-.57-.86l-1.29-3.4-1.79,4.61c-.45-.18-.77-.39-.98-.63-.13-.15-.26-.37-.39-.68Z"></path>
    <path class="uuid-bd168b51-43d3-4f36-ad92-60d11633c2b5" d="M218.65,69.4v-5.06c0-.55-.02-.92-.06-1.09-.08-.3-.24-.5-.5-.61v-.05h3.08c.92,0,1.63.23,2.11.7.43.41.65.96.65,1.65-.05.46-.24.86-.55,1.21-.36.39-.87.69-1.53.9l2.02,2.52c.13.18.34.4.63.66.4.36.85.71,1.37,1.04h-1.35c-.35,0-.64-.06-.85-.19-.22-.13-.42-.32-.61-.58l-1.54-1.9-1.21-1.83c.63-.1,1.15-.28,1.54-.57.5-.36.75-.83.75-1.41,0-.47-.18-.83-.55-1.07-.31-.2-.71-.3-1.2-.3-.17,0-.3,0-.39.02-.09.01-.24.04-.45.09v5.92c0,.61.03,1.02.1,1.25.07.23.23.41.48.55l-2.49.03v-.05c.25-.1.41-.28.47-.56.06-.28.09-.69.09-1.25Z"></path>
    <path class="uuid-bd168b51-43d3-4f36-ad92-60d11633c2b5" d="M225.17,71.26v-.05l3.65-5.05c-.17-.02-.44-.04-.81-.07-.37-.03-.63-.04-.78-.04-.33,0-.63.04-.88.11-.25.07-.5.19-.74.37l.62-1.34h4.69v.05s-3.48,4.99-3.48,4.99c.31,0,.62.02.95.05.81.09,1.22.13,1.24.13.32,0,.63-.04.91-.13.28-.09.6-.24.95-.46l-.7,1.44h-5.61Z"></path>
    <path class="uuid-bd168b51-43d3-4f36-ad92-60d11633c2b5" d="M231.6,68.18c0-.85.27-1.57.8-2.16.61-.68,1.45-1.01,2.52-1.01.83,0,1.52.27,2.09.82.57.55.85,1.28.85,2.19h-4.84c0,.61.17,1.15.5,1.6.42.56,1.03.87,1.82.95h.33c.36,0,.73-.06,1.12-.17.39-.11.73-.29,1.04-.51l-.62,1.23c-.3.11-.6.2-.9.26-.3.06-.61.09-.92.09-1.03,0-1.9-.27-2.61-.82-.79-.61-1.19-1.42-1.19-2.45ZM233.08,67.24h3.41c-.04-.44-.22-.78-.54-1.01-.32-.23-.69-.35-1.12-.35s-.83.12-1.16.36c-.33.24-.53.57-.59,1Z"></path>
    <path class="uuid-bd168b51-43d3-4f36-ad92-60d11633c2b5" d="M238.61,66.78c0-.63.29-1.1.87-1.4.46-.24,1.05-.36,1.78-.36.33,0,.59.01.8.03.21.02.42.06.63.13v1.13c-.49-.27-1.04-.41-1.68-.41-.37,0-.66.05-.87.17-.21.11-.32.28-.32.51.04.27.33.5.87.7,1.09.39,1.65.59,1.67.61.31.15.56.35.74.6.19.25.28.54.28.86,0,.69-.33,1.22-.99,1.59-.55.32-1.2.47-1.94.47-.64,0-1.23-.11-1.75-.32l-.43-1.28c.33.23.71.41,1.15.54.44.13.86.2,1.27.2.43,0,.78-.07,1.06-.2.27-.13.42-.33.45-.59,0-.28-.13-.51-.4-.7-.08-.06-.66-.29-1.73-.7-.47-.18-.81-.37-1.02-.57-.3-.27-.45-.62-.45-1.03Z"></path>
    <path class="uuid-bd168b51-43d3-4f36-ad92-60d11633c2b5" d="M243.63,71.26v-.05l3.65-5.05c-.17-.02-.44-.04-.81-.07-.37-.03-.63-.04-.78-.04-.33,0-.63.04-.88.11-.25.07-.5.19-.74.37l.62-1.34h4.69v.05s-3.48,4.99-3.48,4.99c.31,0,.62.02.95.05.81.09,1.22.13,1.24.13.32,0,.63-.04.91-.13.28-.09.6-.24.95-.46l-.7,1.44h-5.61Z"></path>
    <path class="uuid-bd168b51-43d3-4f36-ad92-60d11633c2b5" d="M250.03,68.24c0-.86.28-1.59.83-2.19.63-.69,1.51-1.03,2.65-1.03.9,0,1.66.28,2.28.83.68.6,1.01,1.37,1.01,2.32s-.34,1.67-1.02,2.3c-.68.63-1.48.94-2.4.94-1.04,0-1.87-.33-2.49-.98-.57-.6-.86-1.33-.86-2.2ZM251.38,68.07c0,.69.19,1.29.57,1.78.38.49.86.74,1.43.74h.11c.63,0,1.13-.23,1.49-.69.32-.41.47-.91.47-1.51,0-.66-.18-1.24-.55-1.72-.4-.52-.91-.78-1.54-.78-.47,0-.88.14-1.24.44-.49.39-.74.98-.74,1.75Z"></path>
    <path class="uuid-bd168b51-43d3-4f36-ad92-60d11633c2b5" d="M258.92,70.19l-1.5-3.92c-.16-.35-.24-.54-.25-.55-.11-.2-.27-.36-.47-.48v-.05h.83c.11,0,.22-.02.36-.03.13-.02.25-.06.36-.12h.05c.02.17.03.28.05.34.01.06.04.14.09.22l1.57,4.13,1.27-3.22c.03-.11.07-.23.12-.37.04-.14.06-.27.06-.38,0-.22-.12-.39-.37-.51v-.05h1.75l-.03.18c.02.11.06.27.14.48.07.21.16.43.25.65l1.15,3.22,1.27-3.14c.04-.12.09-.26.14-.39.05-.14.07-.26.07-.36,0-.26-.14-.45-.42-.59v-.05h1.78l-2.62,6.31c-.21-.12-.42-.24-.62-.36-.25-.18-.44-.47-.57-.86l-1.29-3.4-1.79,4.61c-.45-.18-.77-.39-.98-.63-.13-.15-.26-.37-.39-.68Z"></path>
    <path class="uuid-bd168b51-43d3-4f36-ad92-60d11633c2b5" d="M268.05,70.18v-3.87c0-.27-.02-.46-.05-.57-.07-.21-.22-.37-.43-.49v-.05h.7c.48,0,.8-.08.95-.24h.05v4.94c0,.4.02.68.07.86.05.18.2.32.44.43l-.03.05h-2.19v-.05c.2-.11.33-.25.39-.42.06-.17.09-.37.09-.6ZM268.59,62.75c.23,0,.42.08.59.24.16.16.24.35.24.57,0,.24-.08.43-.24.59-.16.16-.36.24-.59.24s-.42-.08-.58-.24c-.16-.16-.24-.36-.24-.59,0-.21.08-.4.24-.57.16-.17.35-.25.58-.25Z"></path>
    <path class="uuid-bd168b51-43d3-4f36-ad92-60d11633c2b5" d="M270.62,68.18c0-.85.27-1.57.8-2.16.61-.68,1.45-1.01,2.52-1.01.83,0,1.52.27,2.09.82.57.55.85,1.28.85,2.19h-4.84c0,.61.17,1.15.5,1.6.42.56,1.03.87,1.82.95h.33c.36,0,.73-.06,1.12-.17.39-.11.73-.29,1.04-.51l-.62,1.23c-.3.11-.6.2-.9.26s-.61.09-.92.09c-1.03,0-1.9-.27-2.61-.82-.79-.61-1.19-1.42-1.19-2.45ZM272.09,67.24h3.41c-.04-.44-.22-.78-.54-1.01-.32-.23-.69-.35-1.12-.35s-.83.12-1.16.36c-.33.24-.53.57-.59,1Z"></path>
    <path class="uuid-bd168b51-43d3-4f36-ad92-60d11633c2b5" d="M284.53,56.79c-.29.39-.56.8-.66,1.09-.36.94.42,1.24.97,1.24s.81-.08.81-.08l-.57,1.17s-.25.07-.64.07c-.86,0-2.15-.19-2.15-1.56,0-1.02.78-1.7,1.07-1.91h1.18Z"></path>
    <path class="uuid-bd168b51-43d3-4f36-ad92-60d11633c2b5" d="M235.9,56.05v-3.19c0-.23-.02-.42-.07-.57-.05-.16-.18-.33-.39-.51v-.05h1.78c.23,0,.41-.01.53-.03.12-.02.25-.07.39-.15h.05v4.56c0,.3.03.53.09.68.06.15.18.31.38.46v.05h-3.22v-.05c.2-.17.33-.34.38-.52.05-.18.08-.4.08-.67ZM236.96,48.43c.33,0,.62.12.86.37.24.25.37.54.37.9s-.12.64-.36.89c-.24.25-.53.37-.87.37s-.64-.12-.89-.37c-.24-.25-.37-.55-.37-.9s.12-.65.37-.9c.24-.25.54-.37.89-.37Z"></path>
    <path class="uuid-e7bb4bd7-2623-480f-a3bf-aa0971350f0b" d="M46.14,37.44c-3.09-2.43-7.48-4.12-12.45-5.14L53.34.76l-43.64-.11L3.71,13.56h.47c2.71-1.96,5.05-3.28,7.21-3.84,2.06-.66,5.42-1.15,7.53-1.03.28.01,12.93.15,16.02.15l-18.75,29.91c1.22-.09,2.16-.18,2.71-.28.85-.09,2.06-.09,3.46-.09,1.31,0,2.62.09,3.84.19,3.37.47,6.18,1.4,8.52,2.8,3.83,2.43,5.71,6.08,5.71,10.95,0,4.31-1.87,7.95-5.62,10.95-3.74,3-8.52,4.5-14.32,4.5s-12.73-1.87-20.03-5.62l-.47-.18,5.52,13.56c.75,0,2.81.19,6.27.47,3.46.27,5.52.47,6.18.47,8.42,0,15.82-1.5,22.18-4.5,8.79-4.11,13.19-10.57,13.19-19.18,0-6.55-2.34-11.61-7.21-15.35Z"></path>
  </g>
</svg>
