<?xml version="1.0" encoding="utf-8"?>
<!-- Generator: Adobe Illustrator 15.1.0, SVG Export Plug-In . SVG Version: 6.00 Build 0)  -->
<!DOCTYPE svg PUBLIC "-//W3C//DTD SVG 1.1//EN" "http://www.w3.org/Graphics/SVG/1.1/DTD/svg11.dtd">
<svg version="1.1" id="logo" xmlns="http://www.w3.org/2000/svg" xmlns:xlink="http://www.w3.org/1999/xlink" x="0px" y="0px"
	 width="144.105px" height="28.588px" viewBox="0 0 144.105 28.588" enable-background="new 0 0 144.105 28.588"
	 xml:space="preserve">
<g>
	<g>
		<polygon fill="#DA2128" points="14.293,12.563 13.242,13.36 13.242,16.872 14.293,15.984 		"/>
		<path fill="#DA2128" d="M15.883,13.415l-1.139-0.874v3.392c0.241,0.206,0.675,0.576,1.139,0.97V13.415z"/>
		<path fill="#DA2128" d="M16.333,13.759v3.526c0.363,0.309,0.71,0.603,0.96,0.816v-3.605L16.333,13.759z"/>
		<polygon fill="#DA2128" points="12.792,13.701 11.775,14.472 11.775,18.112 12.792,17.253 		"/>
		<polygon fill="#DA2128" points="14.543,16.543 14.479,16.597 11.775,18.874 11.754,21.76 17.293,21.76 17.293,18.874 
			14.549,16.548 		"/>
	</g>
	<g>
		<path fill="#58595B" d="M20.387,0.269c-0.827,0-1.782,0.388-2.631,1.068V0.044V0h-0.045h-6.338h-0.044v0.044v1.223
			c-0.894-0.822-2.071-0.998-2.911-0.998H0.102H0.056v0.045v0.021C0.041,7.922,0.041,15.634,0.041,23.094v0.015l0.01,0.019
			c0.568,0.871,1.159,1.76,1.729,2.618l0.165,0.247l0.166,0.248l0.008,0.011l0.011,0.017L2.15,26.27l0.011,0.001
			c0.353,0.009,0.743,0.013,1.196,0.013c0.256,0,0.517,0,0.774-0.002l0.402-0.003l0.213-0.002c0.313-0.003,0.632-0.006,0.946-0.006
			c2.121,0,3.877,0.117,5.555,0.688c1.097,0.422,1.773,0.867,2.752,1.433l0.014,0.01l0.26,0.149l0.067,0.038v-0.077v-0.036
			c-0.017-1.651-0.017-3.327-0.017-4.951h0.47v4.986v0.073l0.065-0.033l0.031-0.015c0.128-0.069,0.249-0.135,0.363-0.198
			c0.088-0.047,1.862-1.063,2.551-1.264c2.438-0.749,4.166-0.812,6.015-0.812c0.321,0,0.646,0.003,0.994,0.006l0.331,0.002
			c0.283,0.002,0.576,0.004,0.879,0.004c0.19,0,0.385-0.001,0.587-0.003h0.01h0.023l0.014-0.02l0.117-0.153
			c0.785-1.027,1.525-1.996,2.283-2.963l0.003-0.004l0.002-0.005l0.005-0.01l0.003-0.016V0.313V0.269h-0.046H20.387z M14.638,2.922
			c0,0,1.656-0.974,2.249-1.33v2.672C16.179,3.847,15.424,3.396,14.638,2.922z M15.881,5.27h-2.679
			c0.473-0.8,0.913-1.541,1.348-2.261C14.935,3.67,15.881,5.27,15.881,5.27z M15.882,0.577c-0.392,0.666-1.333,2.257-1.333,2.257
			c-0.42-0.686-0.851-1.404-1.349-2.257H15.882z M12.18,1.592c0.801,0.479,1.542,0.914,2.266,1.33
			C14.109,3.121,12.6,4.016,12.18,4.264V1.592z M28.557,22.638c-0.806,0.063-1.627,0.1-2.423,0.14l-0.033,0.002
			c-1.933,0.092-3.932,0.185-5.82,0.592c-2.058,0.444-3.651,1.225-5.089,2.387v-2.602v-0.045h-0.045h-1.159h-0.045v0.045v2.596
			c-1.73-1.336-3.726-2.211-6.3-2.67c-2.305-0.409-4.66-0.447-7.071-0.447V0.792h7.963c1.156,0.038,1.714,0.33,2.795,1.187v3.457
			v0.028l0.026,0.013c1.267,0.543,2.291,0.976,3.221,1.364l0.019,0.007l0.018-0.007c1.028-0.447,2.071-0.905,3.117-1.364
			l0.027-0.013V5.436V1.999c1.032-0.798,1.722-1.137,2.461-1.208l8.339,0.001V22.638z"/>
		<path fill="#58595B" d="M11.326,22.357h6.417V7.944h-6.417V22.357z M17.293,18.102c-0.25-0.214-0.597-0.508-0.96-0.816v-3.526
			l0.96,0.737V18.102z M11.775,8.395h5.518v5.532l-2.758-2.113l-2.76,2.094V8.395z M15.883,13.415v3.487
			c-0.463-0.394-0.898-0.764-1.139-0.97v-3.392L15.883,13.415z M14.293,12.563v3.422l-1.051,0.888V13.36L14.293,12.563z
			 M11.775,14.472l1.017-0.771v3.552l-1.017,0.859V14.472z M11.775,18.874l2.704-2.277l0.064-0.054l0.006,0.005l2.744,2.326v2.886
			h-5.539L11.775,18.874z"/>
		<path fill="#58595B" d="M18.615,5.667h4.125c-0.534,1.212-1.312,2.926-2.008,4.462l-0.122,0.27
			c-0.732,1.618-1.491,3.293-1.975,4.399l-0.02,0.042l-0.001,5.643h8.959V18.87l-0.013-0.143l-0.12-0.063
			c-1.51-0.793-3.138-1.658-4.846-2.571c1.105-1.097,2.046-2.398,2.774-3.821h0.006v-0.013c0.212-0.417,0.408-0.841,0.583-1.275
			c0.893-2.23,1.227-4.624,0.967-6.921L26.9,3.843h-8.285V5.667z M25.375,4.296h1.12c0.215,2.166-0.115,4.417-0.956,6.521
			c-0.051,0.127-0.109,0.252-0.164,0.379V4.296z M20.323,12.125c0.229-0.506,0.464-1.026,0.698-1.543l0.121-0.269
			c0.136-0.298,0.275-0.604,0.415-0.913v7.04c-0.263,0.233-0.61,0.537-1.004,0.865c-0.076,0.063-0.153,0.127-0.229,0.188V12.125z
			 M19.067,14.934c0.222-0.506,0.5-1.129,0.805-1.808v4.729c-0.314,0.248-0.6,0.467-0.806,0.619L19.067,14.934z M27.124,19.006
			v1.025h-8.059l0.001-0.996c0.168-0.123,0.671-0.497,1.237-0.945h0.02v-0.017c0.17-0.137,0.344-0.276,0.517-0.421
			c0.655-0.545,1.186-1.024,1.412-1.233C23.967,17.338,25.605,18.207,27.124,19.006z M23.242,14.706
			c-0.369,0.45-0.761,0.879-1.178,1.275c-0.001,0.001-0.022,0.02-0.056,0.051V8.406c0.463-1.026,0.904-2.009,1.234-2.762V14.706z
			 M23.692,4.61l0.138-0.314h1.096v7.854c-0.361,0.693-0.773,1.356-1.234,1.979V4.61z M19.065,4.296h4.274l-0.402,0.922h-3.872
			V4.296z"/>
		<path fill="#58595B" d="M8.408,5.913c0.645-0.284,1.666-0.26,1.675-0.259l0.234,0.006l-0.018-1.817H2.017l-0.025,0.22
			c-0.26,2.297,0.074,4.69,0.967,6.921c0.829,2.07,1.702,3.427,3.074,4.768v0.002c0.001,0.001,0.016,0.016,0.038,0.036
			c-0.412,0.74-1.029,1.692-1.833,2.12c-0.823,0.437-1.833,0.777-2.704,0.914l-0.191,0.029v1.63h8.959L10.3,14.84l-0.019-0.042
			c-0.484-1.106-1.241-2.781-1.975-4.399l-0.122-0.27c-0.35-0.774-0.722-1.591-1.072-2.368c0.021-0.17,0.109-0.697,0.399-1.099
			C7.717,6.376,7.927,6.124,8.408,5.913z M3.53,11.191c-0.051-0.123-0.103-0.248-0.153-0.375C2.535,8.713,2.206,6.462,2.42,4.296
			h1.11V11.191z M5.214,4.59v9.574c-0.463-0.6-0.863-1.245-1.232-1.989V4.296h1.104L5.214,4.59L5.214,4.59z M5.666,14.712V5.621
			c0.329,0.751,0.769,1.734,1.233,2.764v7.587c-0.102-0.099-0.393-0.389-0.393-0.389C6.202,15.294,5.925,15.006,5.666,14.712z
			 M9.034,13.104c0.31,0.688,0.591,1.317,0.815,1.83v3.544C9.641,18.319,9.351,18.1,9.034,17.85V13.104z M7.35,9.38
			c0.142,0.314,0.285,0.629,0.424,0.934l0.122,0.269c0.229,0.51,0.462,1.022,0.687,1.521v5.385c-0.068-0.056-0.137-0.113-0.206-0.17
			c-0.326-0.271-0.695-0.606-1.028-0.919V9.38z M8.089,17.664c0.165,0.138,0.332,0.272,0.494,0.403v0.022h0.028
			c0.557,0.442,1.057,0.813,1.239,0.949v0.992H1.792v-0.796c0.873-0.16,1.85-0.503,2.655-0.929c0.867-0.46,1.514-1.416,1.955-2.19
			C6.82,16.523,7.517,17.188,8.089,17.664z M6.807,7.083C6.517,6.437,6.251,5.841,6.039,5.352l-0.46-1.056h4.274l0.009,0.909
			C9.494,5.213,8.769,5.263,8.227,5.499c-0.584,0.257-0.854,0.585-1.081,0.9C6.988,6.618,6.88,6.861,6.807,7.083z"/>
		<path fill="#58595B" d="M35.713,2.531c0.015,0.041,0.068,0.217,0.159,0.529l0.854,2.911c0.086,0.303,0.285,0.55,0.598,0.741
			c0.201,0.121,0.476,0.229,0.824,0.325l0.779-3.024c0.106,0.307,0.262,0.814,0.469,1.523c0.171,0.583,0.375,0.95,0.612,1.101
			c0.121,0.081,0.245,0.15,0.371,0.208s0.302,0.122,0.529,0.192l1.55-5.081l-1.27,0.016c0.085,0.102,0.148,0.196,0.189,0.285
			s0.061,0.191,0.061,0.309c0,0.066-0.003,0.115-0.008,0.148c-0.005,0.033-0.016,0.093-0.032,0.179l-0.742,2.51
			c-0.608-2.141-0.912-3.222-0.912-3.242l0.045-0.204l-1.595,0.015c0.091,0.066,0.17,0.185,0.238,0.356s0.102,0.354,0.102,0.546
			c-0.005,0.03-0.063,0.271-0.174,0.72c-0.061,0.253-0.161,0.651-0.302,1.197c-0.056,0.212-0.108,0.422-0.159,0.629h-0.03
			l-0.756-2.856l-0.159-0.606h-1.641v0.03C35.484,2.108,35.617,2.29,35.713,2.531z"/>
		<path fill="#58595B" d="M43.007,2.518l1.144,2.158v1.521c0,0.146-0.025,0.285-0.076,0.417c-0.05,0.131-0.134,0.229-0.25,0.295
			v0.03h2.064v-0.03c-0.146-0.131-0.245-0.292-0.295-0.483c-0.03-0.116-0.045-0.275-0.045-0.477V4.679l1.369-2.722l-1.369,0.016
			c0.081,0.045,0.137,0.1,0.17,0.163c0.033,0.063,0.049,0.139,0.049,0.225c0,0.057-0.014,0.128-0.042,0.214s-0.065,0.188-0.11,0.305
			L45.18,3.765l-0.877-1.808l-1.755,0.015c0.101,0.062,0.179,0.125,0.237,0.193C42.843,2.233,42.917,2.351,43.007,2.518z"/>
		<path fill="#58595B" d="M48.505,2.668l0.666,0.022L46.91,6.939h4.075l0.416-1.194c-0.288,0.182-0.541,0.305-0.76,0.37
			s-0.467,0.099-0.745,0.099c-0.055,0-0.199-0.012-0.431-0.034c-0.232-0.022-0.423-0.034-0.575-0.034l2.23-4.188h-3.471l-0.4,1.081
			c0.196-0.118,0.402-0.21,0.616-0.273C48.081,2.7,48.294,2.668,48.505,2.668z"/>
		<path fill="#58595B" d="M49.284,1.541c0.197,0,0.364-0.071,0.503-0.215c0.139-0.145,0.208-0.314,0.208-0.511
			c0-0.201-0.071-0.373-0.212-0.515C49.642,0.16,49.476,0.09,49.284,0.09c-0.202,0-0.373,0.07-0.514,0.211
			c-0.141,0.142-0.211,0.313-0.211,0.515s0.07,0.373,0.211,0.514C48.911,1.471,49.083,1.541,49.284,1.541z"/>
		<path fill="#58595B" d="M53.75,6.142c-0.144,0.083-0.326,0.125-0.546,0.125c-0.267,0-0.546-0.055-0.84-0.164
			s-0.544-0.254-0.75-0.434l0.25,1.091c0.196,0.08,0.422,0.146,0.677,0.199c0.254,0.053,0.515,0.079,0.782,0.079
			c0.534,0,0.98-0.106,1.338-0.317c0.434-0.257,0.678-0.644,0.733-1.162V5.393c0-0.297-0.081-0.559-0.241-0.785
			c-0.191-0.271-0.53-0.528-1.017-0.77c-0.166-0.065-0.33-0.134-0.49-0.204c-0.352-0.156-0.527-0.335-0.527-0.536
			C53.193,2.766,53.414,2.6,53.781,2.6c0.156,0,0.324,0.029,0.502,0.087c0.179,0.058,0.366,0.147,0.563,0.269V2.063
			c-0.262-0.096-0.483-0.156-0.665-0.181C54,1.856,53.806,1.844,53.6,1.844c-0.539,0-0.982,0.118-1.33,0.354
			c-0.348,0.236-0.539,0.566-0.574,0.989c0,0.417,0.11,0.76,0.332,1.026c0.196,0.236,0.518,0.455,0.965,0.656
			c0.356,0.166,0.58,0.282,0.67,0.348c0.221,0.155,0.332,0.34,0.332,0.551C53.974,5.935,53.893,6.06,53.75,6.142z"/>
		<path fill="#58595B" d="M59.604,6.939l0.416-1.194c-0.288,0.182-0.541,0.305-0.76,0.37s-0.467,0.099-0.745,0.099
			c-0.055,0-0.199-0.012-0.431-0.034c-0.232-0.022-0.423-0.034-0.575-0.034l2.23-4.188H56.27l-0.4,1.081
			c0.196-0.118,0.402-0.21,0.616-0.273c0.214-0.064,0.427-0.097,0.639-0.097L57.79,2.69l-2.261,4.249H59.604z"/>
		<path fill="#58595B" d="M61.6,6.909c-0.096-0.07-0.167-0.138-0.211-0.2c-0.045-0.063-0.068-0.135-0.068-0.216
			c0.005-0.056,0.019-0.123,0.042-0.204c0.023-0.08,0.044-0.153,0.064-0.219l0.219-0.636h1.504l0.234,0.719
			c0.03,0.075,0.048,0.131,0.053,0.166c0.005,0.035,0.007,0.089,0.007,0.159c0,0.171-0.103,0.314-0.31,0.431v0.03h2.291v-0.03
			c-0.161-0.146-0.284-0.285-0.367-0.416c-0.083-0.132-0.167-0.323-0.253-0.576l-1.467-3.96l-1.845,0.016
			c0.106,0.071,0.179,0.141,0.219,0.209c0.041,0.069,0.061,0.146,0.061,0.232c0,0.071-0.015,0.159-0.045,0.264
			c-0.03,0.104-0.048,0.166-0.053,0.187l-1.021,2.941c-0.096,0.287-0.169,0.483-0.219,0.59c-0.101,0.211-0.229,0.383-0.385,0.514
			v0.03h1.55V6.909z M62.372,3.212L62.9,4.725l-1.038-0.001L62.372,3.212z"/>
		<path fill="#58595B" d="M69.483,6.142c-0.144,0.083-0.326,0.125-0.546,0.125c-0.267,0-0.546-0.055-0.84-0.164
			s-0.544-0.254-0.75-0.434l0.25,1.091c0.196,0.08,0.422,0.146,0.677,0.199c0.254,0.053,0.515,0.079,0.782,0.079
			c0.534,0,0.98-0.106,1.338-0.317c0.434-0.257,0.678-0.644,0.733-1.162V5.393c0-0.297-0.081-0.559-0.241-0.785
			c-0.191-0.271-0.53-0.528-1.017-0.77c-0.166-0.065-0.33-0.134-0.49-0.204c-0.352-0.156-0.527-0.335-0.527-0.536
			C68.926,2.766,69.147,2.6,69.515,2.6c0.156,0,0.324,0.029,0.502,0.087c0.179,0.058,0.366,0.147,0.563,0.269V2.063
			c-0.262-0.096-0.483-0.156-0.665-0.181c-0.182-0.025-0.375-0.038-0.582-0.038c-0.539,0-0.982,0.118-1.33,0.354
			c-0.348,0.236-0.539,0.566-0.574,0.989c0,0.417,0.11,0.76,0.332,1.026c0.196,0.236,0.518,0.455,0.965,0.656
			c0.356,0.166,0.58,0.282,0.67,0.348c0.221,0.155,0.332,0.34,0.332,0.551C69.708,5.935,69.626,6.06,69.483,6.142z"/>
		<path fill="#58595B" d="M75.338,6.939l0.416-1.194c-0.288,0.182-0.541,0.305-0.76,0.37s-0.467,0.099-0.745,0.099
			c-0.055,0-0.199-0.012-0.431-0.034c-0.232-0.022-0.423-0.034-0.575-0.034l2.23-4.188h-3.471l-0.4,1.081
			c0.196-0.118,0.402-0.21,0.616-0.273c0.214-0.064,0.427-0.097,0.639-0.097l0.666,0.022l-2.261,4.249H75.338z"/>
		<path fill="#58595B" d="M78.09,6.909c-0.116-0.061-0.199-0.148-0.25-0.265s-0.076-0.255-0.076-0.416V4.725l0.885,1.52
			c0.176,0.308,0.368,0.5,0.574,0.578c0.207,0.078,0.613,0.117,1.217,0.117h0.469v-0.03c-0.131-0.101-0.252-0.231-0.363-0.394
			c-0.065-0.105-0.131-0.211-0.196-0.317l-1.407-2.215l1.671-2.026l-1.86,0.016c0.111,0.056,0.188,0.119,0.231,0.19
			c0.042,0.07,0.064,0.149,0.064,0.235c0,0.107-0.042,0.224-0.128,0.351c-0.065,0.087-0.131,0.171-0.196,0.252l-0.959,1.21
			l-0.001-1.556c0-0.121,0.025-0.249,0.076-0.383c0.05-0.135,0.133-0.239,0.25-0.315l-2.042,0.015
			c0.136,0.092,0.227,0.21,0.272,0.356c0.03,0.101,0.045,0.263,0.045,0.484v0.182v3.233c0,0.132-0.022,0.26-0.068,0.387
			c-0.045,0.126-0.128,0.225-0.25,0.295v0.03h2.042V6.909z"/>
		<path fill="#58595B" d="M83.631,7.038c0.95,0,1.679-0.3,2.187-0.898c0.407-0.479,0.611-1.045,0.611-1.699V4.41
			c0-0.75-0.24-1.358-0.718-1.827c-0.504-0.493-1.187-0.739-2.049-0.739c-0.832,0-1.512,0.236-2.042,0.71
			c-0.529,0.473-0.794,1.066-0.794,1.781c0,0.01,0,0.027,0,0.053s0,0.048,0,0.068c0,0.72,0.249,1.323,0.747,1.812
			C82.096,6.781,82.782,7.038,83.631,7.038z M82.278,4.237c0-0.463,0.125-0.852,0.375-1.166S83.215,2.6,83.593,2.6
			c0.474,0,0.832,0.247,1.074,0.739c0.187,0.378,0.28,0.833,0.28,1.366c0,0.468-0.104,0.84-0.312,1.116
			c-0.223,0.297-0.545,0.445-0.965,0.445c-0.426,0-0.771-0.209-1.034-0.626c-0.238-0.378-0.357-0.813-0.357-1.306V4.237z"/>
		<path fill="#58595B" d="M87.162,6.576c-0.035,0.137-0.126,0.258-0.272,0.363h3.304l0.28-1.051
			c-0.191,0.116-0.328,0.188-0.408,0.219c-0.191,0.071-0.428,0.106-0.71,0.106c-0.126,0-0.257-0.009-0.394-0.026
			c-0.136-0.018-0.252-0.052-0.348-0.102V4.743l0.763-0.33l0.008-0.717l-0.771,0.325V2.708c0-0.146,0.013-0.266,0.038-0.356
			c0.045-0.172,0.136-0.304,0.272-0.395L86.89,1.972c0.096,0.056,0.174,0.141,0.234,0.255c0.061,0.113,0.091,0.261,0.091,0.443v1.94
			L86.89,4.739v0.726l0.325-0.128v0.657C87.215,6.246,87.197,6.44,87.162,6.576z"/>
		<path fill="#58595B" d="M92.22,6.909c-0.096-0.07-0.167-0.138-0.211-0.2c-0.045-0.063-0.068-0.135-0.068-0.216
			c0.005-0.056,0.019-0.123,0.042-0.204c0.023-0.08,0.044-0.153,0.064-0.219l0.219-0.636h1.504l0.234,0.719
			c0.03,0.075,0.048,0.131,0.053,0.166c0.005,0.035,0.007,0.089,0.007,0.159c0,0.171-0.103,0.314-0.31,0.431v0.03h2.291v-0.03
			c-0.161-0.146-0.284-0.285-0.367-0.416c-0.083-0.132-0.167-0.323-0.253-0.576l-1.467-3.96l-1.845,0.016
			c0.106,0.071,0.179,0.141,0.219,0.209c0.041,0.069,0.061,0.146,0.061,0.232c0,0.071-0.015,0.159-0.045,0.264
			c-0.03,0.104-0.048,0.166-0.053,0.187l-1.021,2.941c-0.096,0.287-0.169,0.483-0.219,0.59c-0.101,0.211-0.229,0.383-0.385,0.514
			v0.03h1.55V6.909z M92.992,3.212l0.529,1.513l-1.038-0.001L92.992,3.212z"/>
		<path fill="#58595B" d="M37.146,10.878c0.033-0.119,0.12-0.236,0.261-0.353l-2.019,0.015c0.141,0.111,0.228,0.227,0.261,0.345
			c0.033,0.119,0.049,0.335,0.049,0.647v3.029c0,0.272-0.013,0.457-0.038,0.553c-0.041,0.156-0.131,0.287-0.272,0.394l2.019-0.015
			c-0.126-0.097-0.209-0.201-0.25-0.314c-0.041-0.114-0.061-0.31-0.061-0.587v-3.12C37.097,11.194,37.113,10.996,37.146,10.878z"/>
		<path fill="#58595B" d="M38.979,12.408l1.739,2.328c0.222,0.293,0.532,0.532,0.93,0.719c0.302,0.141,0.544,0.212,0.726,0.212h0.03
			v-4.256c0-0.166,0.028-0.326,0.083-0.48c0.055-0.154,0.141-0.289,0.257-0.405h-1.467l0.015,0.015
			c0.146,0.147,0.242,0.316,0.288,0.509c0.025,0.105,0.038,0.263,0.038,0.47v2.069l-2.313-3.063h-1.58v0.03
			c0.181,0.197,0.3,0.365,0.355,0.504c0.055,0.139,0.083,0.369,0.083,0.692v2.84c0,0.222-0.029,0.402-0.087,0.541
			c-0.058,0.139-0.143,0.254-0.253,0.345v0.03h1.467v-0.03c-0.111-0.101-0.195-0.221-0.253-0.359s-0.087-0.313-0.087-0.525v-2.185
			H38.979z"/>
		<path fill="#58595B" d="M46.079,10.525h-0.03c-0.056,0.021-0.106,0.032-0.151,0.035c-0.045,0.002-0.093,0.003-0.144,0.003
			L43.1,10.578c0.101,0.076,0.178,0.167,0.23,0.272s0.08,0.255,0.08,0.446v3.485c0,0.156-0.013,0.277-0.038,0.362
			c-0.045,0.162-0.136,0.282-0.272,0.363v0.03h2.049v-0.03c-0.151-0.131-0.252-0.308-0.302-0.529
			c-0.025-0.11-0.038-0.27-0.038-0.477v-1.225h0.265c0.187,0,0.321,0.025,0.404,0.076c0.083,0.05,0.138,0.118,0.163,0.204h0.038
			v-1.074H45.64c-0.035,0.021-0.073,0.031-0.113,0.034s-0.088,0.004-0.144,0.004h-0.575v-1.225h0.537
			c0.141,0,0.257,0.013,0.348,0.038c0.176,0.047,0.305,0.14,0.385,0.279V10.525z"/>
		<path fill="#58595B" d="M49.239,10.412c-0.832,0-1.512,0.236-2.042,0.71c-0.529,0.473-0.794,1.066-0.794,1.781
			c0,0.01,0,0.027,0,0.053s0,0.048,0,0.068c0,0.72,0.249,1.323,0.747,1.812c0.523,0.514,1.209,0.771,2.059,0.771
			c0.95,0,1.679-0.3,2.187-0.898c0.407-0.479,0.611-1.045,0.611-1.699v-0.03c0-0.75-0.24-1.358-0.718-1.827
			C50.784,10.658,50.101,10.412,49.239,10.412z M50.212,14.39c-0.223,0.297-0.545,0.445-0.965,0.445
			c-0.426,0-0.771-0.209-1.034-0.626c-0.238-0.378-0.357-0.813-0.357-1.306v-0.098c0-0.463,0.125-0.852,0.375-1.166
			s0.563-0.472,0.941-0.472c0.474,0,0.832,0.247,1.074,0.739c0.187,0.378,0.28,0.833,0.28,1.366
			C50.524,13.741,50.42,14.113,50.212,14.39z"/>
		<path fill="#58595B" d="M54.924,15.062c0.096,0.187,0.2,0.313,0.313,0.378c0.114,0.065,0.266,0.099,0.458,0.099h0.416l0.854-0.061
			c-0.131-0.106-0.262-0.246-0.393-0.419c-0.05-0.065-0.131-0.183-0.242-0.35l-0.976-1.65c0.348-0.172,0.595-0.39,0.741-0.652
			c0.096-0.172,0.144-0.354,0.144-0.546c0-0.425-0.141-0.759-0.423-1.001c-0.262-0.223-0.607-0.334-1.036-0.334l-2.465,0.015
			c0.136,0.092,0.222,0.195,0.257,0.311c0.035,0.116,0.053,0.283,0.053,0.5v3.302v0.129c0,0.156-0.021,0.294-0.061,0.412
			c-0.041,0.119-0.124,0.214-0.25,0.284v0.03h2.034v-0.03c-0.106-0.061-0.187-0.146-0.242-0.257
			c-0.055-0.111-0.083-0.263-0.083-0.454v-1.398L54.924,15.062z M54.024,11.243h0.061c0.252,0,0.446,0.081,0.582,0.243
			c0.116,0.142,0.174,0.329,0.174,0.563c0,0.232-0.075,0.436-0.227,0.607s-0.348,0.275-0.59,0.312V11.243z"/>
		<path fill="#58595B" d="M63.12,14.546l-0.378-3.43c0-0.061-0.005-0.106-0.015-0.137c0.01-0.091,0.033-0.165,0.068-0.224
			c0.035-0.058,0.106-0.124,0.212-0.2v-0.03H61.21l-0.892,2.927l-1.135-2.927l-1.733,0.016c0.111,0.102,0.187,0.199,0.227,0.294
			c0.041,0.094,0.061,0.199,0.061,0.316v0.176l-0.37,3.235c-0.025,0.237-0.058,0.411-0.099,0.521
			c-0.055,0.156-0.146,0.288-0.272,0.394v0.03h1.474v-0.03c-0.106-0.056-0.188-0.13-0.243-0.223
			c-0.056-0.094-0.083-0.216-0.083-0.367l0.252-2.601h0.03l0.832,2.265c0.085,0.247,0.188,0.432,0.31,0.553
			c0.176,0.177,0.481,0.344,0.915,0.5l0.976-3.317h0.03l0.25,2.435l0.015,0.287c0,0.075-0.016,0.15-0.049,0.223
			c-0.033,0.073-0.095,0.155-0.186,0.246v0.03h1.989v-0.03c-0.116-0.111-0.203-0.241-0.261-0.39
			C63.187,14.938,63.145,14.758,63.12,14.546z"/>
		<path fill="#58595B" d="M65.395,10.75c0.041,0.069,0.061,0.146,0.061,0.232c0,0.071-0.015,0.159-0.045,0.264
			c-0.03,0.104-0.048,0.166-0.053,0.187l-1.021,2.941c-0.096,0.287-0.169,0.483-0.219,0.59c-0.101,0.211-0.229,0.383-0.385,0.514
			v0.03h1.55v-0.03c-0.096-0.07-0.167-0.138-0.211-0.2c-0.045-0.063-0.068-0.135-0.068-0.216c0.005-0.056,0.019-0.123,0.042-0.204
			c0.023-0.08,0.044-0.153,0.064-0.219l0.219-0.636h1.504l0.234,0.719c0.03,0.075,0.048,0.131,0.053,0.166
			c0.005,0.035,0.007,0.089,0.007,0.159c0,0.171-0.103,0.314-0.31,0.431v0.03h2.291v-0.03c-0.161-0.146-0.284-0.285-0.367-0.416
			c-0.083-0.132-0.167-0.323-0.253-0.576l-1.467-3.96l-1.845,0.016C65.282,10.612,65.355,10.682,65.395,10.75z M66.053,11.78
			l0.529,1.513l-1.038-0.001L66.053,11.78z"/>
		<path fill="#58595B" d="M75.859,14.518v-1.271l1.369-2.722l-1.369,0.016c0.081,0.045,0.137,0.1,0.17,0.163
			c0.033,0.063,0.049,0.139,0.049,0.225c0,0.057-0.014,0.128-0.042,0.214s-0.065,0.188-0.11,0.305l-0.437,0.886l-0.877-1.808
			l-1.75,0.015l0.003-0.015h-3.509l-0.144-0.022l-0.302,1.156c0.177-0.105,0.325-0.182,0.446-0.229
			c0.161-0.063,0.32-0.096,0.476-0.096c0.015,0,0.063,0.003,0.144,0.008c0.081,0.005,0.153,0.013,0.219,0.022v3.178v0.168
			c0,0.183-0.021,0.338-0.061,0.467c-0.041,0.13-0.124,0.229-0.25,0.301v0.03h2.049v-0.03c-0.121-0.101-0.208-0.22-0.261-0.356
			c-0.053-0.136-0.08-0.328-0.08-0.575V11.38c0.106-0.03,0.214-0.046,0.325-0.046c0.146,0,0.282,0.025,0.408,0.076
			c0.126,0.05,0.217,0.134,0.272,0.249l0.261-1.116c0.098,0.061,0.176,0.123,0.233,0.19c0.058,0.068,0.132,0.186,0.222,0.353
			l1.144,2.158v1.521c0,0.146-0.025,0.285-0.076,0.417c-0.05,0.131-0.134,0.229-0.25,0.295v0.03h2.064v-0.03
			c-0.146-0.131-0.245-0.292-0.295-0.483C75.874,14.878,75.859,14.719,75.859,14.518z"/>
		<path fill="#58595B" d="M79.995,14.813c0.176,0.308,0.368,0.5,0.574,0.578c0.207,0.078,0.613,0.117,1.217,0.117h0.469v-0.03
			c-0.131-0.101-0.252-0.231-0.363-0.394c-0.065-0.105-0.131-0.211-0.196-0.317l-1.407-2.215l1.671-2.026l-1.86,0.016
			c0.111,0.056,0.188,0.119,0.231,0.19c0.042,0.07,0.064,0.149,0.064,0.235c0,0.107-0.042,0.224-0.128,0.351
			c-0.065,0.087-0.131,0.171-0.196,0.252l-0.959,1.21l-0.001-1.556c0-0.121,0.025-0.249,0.076-0.383
			c0.05-0.135,0.133-0.239,0.25-0.315l-2.042,0.015c0.136,0.092,0.227,0.21,0.272,0.356c0.03,0.101,0.045,0.263,0.045,0.484v0.182
			v3.233c0,0.132-0.022,0.26-0.068,0.387c-0.045,0.126-0.128,0.225-0.25,0.295v0.03h2.042v-0.03
			c-0.116-0.061-0.199-0.148-0.25-0.265s-0.076-0.255-0.076-0.416v-1.504L79.995,14.813z"/>
		<path fill="#58595B" d="M84.179,10.878c0.033-0.119,0.12-0.236,0.261-0.353l-2.019,0.015c0.141,0.111,0.228,0.227,0.261,0.345
			c0.033,0.119,0.049,0.335,0.049,0.647v3.029c0,0.272-0.013,0.457-0.038,0.553c-0.041,0.156-0.131,0.287-0.272,0.394l2.019-0.015
			c-0.126-0.097-0.209-0.201-0.25-0.314c-0.041-0.114-0.061-0.31-0.061-0.587v-3.12C84.13,11.194,84.146,10.996,84.179,10.878z"/>
		<path fill="#58595B" d="M94.836,15.508l0.416-1.194c-0.288,0.182-0.541,0.305-0.76,0.37s-0.467,0.099-0.745,0.099
			c-0.055,0-0.199-0.012-0.431-0.034c-0.232-0.022-0.423-0.034-0.575-0.034l2.23-4.188h-3.471l-0.4,1.081
			c0.196-0.118,0.402-0.21,0.616-0.273c0.214-0.064,0.427-0.097,0.639-0.097l0.666,0.022l-2.261,4.249H94.836z"/>
		<path fill="#58595B" d="M97.006,10.982c0,0.071-0.015,0.159-0.045,0.264c-0.03,0.104-0.048,0.166-0.053,0.187l-1.021,2.941
			c-0.096,0.287-0.169,0.483-0.219,0.59c-0.101,0.211-0.229,0.383-0.385,0.514v0.03h1.55v-0.03c-0.096-0.07-0.167-0.138-0.211-0.2
			c-0.045-0.063-0.068-0.135-0.068-0.216c0.005-0.056,0.019-0.123,0.042-0.204c0.023-0.08,0.044-0.153,0.064-0.219l0.219-0.636
			h1.504l0.234,0.719c0.03,0.075,0.048,0.131,0.053,0.166c0.005,0.035,0.007,0.089,0.007,0.159c0,0.171-0.103,0.314-0.31,0.431v0.03
			h2.291v-0.03c-0.161-0.146-0.284-0.285-0.367-0.416c-0.083-0.132-0.167-0.323-0.253-0.576l-1.467-3.96l-1.845,0.016
			c0.106,0.071,0.179,0.141,0.219,0.209C96.986,10.819,97.006,10.896,97.006,10.982z M97.604,11.78l0.529,1.513l-1.038-0.001
			L97.604,11.78z"/>
		<path fill="#58595B" d="M103.07,15.478c-0.106-0.061-0.187-0.146-0.242-0.257c-0.055-0.111-0.083-0.263-0.083-0.454v-1.398
			l0.9,1.693c0.096,0.187,0.2,0.313,0.313,0.378c0.114,0.065,0.266,0.099,0.458,0.099h0.416l0.839-0.06l-0.016,0.029h4.075
			l0.416-1.194c-0.288,0.182-0.541,0.305-0.76,0.37s-0.467,0.099-0.745,0.099c-0.055,0-0.199-0.012-0.431-0.034
			c-0.232-0.022-0.423-0.034-0.575-0.034l2.23-4.188h-3.471l-0.4,1.081c0.196-0.118,0.402-0.21,0.616-0.273
			c0.214-0.064,0.427-0.097,0.639-0.097l0.666,0.022l-2.239,4.209c-0.128-0.105-0.255-0.24-0.384-0.409
			c-0.05-0.065-0.131-0.183-0.242-0.35l-0.976-1.65c0.348-0.172,0.595-0.39,0.741-0.652c0.096-0.172,0.144-0.354,0.144-0.546
			c0-0.425-0.141-0.759-0.423-1.001c-0.262-0.223-0.607-0.334-1.036-0.334l-2.465,0.015c0.136,0.092,0.222,0.195,0.257,0.311
			c0.035,0.116,0.053,0.283,0.053,0.5v3.302v0.129c0,0.156-0.021,0.294-0.061,0.412c-0.041,0.119-0.124,0.214-0.25,0.284v0.03h2.034
			V15.478z M102.745,11.243h0.061c0.252,0,0.446,0.081,0.582,0.243c0.116,0.142,0.174,0.329,0.174,0.563
			c0,0.232-0.075,0.436-0.227,0.607s-0.348,0.275-0.59,0.312V11.243z"/>
		<path fill="#58595B" d="M118.062,10.525l-2.283,0.015c0.136,0.066,0.229,0.185,0.28,0.356c0.03,0.101,0.045,0.228,0.045,0.379
			v0.061v3.18c0,0.293-0.018,0.504-0.053,0.633s-0.126,0.238-0.272,0.329v0.03h2.268c0.892,0,1.57-0.272,2.034-0.817
			c0.388-0.455,0.582-1.035,0.582-1.742c0-0.727-0.237-1.313-0.71-1.757C119.478,10.748,118.848,10.525,118.062,10.525z
			 M118.882,14.297c-0.214,0.313-0.521,0.47-0.918,0.47c-0.076-0.01-0.16-0.021-0.253-0.034s-0.163-0.023-0.208-0.034V11.38
			c0.156-0.03,0.254-0.048,0.295-0.053s0.096-0.008,0.167-0.008c0.363,0,0.65,0.121,0.862,0.363c0.252,0.288,0.378,0.73,0.378,1.326
			C119.203,13.555,119.096,13.984,118.882,14.297z"/>
		<path fill="#58595B" d="M123.845,14.782c-0.055,0-0.199-0.012-0.431-0.034c-0.232-0.022-0.423-0.034-0.575-0.034l2.23-4.188H121.6
			l-0.4,1.081c0.196-0.118,0.402-0.21,0.616-0.273c0.214-0.064,0.427-0.097,0.639-0.097l0.666,0.022l-2.261,4.249h4.075l0.416-1.194
			c-0.288,0.182-0.541,0.305-0.76,0.37S124.123,14.782,123.845,14.782z"/>
		<path fill="#58595B" d="M130.287,14.485l-1.467-3.96l-1.845,0.016c0.106,0.071,0.179,0.141,0.219,0.209
			c0.041,0.069,0.061,0.146,0.061,0.232c0,0.071-0.015,0.159-0.045,0.264c-0.03,0.104-0.048,0.166-0.053,0.187l-1.021,2.941
			c-0.096,0.287-0.169,0.483-0.219,0.59c-0.101,0.211-0.229,0.383-0.385,0.514v0.03h1.55v-0.03c-0.096-0.07-0.167-0.138-0.211-0.2
			c-0.045-0.063-0.068-0.135-0.068-0.216c0.005-0.056,0.019-0.123,0.042-0.204c0.023-0.08,0.044-0.153,0.064-0.219l0.219-0.636
			h1.504l0.234,0.719c0.03,0.075,0.048,0.131,0.053,0.166c0.005,0.035,0.007,0.089,0.007,0.159c0,0.171-0.103,0.314-0.31,0.431v0.03
			h2.291v-0.03c-0.161-0.146-0.284-0.285-0.367-0.416C130.457,14.93,130.373,14.738,130.287,14.485z M127.344,13.292l0.509-1.512
			l0.529,1.513L127.344,13.292z"/>
		<path fill="#58595B" d="M134.687,10.54c0.146,0.147,0.242,0.316,0.288,0.509c0.025,0.105,0.038,0.263,0.038,0.47v2.069
			l-2.313-3.063h-1.58v0.03c0.181,0.197,0.3,0.365,0.355,0.504c0.055,0.139,0.083,0.369,0.083,0.692v2.84
			c0,0.222-0.029,0.402-0.087,0.541c-0.058,0.139-0.143,0.254-0.253,0.345v0.03h1.467v-0.03c-0.111-0.101-0.195-0.221-0.253-0.359
			s-0.087-0.313-0.087-0.525v-2.185h0.03l1.739,2.328c0.222,0.293,0.532,0.532,0.93,0.719c0.302,0.141,0.544,0.212,0.726,0.212h0.03
			v-4.256c0-0.166,0.028-0.326,0.083-0.48c0.055-0.154,0.141-0.289,0.257-0.405h-1.467L134.687,10.54z"/>
		<path fill="#58595B" d="M138.252,10.878c0.033-0.119,0.12-0.236,0.261-0.353l-2.019,0.015c0.141,0.111,0.228,0.227,0.261,0.345
			c0.033,0.119,0.049,0.335,0.049,0.647v3.029c0,0.272-0.013,0.457-0.038,0.553c-0.041,0.156-0.131,0.287-0.272,0.394l2.019-0.015
			c-0.126-0.097-0.209-0.201-0.25-0.314c-0.041-0.114-0.061-0.31-0.061-0.587v-3.12C138.203,11.194,138.219,10.996,138.252,10.878z"
			/>
		<path fill="#58595B" d="M143.779,15.062c-0.083-0.132-0.167-0.323-0.253-0.576l-1.467-3.96l-1.845,0.016
			c0.106,0.071,0.179,0.141,0.219,0.209c0.041,0.069,0.061,0.146,0.061,0.232c0,0.071-0.015,0.159-0.045,0.264
			c-0.03,0.104-0.048,0.166-0.053,0.187l-1.021,2.941c-0.096,0.287-0.169,0.483-0.219,0.59c-0.101,0.211-0.229,0.383-0.385,0.514
			v0.03h1.55v-0.03c-0.096-0.07-0.167-0.138-0.211-0.2c-0.045-0.063-0.068-0.135-0.068-0.216c0.005-0.056,0.019-0.123,0.042-0.204
			c0.023-0.08,0.044-0.153,0.064-0.219l0.219-0.636h1.504l0.234,0.719c0.03,0.075,0.048,0.131,0.053,0.166
			c0.005,0.035,0.007,0.089,0.007,0.159c0,0.171-0.103,0.314-0.31,0.431v0.03h2.291v-0.03
			C143.984,15.331,143.862,15.192,143.779,15.062z M140.583,13.292l0.509-1.512l0.529,1.513L140.583,13.292z"/>
		<path fill="#58595B" d="M37.808,23.09c-0.01,0-0.247-0.025-0.711-0.076c-0.187-0.02-0.368-0.03-0.544-0.03l1.998-2.864
			l-0.001-0.031h-2.691l-0.355,0.771c0.141-0.102,0.284-0.172,0.427-0.212s0.311-0.061,0.503-0.061c0.085,0,0.235,0.008,0.45,0.022
			c0.214,0.016,0.369,0.028,0.465,0.038l-2.094,2.896v0.03h3.221l0.401-0.824c-0.202,0.126-0.383,0.215-0.544,0.265
			C38.168,23.064,37.994,23.09,37.808,23.09z"/>
		<path fill="#58595B" d="M43.296,21.638c-0.015-0.01-0.335-0.126-0.96-0.348c-0.313-0.111-0.479-0.244-0.499-0.4
			c0-0.132,0.061-0.229,0.182-0.291c0.121-0.063,0.288-0.095,0.5-0.095c0.364,0,0.685,0.078,0.963,0.234v-0.65
			c-0.122-0.035-0.241-0.06-0.36-0.072c-0.119-0.012-0.271-0.019-0.458-0.019c-0.419,0-0.76,0.068-1.022,0.204
			c-0.333,0.172-0.5,0.438-0.5,0.802c0,0.236,0.086,0.434,0.258,0.59c0.122,0.11,0.316,0.219,0.584,0.324
			c0.617,0.232,0.948,0.366,0.994,0.401c0.152,0.105,0.228,0.239,0.228,0.4c-0.015,0.151-0.101,0.265-0.258,0.341
			c-0.157,0.075-0.359,0.113-0.607,0.113c-0.233,0-0.476-0.038-0.728-0.113c-0.253-0.076-0.473-0.18-0.66-0.311l0.25,0.733
			c0.302,0.121,0.638,0.182,1.005,0.182c0.423,0,0.794-0.091,1.111-0.272c0.378-0.217,0.567-0.521,0.567-0.915
			c0-0.186-0.054-0.352-0.163-0.495S43.473,21.724,43.296,21.638z"/>
		<path fill="#58595B" d="M45.304,23.294c-0.028-0.102-0.042-0.265-0.042-0.492v-2.835h-0.03c-0.085,0.091-0.267,0.136-0.544,0.136
			c-0.071,0-0.138,0-0.201,0s-0.13,0-0.2,0v0.03c0.126,0.065,0.209,0.158,0.25,0.278c0.02,0.061,0.03,0.169,0.03,0.324v2.221
			c0,0.131-0.018,0.246-0.053,0.346c-0.035,0.101-0.111,0.181-0.227,0.241v0.03h1.255l0.015-0.03
			C45.416,23.478,45.331,23.395,45.304,23.294z"/>
		<path fill="#58595B" d="M44.876,19.634c0.136,0,0.25-0.045,0.34-0.136c0.09-0.091,0.136-0.204,0.136-0.34
			c0-0.126-0.046-0.236-0.14-0.329c-0.093-0.094-0.206-0.14-0.336-0.14c-0.131,0-0.242,0.048-0.333,0.144
			c-0.09,0.096-0.136,0.204-0.136,0.325c0,0.136,0.045,0.249,0.136,0.34C44.634,19.589,44.745,19.634,44.876,19.634z"/>
		<path fill="#58595B" d="M49.144,20.454c-0.325-0.314-0.725-0.472-1.198-0.472c-0.61,0-1.091,0.193-1.444,0.582
			c-0.308,0.338-0.461,0.751-0.461,1.239c0,0.59,0.227,1.059,0.681,1.406c0.408,0.313,0.907,0.469,1.497,0.469
			c0.176,0,0.352-0.016,0.525-0.049s0.346-0.082,0.518-0.147l0.355-0.703c-0.176,0.131-0.375,0.229-0.597,0.295
			c-0.222,0.065-0.436,0.099-0.643,0.099h-0.189c-0.454-0.041-0.802-0.222-1.043-0.543c-0.192-0.26-0.288-0.565-0.288-0.917h2.775
			C49.632,21.189,49.469,20.77,49.144,20.454z M46.887,21.268c0.035-0.242,0.149-0.433,0.34-0.571s0.413-0.208,0.666-0.208
			c0.247,0,0.461,0.067,0.643,0.2c0.181,0.134,0.285,0.327,0.31,0.579H46.887z"/>
		<path fill="#58595B" d="M53.654,23.313c-0.041-0.088-0.061-0.193-0.061-0.313c0-0.051,0-0.116,0-0.197l-0.015-4.34
			c-0.034,0.056-0.081,0.093-0.141,0.11s-0.127,0.026-0.2,0.026l-0.604,0.015c0.141,0.091,0.229,0.185,0.264,0.28
			c0.021,0.05,0.03,0.148,0.03,0.295v1.239c-0.176-0.146-0.359-0.254-0.548-0.325c-0.189-0.07-0.379-0.105-0.571-0.105
			c-0.58,0-1.046,0.207-1.399,0.62c-0.302,0.353-0.454,0.748-0.454,1.187c0,0.661,0.224,1.154,0.673,1.482
			c0.343,0.252,0.759,0.378,1.248,0.378c0.096,0,0.161-0.001,0.197-0.004c0.035-0.003,0.098-0.012,0.189-0.026l0.461-0.681
			c-0.202,0.146-0.428,0.22-0.68,0.22c-0.353,0-0.655-0.121-0.907-0.363c-0.272-0.262-0.408-0.598-0.408-1.006
			c0-0.413,0.118-0.74,0.355-0.982c0.217-0.222,0.477-0.333,0.779-0.333s0.549,0.089,0.741,0.265
			c0.216,0.197,0.325,0.477,0.325,0.84v1.98h0.976v-0.03C53.778,23.478,53.694,23.4,53.654,23.313z"/>
		<path fill="#58595B" d="M56.709,23.09c-0.01,0-0.247-0.025-0.711-0.076c-0.187-0.02-0.368-0.03-0.544-0.03l1.998-2.864
			l-0.001-0.031h-2.691l-0.355,0.771c0.141-0.102,0.284-0.172,0.427-0.212s0.311-0.061,0.503-0.061c0.085,0,0.235,0.008,0.45,0.022
			c0.214,0.016,0.369,0.028,0.465,0.038l-2.094,2.896v0.03h3.221l0.401-0.824c-0.202,0.126-0.383,0.215-0.544,0.265
			C57.069,23.064,56.895,23.09,56.709,23.09z"/>
		<path fill="#58595B" d="M58.92,23.294c-0.028-0.102-0.042-0.265-0.042-0.492v-2.835h-0.03c-0.085,0.091-0.267,0.136-0.544,0.136
			c-0.071,0-0.138,0-0.201,0s-0.13,0-0.2,0v0.03c0.126,0.065,0.209,0.158,0.25,0.278c0.02,0.061,0.03,0.169,0.03,0.324v2.221
			c0,0.131-0.018,0.246-0.053,0.346c-0.035,0.101-0.111,0.181-0.227,0.241v0.03h1.255l0.015-0.03
			C59.032,23.478,58.948,23.395,58.92,23.294z"/>
		<path fill="#58595B" d="M58.493,19.634c0.136,0,0.25-0.045,0.34-0.136c0.09-0.091,0.136-0.204,0.136-0.34
			c0-0.126-0.046-0.236-0.14-0.329c-0.093-0.094-0.206-0.14-0.336-0.14c-0.131,0-0.242,0.048-0.333,0.144
			c-0.09,0.096-0.136,0.204-0.136,0.325c0,0.136,0.045,0.249,0.136,0.34C58.251,19.589,58.362,19.634,58.493,19.634z"/>
		<path fill="#58595B" d="M61.805,19.997c-0.081,0-0.171,0.008-0.272,0.022c-0.101,0.016-0.194,0.033-0.28,0.053l-0.393,0.65
			c0.071-0.05,0.163-0.089,0.276-0.117c0.114-0.027,0.233-0.041,0.359-0.041c0.302,0,0.554,0.085,0.756,0.257
			c0.242,0.207,0.363,0.514,0.363,0.922c0,0.489-0.133,0.857-0.4,1.104c-0.227,0.206-0.532,0.31-0.915,0.31
			c-0.076,0-0.156-0.008-0.242-0.022c-0.086-0.016-0.212-0.045-0.378-0.091l-0.015-4.582c-0.06,0.091-0.184,0.137-0.37,0.137
			l-0.575,0.015c0.116,0.071,0.191,0.15,0.227,0.238c0.036,0.088,0.053,0.216,0.053,0.382v3.766v0.061
			c0,0.09-0.015,0.18-0.045,0.268c-0.03,0.089-0.088,0.155-0.174,0.201c0.207,0.03,0.416,0.063,0.627,0.098
			c0.262,0.035,0.517,0.053,0.764,0.053c0.675,0,1.213-0.167,1.614-0.502c0.4-0.336,0.601-0.775,0.601-1.319
			c0-0.545-0.145-0.991-0.435-1.339C62.66,20.171,62.278,19.997,61.805,19.997z"/>
		<path fill="#58595B" d="M66.681,24.533c-0.056-0.057-0.083-0.104-0.083-0.146c0-0.157,0.018-0.283,0.053-0.377
			s0.121-0.21,0.257-0.347l0.34-0.491c-0.248,0-0.418-0.054-0.511-0.16s-0.139-0.283-0.139-0.531v-1.322
			c0-0.405-0.146-0.706-0.436-0.904c-0.25-0.172-0.583-0.258-1-0.258c-0.06,0-0.15,0.008-0.271,0.022
			c-0.12,0.016-0.198,0.022-0.233,0.022l-0.496,0.757c0.17-0.086,0.321-0.151,0.452-0.197c0.201-0.065,0.389-0.098,0.564-0.098
			c0.17,0,0.324,0.032,0.459,0.098c0.175,0.086,0.263,0.204,0.263,0.355c0,0.065-0.015,0.129-0.045,0.189
			c-0.03,0.061-0.06,0.101-0.09,0.121c-0.101,0.075-0.261,0.141-0.482,0.196c-0.613,0.156-0.93,0.239-0.95,0.249
			c-0.216,0.102-0.377,0.215-0.482,0.341c-0.126,0.151-0.188,0.343-0.188,0.574c0,0.293,0.118,0.538,0.355,0.737
			c0.237,0.199,0.552,0.299,0.945,0.299c0.081,0,0.141-0.003,0.182-0.008c0.04-0.005,0.105-0.013,0.196-0.022l0.446-0.56
			c-0.106,0.03-0.208,0.055-0.306,0.072c-0.099,0.018-0.188,0.026-0.269,0.026c-0.242,0-0.436-0.055-0.582-0.163
			c-0.146-0.108-0.219-0.261-0.219-0.457c0-0.298,0.25-0.504,0.749-0.62c0.339-0.081,0.586-0.164,0.741-0.25v1.18
			c0,0.398,0.212,0.65,0.635,0.756c-0.121,0.07-0.221,0.173-0.299,0.309s-0.117,0.291-0.117,0.466c0,0.171,0.067,0.308,0.2,0.41
			c0.134,0.103,0.294,0.154,0.48,0.154c0.151,0,0.292-0.035,0.423-0.104l0.121-0.342c-0.121,0.07-0.283,0.105-0.484,0.105
			C66.797,24.616,66.736,24.589,66.681,24.533z"/>
		<path fill="#58595B" d="M73.879,20.118c0.161,0.081,0.242,0.194,0.242,0.341c0,0.055-0.014,0.123-0.041,0.204
			c-0.027,0.08-0.054,0.156-0.078,0.227l-0.731,1.799l-0.661-1.845c-0.051-0.126-0.098-0.251-0.141-0.374
			c-0.043-0.124-0.07-0.216-0.08-0.276l0.015-0.105h-1.005v0.03c0.141,0.07,0.211,0.169,0.211,0.295c0,0.065-0.012,0.139-0.037,0.22
			c-0.025,0.081-0.047,0.151-0.067,0.212l-0.726,1.849l-0.901-2.371c-0.025-0.051-0.042-0.094-0.049-0.129
			c-0.008-0.035-0.017-0.101-0.026-0.196h-0.03c-0.061,0.039-0.128,0.063-0.204,0.071s-0.144,0.016-0.204,0.02
			c-0.081,0-0.159,0-0.234,0s-0.156,0-0.242,0v0.03c0.114,0.065,0.204,0.157,0.269,0.273c0.005,0.01,0.052,0.116,0.142,0.318
			l0.863,2.248c0.071,0.176,0.146,0.306,0.223,0.391c0.118,0.136,0.305,0.256,0.561,0.36l1.028-2.646l0.741,1.95
			c0.076,0.222,0.184,0.386,0.325,0.491c0.116,0.065,0.234,0.134,0.355,0.204l1.505-3.621h-1.021V20.118z"/>
		<path fill="#58595B" d="M83.745,23.09c-0.01,0-0.247-0.025-0.711-0.076c-0.187-0.02-0.368-0.03-0.544-0.03l1.998-2.864
			l-0.001-0.031h-2.691l-0.355,0.771c0.141-0.102,0.284-0.172,0.427-0.212s0.311-0.061,0.503-0.061c0.085,0,0.235,0.008,0.45,0.022
			c0.214,0.016,0.369,0.028,0.465,0.038l-1.969,2.722c-0.18-0.129-0.369-0.257-0.519-0.394c-0.166-0.15-0.287-0.276-0.363-0.378
			l-1.157-1.443c0.378-0.116,0.67-0.288,0.877-0.515c0.182-0.201,0.287-0.434,0.317-0.695c0-0.394-0.124-0.708-0.37-0.945
			c-0.277-0.267-0.681-0.4-1.21-0.4h-1.769v0.03c0.149,0.061,0.246,0.176,0.289,0.348c0.024,0.101,0.036,0.31,0.036,0.627v2.903
			c0,0.318-0.018,0.556-0.053,0.715s-0.126,0.266-0.272,0.321v0.03l1.429-0.015c-0.146-0.081-0.238-0.187-0.276-0.318
			c-0.038-0.131-0.057-0.37-0.057-0.718v-3.395c0.121-0.025,0.208-0.042,0.261-0.05c0.053-0.007,0.127-0.011,0.223-0.011
			c0.282,0,0.512,0.058,0.688,0.174c0.212,0.136,0.317,0.341,0.317,0.612c0,0.333-0.144,0.604-0.431,0.81
			c-0.227,0.162-0.522,0.271-0.885,0.325l0.694,1.052l0.883,1.09c0.111,0.15,0.229,0.262,0.352,0.334
			c0.124,0.073,0.287,0.109,0.489,0.109h0.38h0.394h2.827l0.401-0.824c-0.202,0.126-0.383,0.215-0.544,0.265
			C84.105,23.064,83.931,23.09,83.745,23.09z"/>
		<path fill="#58595B" d="M87.982,20.454c-0.325-0.314-0.725-0.472-1.198-0.472c-0.61,0-1.091,0.193-1.444,0.582
			c-0.308,0.338-0.461,0.751-0.461,1.239c0,0.59,0.227,1.059,0.681,1.406c0.408,0.313,0.907,0.469,1.497,0.469
			c0.176,0,0.352-0.016,0.525-0.049s0.346-0.082,0.518-0.147l0.355-0.703c-0.176,0.131-0.375,0.229-0.597,0.295
			c-0.222,0.065-0.436,0.099-0.643,0.099h-0.189c-0.454-0.041-0.802-0.222-1.043-0.543c-0.192-0.26-0.288-0.565-0.288-0.917h2.775
			C88.47,21.189,88.308,20.77,87.982,20.454z M85.726,21.268c0.035-0.242,0.149-0.433,0.34-0.571s0.413-0.208,0.666-0.208
			c0.247,0,0.461,0.067,0.643,0.2c0.181,0.134,0.285,0.327,0.31,0.579H85.726z"/>
		<path fill="#58595B" d="M91.056,21.638c-0.015-0.01-0.335-0.126-0.96-0.348c-0.313-0.111-0.479-0.244-0.499-0.4
			c0-0.132,0.061-0.229,0.182-0.291c0.121-0.063,0.288-0.095,0.5-0.095c0.364,0,0.685,0.078,0.963,0.234v-0.65
			c-0.122-0.035-0.241-0.06-0.36-0.072c-0.119-0.012-0.271-0.019-0.458-0.019c-0.419,0-0.76,0.068-1.022,0.204
			c-0.333,0.172-0.5,0.438-0.5,0.802c0,0.236,0.086,0.434,0.258,0.59c0.122,0.11,0.316,0.219,0.584,0.324
			c0.617,0.232,0.948,0.366,0.994,0.401c0.152,0.105,0.228,0.239,0.228,0.4c-0.015,0.151-0.101,0.265-0.258,0.341
			c-0.157,0.075-0.359,0.113-0.607,0.113c-0.233,0-0.476-0.038-0.728-0.113c-0.253-0.076-0.473-0.18-0.66-0.311l0.25,0.733
			c0.302,0.121,0.638,0.182,1.005,0.182c0.423,0,0.794-0.091,1.111-0.272c0.378-0.217,0.567-0.521,0.567-0.915
			c0-0.186-0.054-0.352-0.163-0.495S91.232,21.724,91.056,21.638z"/>
		<path fill="#58595B" d="M94.337,23.09c-0.01,0-0.247-0.025-0.711-0.076c-0.187-0.02-0.368-0.03-0.544-0.03l1.998-2.864
			l-0.001-0.031h-2.691l-0.355,0.771c0.141-0.102,0.284-0.172,0.427-0.212s0.311-0.061,0.503-0.061c0.085,0,0.235,0.008,0.45,0.022
			c0.214,0.016,0.369,0.028,0.465,0.038l-2.094,2.896v0.03h3.221l0.401-0.824c-0.202,0.126-0.383,0.215-0.544,0.265
			C94.698,23.064,94.523,23.09,94.337,23.09z"/>
		<path fill="#58595B" d="M97.452,19.997c-0.65,0-1.157,0.196-1.52,0.59c-0.318,0.343-0.477,0.761-0.477,1.255
			c0,0.499,0.164,0.92,0.492,1.263c0.357,0.373,0.834,0.56,1.429,0.56c0.529,0,0.989-0.181,1.38-0.541s0.586-0.8,0.586-1.319
			c0-0.544-0.194-0.987-0.582-1.33C98.402,20.156,97.966,19.997,97.452,19.997z M98.292,22.792
			c-0.207,0.264-0.492,0.396-0.854,0.396h-0.061c-0.328,0-0.601-0.141-0.82-0.423s-0.329-0.623-0.329-1.021
			c0-0.443,0.141-0.778,0.423-1.005c0.207-0.167,0.443-0.25,0.71-0.25c0.363,0,0.658,0.149,0.885,0.449
			c0.211,0.278,0.317,0.607,0.317,0.988C98.563,22.271,98.473,22.56,98.292,22.792z"/>
		<path fill="#58595B" d="M104.272,20.118c0.161,0.081,0.242,0.194,0.242,0.341c0,0.055-0.014,0.123-0.041,0.204
			c-0.027,0.08-0.054,0.156-0.078,0.227l-0.731,1.799l-0.661-1.845c-0.051-0.126-0.098-0.251-0.141-0.374
			c-0.043-0.124-0.07-0.216-0.08-0.276l0.015-0.105h-1.005v0.03c0.141,0.07,0.211,0.169,0.211,0.295c0,0.065-0.012,0.139-0.037,0.22
			c-0.025,0.081-0.047,0.151-0.067,0.212l-0.726,1.849l-0.901-2.371c-0.025-0.051-0.042-0.094-0.049-0.129
			c-0.008-0.035-0.017-0.101-0.026-0.196h-0.03c-0.061,0.039-0.128,0.063-0.204,0.071s-0.144,0.016-0.204,0.02
			c-0.081,0-0.159,0-0.234,0s-0.156,0-0.242,0v0.03c0.114,0.065,0.204,0.157,0.269,0.273c0.005,0.01,0.052,0.116,0.142,0.318
			l0.863,2.248c0.071,0.176,0.146,0.306,0.223,0.391c0.118,0.136,0.305,0.256,0.561,0.36l1.028-2.646l0.741,1.95
			c0.076,0.222,0.184,0.386,0.325,0.491c0.116,0.065,0.234,0.134,0.355,0.204l1.505-3.621h-1.021V20.118z"/>
		<path fill="#58595B" d="M105.769,18.833c-0.09,0.096-0.136,0.204-0.136,0.325c0,0.136,0.045,0.249,0.136,0.34
			c0.091,0.091,0.202,0.136,0.333,0.136c0.136,0,0.25-0.045,0.34-0.136c0.09-0.091,0.136-0.204,0.136-0.34
			c0-0.126-0.046-0.236-0.14-0.329c-0.093-0.094-0.206-0.14-0.336-0.14C105.97,18.689,105.859,18.737,105.769,18.833z"/>
		<path fill="#58595B" d="M106.529,23.294c-0.028-0.102-0.042-0.265-0.042-0.492v-2.835h-0.03c-0.085,0.091-0.267,0.136-0.544,0.136
			c-0.071,0-0.138,0-0.201,0s-0.13,0-0.2,0v0.03c0.126,0.065,0.209,0.158,0.25,0.278c0.02,0.061,0.03,0.169,0.03,0.324v2.221
			c0,0.131-0.018,0.246-0.053,0.346c-0.035,0.101-0.111,0.181-0.227,0.241v0.03h1.255l0.015-0.03
			C106.641,23.478,106.556,23.395,106.529,23.294z"/>
		<path fill="#58595B" d="M110.369,20.454c-0.325-0.314-0.725-0.472-1.198-0.472c-0.61,0-1.091,0.193-1.444,0.582
			c-0.308,0.338-0.461,0.751-0.461,1.239c0,0.59,0.227,1.059,0.681,1.406c0.408,0.313,0.907,0.469,1.497,0.469
			c0.176,0,0.352-0.016,0.525-0.049s0.346-0.082,0.518-0.147l0.355-0.703c-0.176,0.131-0.375,0.229-0.597,0.295
			c-0.222,0.065-0.436,0.099-0.643,0.099h-0.189c-0.454-0.041-0.802-0.222-1.043-0.543c-0.192-0.26-0.288-0.565-0.288-0.917h2.775
			C110.857,21.189,110.694,20.77,110.369,20.454z M108.112,21.268c0.035-0.242,0.149-0.433,0.34-0.571s0.413-0.208,0.666-0.208
			c0.247,0,0.461,0.067,0.643,0.2c0.181,0.134,0.285,0.327,0.31,0.579H108.112z"/>
		<path fill="#58595B" d="M114.87,15.893c0.04-0.104,0.124-0.242,0.218-0.385h0.463v-0.03c-0.161-0.146-0.284-0.285-0.367-0.416
			c-0.083-0.132-0.167-0.323-0.253-0.576l-1.467-3.96l-1.845,0.016c0.106,0.071,0.179,0.141,0.219,0.209
			c0.041,0.069,0.061,0.146,0.061,0.232c0,0.071-0.015,0.159-0.045,0.264c-0.03,0.104-0.048,0.166-0.053,0.187l-1.021,2.941
			c-0.096,0.287-0.169,0.483-0.219,0.59c-0.101,0.211-0.229,0.383-0.385,0.514v0.03h1.55v-0.03c-0.096-0.07-0.167-0.138-0.211-0.2
			c-0.045-0.063-0.068-0.135-0.068-0.216c0.005-0.056,0.019-0.123,0.042-0.204c0.023-0.08,0.044-0.153,0.064-0.219l0.219-0.636
			h1.504l0.234,0.719c0.03,0.075,0.048,0.131,0.053,0.166c0.005,0.035,0.007,0.089,0.007,0.159c0,0.171-0.103,0.314-0.31,0.431v0.03
			h1.066c-0.178,0.196-0.365,0.483-0.365,0.86c0,0.785,0.741,0.896,1.234,0.896c0.226,0,0.368-0.039,0.368-0.039l0.326-0.67
			c0,0-0.142,0.047-0.463,0.047C115.109,16.602,114.666,16.432,114.87,15.893z M111.989,13.292l0.509-1.512l0.529,1.513
			L111.989,13.292z"/>
		<path fill="#58595B" d="M88.454,11.711c0.137-0.145,0.206-0.314,0.206-0.511c0-0.202-0.07-0.374-0.209-0.515
			c-0.14-0.141-0.304-0.212-0.494-0.212c-0.2,0-0.37,0.071-0.509,0.212c-0.14,0.141-0.209,0.313-0.209,0.515
			c0,0.2,0.07,0.372,0.209,0.514c0.139,0.142,0.309,0.212,0.509,0.212C88.15,11.926,88.316,11.854,88.454,11.711z"/>
		<path fill="#58595B" d="M87.298,15.226c-0.031,0.104-0.104,0.203-0.22,0.299v0.03h1.845v-0.03
			c-0.111-0.086-0.183-0.173-0.216-0.262c-0.033-0.087-0.049-0.218-0.049-0.39v-2.616h-0.031c-0.082,0.046-0.156,0.075-0.225,0.087
			c-0.069,0.014-0.169,0.02-0.302,0.02h-0.099h-0.924v0.03c0.123,0.105,0.198,0.202,0.225,0.292
			c0.027,0.087,0.041,0.198,0.041,0.328v1.83C87.344,14.995,87.328,15.123,87.298,15.226z"/>
	</g>
</g>
</svg>
