<?xml version="1.0" encoding="UTF-8"?><svg id="uuid-9577b249-6ec8-4965-bd78-9c9536fe15d6" xmlns="http://www.w3.org/2000/svg" width="84.02" height="32" viewBox="0 0 84.02 32"><g id="uuid-0568cd9f-c55a-423e-8c7f-f623400e5ee5"><path d="M1.79,4.91v8.89c-.63.5-1.23,1.04-1.79,1.61V6.52c.57-.57,1.17-1.1,1.79-1.61" fill="#ef7f1a" fill-rule="evenodd"/><path d="M5.51,2.49v8.89c-.62.32-1.21.67-1.79,1.04V3.53c.58-.37,1.18-.72,1.79-1.04" fill="#ef7f1a" fill-rule="evenodd"/><path d="M9.23.97v8.89c-.61.19-1.21.4-1.79.63V1.61c.59-.24,1.18-.45,1.79-.63" fill="#ef7f1a" fill-rule="evenodd"/><path d="M12.94.18v8.89c-.61.08-1.2.18-1.79.3V.48c.59-.12,1.19-.22,1.79-.3" fill="#ef7f1a" fill-rule="evenodd"/><path d="M16.66.02v8.89c-.3-.01-.6-.02-.9-.02s-.6,0-.9.02V.02c.3-.01.6-.02.9-.02s.6,0,.9.02" fill="#ef7f1a" fill-rule="evenodd"/><path d="M20.38.48v8.89c-.59-.12-1.19-.22-1.79-.3V.18c.61.08,1.2.18,1.79.3" fill="#ef7f1a" fill-rule="evenodd"/><path d="M24.09,1.61v8.89c-.59-.24-1.18-.45-1.79-.63V.97c.61.19,1.21.4,1.79.63" fill="#ef7f1a" fill-rule="evenodd"/><path d="M27.81,3.53v8.89c-.58-.37-1.18-.72-1.79-1.04V2.49c.62.32,1.21.67,1.79,1.04" fill="#ef7f1a" fill-rule="evenodd"/><path d="M31.52,6.52v8.89c-.57-.57-1.17-1.1-1.79-1.61V4.91c.63.5,1.23,1.04,1.79,1.61" fill="#ef7f1a" fill-rule="evenodd"/><path d="M1.79,27.09v-8.89c-.63-.5-1.23-1.04-1.79-1.61v8.89c.57.57,1.17,1.1,1.79,1.61" fill="#e51a4b" fill-rule="evenodd"/><path d="M5.51,29.51v-8.89c-.62-.32-1.21-.67-1.79-1.04v8.89c.58.37,1.18.72,1.79,1.04" fill="#e51a4b" fill-rule="evenodd"/><path d="M9.23,31.03v-8.89c-.61-.19-1.21-.4-1.79-.63v8.89c.59.24,1.18.45,1.79.63" fill="#e51a4b" fill-rule="evenodd"/><path d="M12.94,31.82v-8.89c-.61-.08-1.2-.18-1.79-.3v8.89c.59.12,1.19.22,1.79.3" fill="#e51a4b" fill-rule="evenodd"/><path d="M16.66,31.98v-8.89c-.3.01-.6.02-.9.02s-.6,0-.9-.02v8.89c.3.01.6.02.9.02s.6,0,.9-.02" fill="#e51a4b" fill-rule="evenodd"/><path d="M20.38,31.52v-8.89c-.59.12-1.19.22-1.79.3v8.89c.61-.08,1.2-.18,1.79-.3" fill="#e51a4b" fill-rule="evenodd"/><path d="M24.09,30.39v-8.89c-.59.24-1.18.45-1.79.63v8.89c.61-.19,1.21-.4,1.79-.63" fill="#e51a4b" fill-rule="evenodd"/><path d="M27.81,28.47v-8.89c-.58.37-1.18.72-1.79,1.04v8.89c.62-.32,1.21-.67,1.79-1.04" fill="#e51a4b" fill-rule="evenodd"/><path d="M31.52,25.48v-8.89c-.57.57-1.17,1.1-1.79,1.61v8.89c.63-.5,1.23-1.04,1.79-1.61" fill="#e51a4b" fill-rule="evenodd"/><path d="M74.85,16.99c.17.67.34,1.6.51,2.81-.03.05-.06.07-.09.07-.04,0-.09-.02-.13-.07-.41-.66-.81-1.17-1.18-1.51-.38-.34-.75-.59-1.13-.74-.38-.15-1.03-.22-1.95-.22-.87,0-1.56.05-2.07.15-.05.06-.07.17-.07.33,0,.04,0,.12-.02.22-.06.48-.09,1.77-.09,3.88,0,.09,0,.21.02.38.45.02.76.03.93.03.75,0,1.3-.11,1.64-.34.34-.22.63-.7.88-1.44.04-.13.09-.19.16-.19.11,0,.16.09.16.26l-.03.36c-.04.47-.06.95-.06,1.45,0,.81.01,1.54.04,2.19,0,.2-.06.3-.16.3-.08,0-.13-.07-.16-.21-.13-.7-.39-1.21-.79-1.52-.4-.31-1.26-.46-2.6-.46-.02.44-.03,1.14-.03,2.11,0,1.26.05,2.06.13,2.4.09.34.3.61.64.81.34.2.91.3,1.72.3,2.32,0,3.81-.8,4.48-2.39.08-.2.16-.3.25-.3.09,0,.14.06.14.2,0,.07-.02.15-.05.23-.03.11-.12.53-.26,1.27-.03.16-.14.62-.34,1.39h-3.75c-.54,0-1.33-.03-2.37-.08-1.04-.05-1.96-.07-2.76-.07-.8,0-1.22-.02-1.26-.05-.04-.03-.05-.06-.05-.1,0-.12.1-.18.3-.18.67,0,1.1-.18,1.31-.53.21-.35.31-1.21.31-2.56v-1.83s.02-1.71.02-1.71c0-.34-.02-1-.06-1.96-.04-.96-.08-1.51-.11-1.65-.03-.14-.13-.27-.28-.41-.15-.13-.49-.27-1.01-.41-.16-.04-.23-.11-.23-.2,0-.11.1-.16.31-.16l1.82.1c.64.03,2.23.05,4.75.05,1.66,0,2.5,0,2.54,0M62.21,17.52c.16-.16.27-.33.32-.51.05-.14.12-.22.2-.22.05,0,.1.03.16.09.04.22.1.65.17,1.3l.21,1.69c0,.11-.06.16-.2.16-.07,0-.13-.06-.19-.18-.32-.78-.79-1.43-1.41-1.94-.62-.51-1.3-.77-2.04-.77s-1.27.22-1.64.65c-.37.43-.55.89-.55,1.38,0,.59.2,1.05.6,1.36.4.31,1.22.67,2.47,1.07.92.29,1.61.56,2.07.83.45.27.84.64,1.15,1.13.31.48.47,1,.47,1.55,0,.94-.39,1.78-1.17,2.53-.78.74-1.73,1.12-2.86,1.12-1.02,0-2.04-.32-3.07-.95-.2.17-.33.37-.39.59-.05.19-.13.29-.24.29-.1,0-.17-.12-.21-.37-.04-.25-.13-1.41-.27-3.48.02-.07.09-.11.19-.11.09,0,.16.07.21.2.92,2.31,2.2,3.46,3.84,3.46.81,0,1.45-.25,1.91-.74.46-.49.69-1.06.69-1.69,0-.44-.13-.85-.37-1.21-.25-.37-.58-.67-.99-.89-.41-.23-1.06-.48-1.94-.76-1.13-.36-1.9-.71-2.31-1.03-.41-.32-.7-.69-.89-1.1-.19-.41-.28-.8-.28-1.18,0-.79.36-1.49,1.08-2.11.72-.61,1.6-.92,2.64-.92.39,0,.81.06,1.24.19.43.13.88.32,1.35.57ZM49.49,16.8l1.63.04,2.5-.04c.3,0,.45.06.45.18,0,.09-.08.14-.24.17-.66.08-1.07.32-1.24.71-.16.39-.24,1.85-.24,4.36,0,.92.02,1.96.07,3.12.05,1.15.1,1.85.16,2.07.06.23.17.41.34.55.17.14.48.24.93.31.15.02.22.08.22.17,0,.11-.07.16-.2.16l-2.22-.02-1.89.02c-.21,0-.31-.06-.31-.18,0-.13.08-.19.25-.19.56-.01.88-.2.98-.56.09-.36.14-1.49.14-3.42s-.02-3.36-.05-4.51c-.03-1.15-.13-1.85-.29-2.11-.16-.26-.47-.42-.91-.48-.17-.03-.25-.1-.25-.2s.06-.16.19-.16ZM39.89,22.36c1.14-.02,2-.1,2.57-.24.57-.14,1.06-.44,1.46-.9.4-.46.6-1.02.6-1.65,0-.67-.22-1.26-.67-1.76-.45-.5-1.16-.75-2.14-.75-.53,0-1.13.07-1.77.21-.07,1.64-.11,2.94-.11,3.91,0,.34.02.73.06,1.18ZM43.27,22.59c.83.36,1.41.73,1.73,1.12.32.39.56.99.71,1.81.2,1.07.47,1.79.83,2.16.36.37.82.56,1.4.59.16.01.24.07.24.17s-.09.16-.28.16c-1.67,0-2.68-.05-3.03-.16-.36-.11-.62-.72-.79-1.83-.16-1.08-.33-1.86-.5-2.36-.18-.5-.46-.88-.84-1.14-.38-.27-.99-.4-1.8-.4-.31,0-.66.03-1.06.1-.03.38-.05.77-.05,1.17,0,1.53.02,2.52.06,2.97.04.45.17.78.38.98.21.21.56.31,1.06.33.22,0,.32.06.32.16,0,.12-.13.17-.39.17h-4.41c-.26,0-.38-.06-.38-.17,0-.1.1-.16.3-.16.45,0,.77-.07.94-.2.18-.14.31-.35.42-.64.1-.29.15-.81.15-1.57l-.02-1.82v-2.78c0-1.42-.02-2.36-.09-2.82-.06-.46-.17-.77-.33-.92-.16-.16-.53-.28-1.12-.37-.12-.02-.19-.07-.19-.16,0-.1.13-.15.38-.15l5.29-.11c1.46,0,2.52.28,3.18.84.66.56.99,1.24.99,2.05,0,.51-.13.98-.4,1.4-.27.42-.58.73-.94.92-.37.19-.95.41-1.76.65Z"/><path d="M73.92,3.41c.36.48.98,1.23,1.86,2.25l2.86,3.32,2.76,3.18c.06-1.08.09-2.48.09-4.2,0-1.29-.03-2.16-.08-2.6-.05-.44-.25-.81-.6-1.1-.34-.3-.77-.45-1.29-.45-.24,0-.36-.05-.36-.15,0-.06.02-.1.08-.13.05-.03.45-.05,1.2-.08.75-.03,1.38-.04,1.89-.04h1.2s.2,0,.2,0c.19,0,.28.05.28.16,0,.09-.08.15-.24.16-.6.06-1.03.22-1.3.47-.27.25-.42.6-.47,1.07-.05.47-.08,2.03-.08,4.69l-.09,4.72c0,.24-.06.36-.18.36-.03,0-.07-.01-.12-.04-.05-.02-.32-.33-.8-.9-.49-.58-1.08-1.27-1.78-2.07-.71-.8-1.26-1.46-1.67-1.96-.89-1.08-1.45-1.74-1.68-1.99-.86-.92-1.37-1.51-1.53-1.77-.1-.18-.2-.27-.28-.27-.06,0-.09.12-.09.35l.02,1.39c0,1.76.05,3.17.14,4.22.09,1.05.2,1.67.3,1.85.1.18.28.36.54.55.26.19.53.28.82.28.39,0,.59.07.59.21,0,.11-.11.16-.33.16h-4.29c-.2,0-.3-.06-.3-.16,0-.12.1-.18.29-.18.73,0,1.22-.16,1.46-.49.24-.33.37-1.02.37-2.08l-.07-3.15c-.02-1.85-.07-2.94-.17-3.27-.1-.33-.33-.73-.68-1.2-.35-.47-.75-.74-1.2-.8-.2-.02-.3-.08-.3-.17,0-.12.13-.18.39-.18l2.62.02ZM57.69,3.36h4.48c.26,0,.38.05.38.16s-.09.17-.29.19c-.42.04-.74.16-.94.35-.2.19-.36.53-.46,1.01-.1.48-.16,1.52-.16,3.1,0,1.9.05,3.22.16,3.95.11.73.46,1.31,1.04,1.75.58.43,1.38.65,2.38.65s1.85-.2,2.4-.6c.55-.4.91-.99,1.07-1.78.16-.78.25-2.49.25-5.12,0-1.35-.14-2.24-.42-2.66-.28-.42-.7-.63-1.24-.63-.22,0-.33-.06-.33-.19s.15-.18.44-.18h3.55c.16,0,.24.06.24.18,0,.09-.06.13-.2.15-.45.07-.77.21-.98.43-.21.22-.34.62-.41,1.2-.06.58-.1,1.42-.1,2.55,0,1.4-.05,2.59-.16,3.57-.11.98-.33,1.71-.68,2.18-.34.48-.87.87-1.56,1.16-.7.3-1.55.44-2.56.44s-1.92-.16-2.65-.5c-.73-.33-1.22-.77-1.48-1.31-.26-.55-.39-1.36-.39-2.45l.04-2.48c0-2.2-.09-3.55-.28-4.04-.19-.49-.59-.74-1.21-.76-.2,0-.3-.05-.3-.15,0-.12.13-.18.38-.18ZM54.31,3.99c.16-.16.27-.33.32-.51.05-.14.12-.22.2-.22.05,0,.1.03.16.09.04.22.1.65.17,1.3l.21,1.69c0,.11-.06.16-.2.16-.07,0-.13-.06-.19-.18-.32-.78-.79-1.43-1.41-1.94-.62-.51-1.3-.77-2.04-.77s-1.27.22-1.64.65c-.37.43-.55.89-.55,1.38,0,.59.2,1.05.6,1.36.4.31,1.22.67,2.47,1.07.92.29,1.61.56,2.07.83.45.27.84.64,1.15,1.13.31.48.47,1,.47,1.55,0,.94-.39,1.78-1.17,2.53-.78.74-1.73,1.12-2.86,1.12-1.02,0-2.04-.32-3.07-.95-.2.17-.33.37-.39.59-.05.19-.13.29-.24.29-.1,0-.17-.12-.21-.37-.04-.25-.13-1.41-.27-3.48.02-.07.09-.11.19-.11.09,0,.16.07.21.2.92,2.31,2.2,3.46,3.84,3.46.81,0,1.45-.25,1.91-.74.46-.49.69-1.06.69-1.69,0-.44-.12-.85-.37-1.21-.25-.37-.58-.67-.99-.89-.41-.23-1.06-.48-1.94-.76-1.13-.36-1.9-.71-2.31-1.03-.41-.32-.7-.69-.89-1.1-.19-.41-.28-.8-.28-1.18,0-.79.36-1.49,1.08-2.11.72-.61,1.6-.92,2.64-.92.39,0,.81.06,1.24.19.43.13.88.32,1.35.57Z"/></g></svg>