<?xml version="1.0" encoding="UTF-8"?><svg id="uuid-efebe24e-cf5f-4510-9246-589910701c37" xmlns="http://www.w3.org/2000/svg" width="21.17mm" height="8.87mm" viewBox="0 0 60 25.15"><g id="uuid-d2bc0567-9037-4e6f-8da2-1eaaad3f0c8b"><path d="M37.82,5.62c-.04-.25-.08-.75-.22-1.21-.5-1.58-1.61-2.47-3.26-2.6-1.72-.14-3.26.66-3.89,2.43,0,0,0,0,0,.01.17.02.35.05.52.1,1.12.28,2.07.98,2.8,1.86.83,1.01,1.4,2.21,1.62,3.49.3-.11.59-.25.85-.43,1.18-.82,1.57-2.04,1.6-3.65Z" fill="none"/><path d="M17.72,6.49c.73-1.26,1.26-2.74,1.28-4.2,0-.14,0-.28-.01-.43-.01-.15-.02-.22-.04-.35-.02-.12-.05-.23-.08-.34-.02-.05-.03-.1-.05-.15,0,0-.02-.04-.02-.05-.01-.02-.02-.04-.03-.06-.15-.29-.38-.52-.67-.52-.34,0-.68.22-.95.44-.91.75-1.57,1.81-2.11,2.83-.46.85-.85,1.75-1.1,2.68-.18.65-.29,1.29-.31,1.95-.02.59.02,1.14.22,1.7.03.09.06.16.1.24,1.59-.86,2.9-2.18,3.8-3.75Z" fill="none"/><path d="M32.24,5.34c-.59-.39-1.24-.62-1.92-.71-.2.76-.19,1.54-.03,2.33.52,2.48,2.83,3.33,4.71,2.86-.12-.73-.35-1.43-.7-2.09-.49-.93-1.18-1.8-2.06-2.39Z" fill="none"/><polygon points="36.33 13.7 36.33 15.56 41.97 15.56 36.09 24.92 45.51 24.92 45.51 23.07 39.87 23.07 45.64 13.7 36.33 13.7" fill="#00763c"/><rect x="29.77" y="13.71" width="2" height="11.21" fill="#00763c"/><polygon points="32.7 18.85 33.4 19.26 33.4 24.92 35.28 24.92 35.28 17.36 32.7 17.36 32.7 18.85" fill="#00763c"/><polygon points="12.77 13.51 10.55 20.85 7.87 13.51 7.04 13.51 4.36 20.82 2.16 13.51 .02 13.51 3.52 24.92 4.89 24.92 7.46 17.99 10.02 24.92 11.39 24.92 14.91 13.51 12.77 13.51" fill="#00763c"/><path d="M28.74,20.11c-.01-.08-.03-.16-.05-.24-.07-.32-.2-.66-.41-.96-.2-.31-.48-.57-.76-.76-.29-.19-.58-.32-.86-.41-.56-.18-1.07-.23-1.55-.26-.48-.02-.94,0-1.39.03-.45.03-.88.08-1.31.13-.85.1-1.68.22-2.47.3-.4.04-.78.07-1.15.07-.12,0-.3,0-.47-.01-.51-.06-.77-.64-.47-1.05.23-.31.55-.51.74-.6.27-.13.6-.23.94-.31.34-.08.71-.13,1.09-.16.75-.06,1.54-.05,2.33,0,.79.05,1.59.15,2.39.27.4.06.8.13,1.19.21.2.04.4.08.59.12l.15.03.81-2.24-.14-.03-.32-.07c-.21-.05-.42-.09-.64-.13-.43-.08-.85-.16-1.28-.22-.86-.13-1.72-.24-2.6-.29-.88-.06-1.77-.07-2.68,0-.46.04-.92.1-1.39.2-.47.1-.95.25-1.44.48-.48.23-.98.55-1.39,1.01-.21.23-.39.49-.53.78-.14.28-.24.58-.3.87-.06.27-.1.56-.09.88,0,.33.06.71.24,1.09.09.19.21.38.35.54.14.16.3.3.46.41.32.22.64.33.93.41.29.08.56.11.82.14.26.02.5.03.74.02.47,0,.92-.04,1.36-.08.87-.09,1.7-.21,2.51-.31.81-.1,1.6-.17,2.31-.14.71,0,1.19.25,1.34.55.06.12.09.24.09.37,0,0,0,0,0,0,0,.24-.05.42-.16.59-.1.17-.28.35-.52.51-.24.16-.54.3-.86.42-.65.23-1.4.37-2.17.44-.77.07-1.55.08-2.34.04-.78-.04-1.57-.13-2.33-.27-.38-.07-.76-.16-1.11-.26-.18-.05-.35-.11-.51-.17-.16-.06-.32-.13-.44-.19l-1.08,2.1c.25.13.48.22.71.31.23.08.46.16.68.22.45.13.89.23,1.33.31.88.16,1.76.26,2.65.3.89.04,1.78.03,2.68-.05.9-.09,1.81-.24,2.74-.57.46-.17.93-.38,1.39-.68.45-.3.9-.71,1.23-1.26.16-.27.29-.57.37-.88.08-.31.12-.62.12-.92,0-.15,0-.3-.02-.44,0-.07-.02-.14-.03-.22Z" fill="#00763c"/><path d="M27.9,4.5c-1.73.51-3.28,1.51-4.74,2.58v.48s.05-.04.08-.06c.94-.68,1.9-1.33,2.93-1.87.69-.36,1.42-.67,2.17-.85.02-.14.05-.28.08-.41-.18.04-.35.08-.52.13Z" fill="#575756"/><path d="M30.95,4.35c-.17-.04-.34-.07-.52-.1-.05.13-.08.25-.12.38.68.08,1.33.32,1.92.71.88.59,1.57,1.46,2.06,2.39.34.66.58,1.36.7,2.09.13-.03.25-.07.37-.11-.23-1.28-.79-2.48-1.62-3.49-.73-.88-1.68-1.59-2.8-1.86Z" fill="#575756"/><path d="M18.98,10.07c-.83.49-1.72.94-2.67,1.13-.31.06-.63.09-.95.06-.1-.01-.24-.04-.37-.08-.14-.04-.2-.07-.32-.13-.21-.11-.36-.24-.52-.44,0,0-.02-.02-.03-.04.49-.27.96-.58,1.4-.93,1.44-1.14,2.54-2.68,3.22-4.38.28-.7.48-1.43.58-2.18.08-.59.1-1.2-.03-1.79C19.17.69,18.79.03,18.11,0c-.39-.02-.77.19-1.08.42-.43.32-.8.73-1.13,1.15-.82,1.06-1.47,2.26-1.97,3.51-.26.66-.46,1.34-.59,2.04-.12.65-.17,1.32-.11,1.99.04.45.14.9.34,1.31-.41.2-.83.36-1.26.5v.41c.16-.05.32-.11.48-.16.33-.12.66-.26.97-.41.31.44.76.74,1.29.85.71.15,1.46-.01,2.14-.25,1.53-.54,2.86-1.45,4.14-2.42v-.49c-.77.58-1.54,1.14-2.38,1.63ZM13.93,10.24c-.04-.09-.07-.15-.1-.24-.2-.56-.24-1.11-.22-1.7.02-.66.14-1.31.31-1.95.25-.94.65-1.83,1.1-2.68.55-1.02,1.21-2.09,2.11-2.83.26-.22.61-.44.95-.44.3,0,.53.23.67.52.01.02.02.04.03.06,0,0,.02.04.02.05.02.05.04.1.05.15.04.11.06.23.08.34.02.13.03.2.04.35.01.14.01.28.01.43-.02,1.46-.55,2.94-1.28,4.2-.9,1.57-2.21,2.89-3.8,3.75Z" fill="#575756"/><path d="M34.9,13.94c.31-.76.5-1.57.56-2.38-.13.03-.26.05-.4.07-.02.27-.06.53-.11.79-.09.45-.22.89-.39,1.31-.16-.07-.34-.1-.52-.1-.74.01-1.25.54-1.24,1.29,0,.36.14.69.38.93.23.22.54.34.87.34,0,0,.02,0,.03,0,.7-.02,1.22-.55,1.22-1.28,0-.38-.13-.71-.36-.94,0,0-.02-.02-.03-.03Z" fill="#575756"/><path d="M39.61,4.54c-.3-1.63-1.09-2.94-2.56-3.76-1.54-.86-3.19-.96-4.87-.5-1.43.39-2.53,1.25-3.21,2.58-.25.49-.43,1-.55,1.51-.03.14-.06.28-.08.41-.16.98-.08,1.98.2,3,.47,1.7,1.52,2.89,3.17,3.53.95.37,1.94.46,2.96.37.13-.01.27-.03.4-.05.13-.02.27-.04.4-.07.99-.21,1.89-.65,2.64-1.39,1.19-1.18,1.61-2.65,1.66-4.29-.05-.45-.07-.9-.15-1.34ZM36.22,9.27c-.26.18-.55.32-.85.43-.12.04-.25.08-.37.11-1.88.47-4.18-.38-4.71-2.86-.17-.79-.17-1.57.03-2.33.03-.13.07-.26.12-.38,0,0,0,0,0-.01.64-1.77,2.17-2.56,3.89-2.43,1.65.13,2.76,1.02,3.26,2.6.15.46.18.96.22,1.21-.03,1.61-.42,2.83-1.6,3.65Z" fill="#00763c"/><path d="M58.03.25c-.96,1.69-1.93,3.4-2.94,5.18-1.03-1.78-2.02-3.48-3-5.17h-2.05s0,0,0,0c.07.13,2.79,4.68,3.97,6.66.08.14.13.3.13.46.02,1.14,0,3.88,0,4.02,0,0,0,0,0,0h1.8c0-.13-.01-2.78,0-4,0-.17.05-.36.14-.5,1.09-1.86,3.7-6.26,3.92-6.65h-1.97Z" fill="#00763c"/><path d="M23.16,9.73V.25h-1.8v11.15h7.28v-1.67h-5.48Z" fill="#00763c"/><polygon points="47.55 7.55 41.88 .24 40.58 .24 40.58 11.62 42.4 11.62 42.4 4.06 48.19 11.62 49.36 11.62 49.36 .23 47.55 .23 47.55 7.55" fill="#00763c"/><polygon points="9.41 11.47 9.41 9.61 3.77 9.61 9.55 .25 .23 .25 .23 2.11 5.88 2.11 0 11.47 9.41 11.47" fill="#00763c"/><rect x="10.32" y=".25" width="2" height="11.21" fill="#00763c"/></g></svg>